G04 #@! TF.GenerationSoftware,KiCad,Pcbnew,(5.1.0)-1*
G04 #@! TF.CreationDate,2019-07-29T16:37:05-07:00*
G04 #@! TF.ProjectId,Watch V4,57617463-6820-4563-942e-6b696361645f,rev?*
G04 #@! TF.SameCoordinates,Original*
G04 #@! TF.FileFunction,Legend,Top*
G04 #@! TF.FilePolarity,Positive*
%FSLAX46Y46*%
G04 Gerber Fmt 4.6, Leading zero omitted, Abs format (unit mm)*
G04 Created by KiCad (PCBNEW (5.1.0)-1) date 2019-07-29 16:37:05*
%MOMM*%
%LPD*%
G04 APERTURE LIST*
%ADD10C,0.120000*%
%ADD11C,0.125000*%
%ADD12C,0.250000*%
%ADD13C,0.100000*%
%ADD14C,0.200000*%
%ADD15C,0.150000*%
G04 APERTURE END LIST*
D10*
X152985404Y-35239818D02*
G75*
G02X156083000Y-38227000I1700596J-1336182D01*
G01*
X149795589Y-38170266D02*
G75*
G02X152907999Y-35179001I1461411J1594266D01*
G01*
X152908000Y-40894000D02*
X156083000Y-38227000D01*
X149733000Y-38100000D02*
X152908000Y-40894000D01*
D11*
X157545885Y-79350371D02*
X157522076Y-79374180D01*
X157450647Y-79397990D01*
X157403028Y-79397990D01*
X157331600Y-79374180D01*
X157283980Y-79326561D01*
X157260171Y-79278942D01*
X157236361Y-79183704D01*
X157236361Y-79112276D01*
X157260171Y-79017038D01*
X157283980Y-78969419D01*
X157331600Y-78921800D01*
X157403028Y-78897990D01*
X157450647Y-78897990D01*
X157522076Y-78921800D01*
X157545885Y-78945609D01*
X157688742Y-78897990D02*
X157974457Y-78897990D01*
X157831600Y-79397990D02*
X157831600Y-78897990D01*
D12*
X148336666Y-161694761D02*
X148479523Y-161742380D01*
X148717619Y-161742380D01*
X148812857Y-161694761D01*
X148860476Y-161647142D01*
X148908095Y-161551904D01*
X148908095Y-161456666D01*
X148860476Y-161361428D01*
X148812857Y-161313809D01*
X148717619Y-161266190D01*
X148527142Y-161218571D01*
X148431904Y-161170952D01*
X148384285Y-161123333D01*
X148336666Y-161028095D01*
X148336666Y-160932857D01*
X148384285Y-160837619D01*
X148431904Y-160790000D01*
X148527142Y-160742380D01*
X148765238Y-160742380D01*
X148908095Y-160790000D01*
X149336666Y-161742380D02*
X149336666Y-160742380D01*
X149812857Y-161218571D02*
X150146190Y-161218571D01*
X150289047Y-161742380D02*
X149812857Y-161742380D01*
X149812857Y-160742380D01*
X150289047Y-160742380D01*
X150717619Y-161742380D02*
X150717619Y-160742380D01*
X151050952Y-161456666D01*
X151384285Y-160742380D01*
X151384285Y-161742380D01*
X151860476Y-161742380D02*
X151860476Y-160742380D01*
X152241428Y-160742380D01*
X152336666Y-160790000D01*
X152384285Y-160837619D01*
X152431904Y-160932857D01*
X152431904Y-161075714D01*
X152384285Y-161170952D01*
X152336666Y-161218571D01*
X152241428Y-161266190D01*
X151860476Y-161266190D01*
X153431904Y-161742380D02*
X153098571Y-161266190D01*
X152860476Y-161742380D02*
X152860476Y-160742380D01*
X153241428Y-160742380D01*
X153336666Y-160790000D01*
X153384285Y-160837619D01*
X153431904Y-160932857D01*
X153431904Y-161075714D01*
X153384285Y-161170952D01*
X153336666Y-161218571D01*
X153241428Y-161266190D01*
X152860476Y-161266190D01*
X153860476Y-161218571D02*
X154193809Y-161218571D01*
X154336666Y-161742380D02*
X153860476Y-161742380D01*
X153860476Y-160742380D01*
X154336666Y-160742380D01*
X155860476Y-161218571D02*
X156003333Y-161266190D01*
X156050952Y-161313809D01*
X156098571Y-161409047D01*
X156098571Y-161551904D01*
X156050952Y-161647142D01*
X156003333Y-161694761D01*
X155908095Y-161742380D01*
X155527142Y-161742380D01*
X155527142Y-160742380D01*
X155860476Y-160742380D01*
X155955714Y-160790000D01*
X156003333Y-160837619D01*
X156050952Y-160932857D01*
X156050952Y-161028095D01*
X156003333Y-161123333D01*
X155955714Y-161170952D01*
X155860476Y-161218571D01*
X155527142Y-161218571D01*
X156479523Y-161456666D02*
X156955714Y-161456666D01*
X156384285Y-161742380D02*
X156717619Y-160742380D01*
X157050952Y-161742380D01*
X157384285Y-161742380D02*
X157384285Y-160742380D01*
X157955714Y-161742380D01*
X157955714Y-160742380D01*
X158431904Y-161742380D02*
X158431904Y-160742380D01*
X158670000Y-160742380D01*
X158812857Y-160790000D01*
X158908095Y-160885238D01*
X158955714Y-160980476D01*
X159003333Y-161170952D01*
X159003333Y-161313809D01*
X158955714Y-161504285D01*
X158908095Y-161599523D01*
X158812857Y-161694761D01*
X158670000Y-161742380D01*
X158431904Y-161742380D01*
D13*
X151784238Y-148415333D02*
X151765190Y-148396285D01*
X151727095Y-148339142D01*
X151708047Y-148301047D01*
X151689000Y-148243904D01*
X151669952Y-148148666D01*
X151669952Y-148072476D01*
X151689000Y-147977238D01*
X151708047Y-147920095D01*
X151727095Y-147882000D01*
X151765190Y-147824857D01*
X151784238Y-147805809D01*
X151898523Y-147862952D02*
X152165190Y-147862952D01*
X151993761Y-148262952D01*
X152317571Y-148110571D02*
X152622333Y-148110571D01*
X152793761Y-147901047D02*
X152812809Y-147882000D01*
X152850904Y-147862952D01*
X152946142Y-147862952D01*
X152984238Y-147882000D01*
X153003285Y-147901047D01*
X153022333Y-147939142D01*
X153022333Y-147977238D01*
X153003285Y-148034380D01*
X152774714Y-148262952D01*
X153022333Y-148262952D01*
X153384238Y-147862952D02*
X153193761Y-147862952D01*
X153174714Y-148053428D01*
X153193761Y-148034380D01*
X153231857Y-148015333D01*
X153327095Y-148015333D01*
X153365190Y-148034380D01*
X153384238Y-148053428D01*
X153403285Y-148091523D01*
X153403285Y-148186761D01*
X153384238Y-148224857D01*
X153365190Y-148243904D01*
X153327095Y-148262952D01*
X153231857Y-148262952D01*
X153193761Y-148243904D01*
X153174714Y-148224857D01*
X153574714Y-148110571D02*
X153879476Y-148110571D01*
X154279476Y-148262952D02*
X154050904Y-148262952D01*
X154165190Y-148262952D02*
X154165190Y-147862952D01*
X154127095Y-147920095D01*
X154089000Y-147958190D01*
X154050904Y-147977238D01*
X154469952Y-148262952D02*
X154546142Y-148262952D01*
X154584238Y-148243904D01*
X154603285Y-148224857D01*
X154641380Y-148167714D01*
X154660428Y-148091523D01*
X154660428Y-147939142D01*
X154641380Y-147901047D01*
X154622333Y-147882000D01*
X154584238Y-147862952D01*
X154508047Y-147862952D01*
X154469952Y-147882000D01*
X154450904Y-147901047D01*
X154431857Y-147939142D01*
X154431857Y-148034380D01*
X154450904Y-148072476D01*
X154469952Y-148091523D01*
X154508047Y-148110571D01*
X154584238Y-148110571D01*
X154622333Y-148091523D01*
X154641380Y-148072476D01*
X154660428Y-148034380D01*
X154793761Y-148415333D02*
X154812809Y-148396285D01*
X154850904Y-148339142D01*
X154869952Y-148301047D01*
X154889000Y-148243904D01*
X154908047Y-148148666D01*
X154908047Y-148072476D01*
X154889000Y-147977238D01*
X154869952Y-147920095D01*
X154850904Y-147882000D01*
X154812809Y-147824857D01*
X154793761Y-147805809D01*
D11*
X151142190Y-147395380D02*
X151213619Y-147419190D01*
X151332666Y-147419190D01*
X151380285Y-147395380D01*
X151404095Y-147371571D01*
X151427904Y-147323952D01*
X151427904Y-147276333D01*
X151404095Y-147228714D01*
X151380285Y-147204904D01*
X151332666Y-147181095D01*
X151237428Y-147157285D01*
X151189809Y-147133476D01*
X151166000Y-147109666D01*
X151142190Y-147062047D01*
X151142190Y-147014428D01*
X151166000Y-146966809D01*
X151189809Y-146943000D01*
X151237428Y-146919190D01*
X151356476Y-146919190D01*
X151427904Y-146943000D01*
X151642190Y-147419190D02*
X151642190Y-147085857D01*
X151642190Y-146919190D02*
X151618380Y-146943000D01*
X151642190Y-146966809D01*
X151666000Y-146943000D01*
X151642190Y-146919190D01*
X151642190Y-146966809D01*
X152070761Y-147395380D02*
X152023142Y-147419190D01*
X151927904Y-147419190D01*
X151880285Y-147395380D01*
X151856476Y-147347761D01*
X151856476Y-147157285D01*
X151880285Y-147109666D01*
X151927904Y-147085857D01*
X152023142Y-147085857D01*
X152070761Y-147109666D01*
X152094571Y-147157285D01*
X152094571Y-147204904D01*
X151856476Y-147252523D01*
X152308857Y-147419190D02*
X152308857Y-147085857D01*
X152308857Y-147133476D02*
X152332666Y-147109666D01*
X152380285Y-147085857D01*
X152451714Y-147085857D01*
X152499333Y-147109666D01*
X152523142Y-147157285D01*
X152523142Y-147419190D01*
X152523142Y-147157285D02*
X152546952Y-147109666D01*
X152594571Y-147085857D01*
X152666000Y-147085857D01*
X152713619Y-147109666D01*
X152737428Y-147157285D01*
X152737428Y-147419190D01*
X152975523Y-147085857D02*
X152975523Y-147585857D01*
X152975523Y-147109666D02*
X153023142Y-147085857D01*
X153118380Y-147085857D01*
X153166000Y-147109666D01*
X153189809Y-147133476D01*
X153213619Y-147181095D01*
X153213619Y-147323952D01*
X153189809Y-147371571D01*
X153166000Y-147395380D01*
X153118380Y-147419190D01*
X153023142Y-147419190D01*
X152975523Y-147395380D01*
X153427904Y-147419190D02*
X153427904Y-147085857D01*
X153427904Y-147181095D02*
X153451714Y-147133476D01*
X153475523Y-147109666D01*
X153523142Y-147085857D01*
X153570761Y-147085857D01*
X153927904Y-147395380D02*
X153880285Y-147419190D01*
X153785047Y-147419190D01*
X153737428Y-147395380D01*
X153713619Y-147347761D01*
X153713619Y-147157285D01*
X153737428Y-147109666D01*
X153785047Y-147085857D01*
X153880285Y-147085857D01*
X153927904Y-147109666D01*
X153951714Y-147157285D01*
X153951714Y-147204904D01*
X153713619Y-147252523D01*
X154546952Y-147419190D02*
X154546952Y-146919190D01*
X154785047Y-147085857D02*
X154785047Y-147419190D01*
X154785047Y-147133476D02*
X154808857Y-147109666D01*
X154856476Y-147085857D01*
X154927904Y-147085857D01*
X154975523Y-147109666D01*
X154999333Y-147157285D01*
X154999333Y-147419190D01*
X155451714Y-147395380D02*
X155404095Y-147419190D01*
X155308857Y-147419190D01*
X155261238Y-147395380D01*
X155237428Y-147371571D01*
X155213619Y-147323952D01*
X155213619Y-147181095D01*
X155237428Y-147133476D01*
X155261238Y-147109666D01*
X155308857Y-147085857D01*
X155404095Y-147085857D01*
X155451714Y-147109666D01*
X155666000Y-147371571D02*
X155689809Y-147395380D01*
X155666000Y-147419190D01*
X155642190Y-147395380D01*
X155666000Y-147371571D01*
X155666000Y-147419190D01*
D14*
X161242600Y-49207001D02*
X161242600Y-70543001D01*
X129492600Y-51747001D02*
G75*
G02X132032600Y-49207001I2540000J0D01*
G01*
X161242600Y-70543001D02*
X132032600Y-70543001D01*
X132032600Y-70543001D02*
G75*
G02X129492600Y-68003001I0J2540000D01*
G01*
X132032600Y-49207001D02*
X161242600Y-49207001D01*
X129492600Y-68008500D02*
X129492600Y-51747001D01*
D10*
X125730000Y-46926500D02*
X125730000Y-29083000D01*
X161290000Y-46926500D02*
X125730000Y-46926500D01*
X161290000Y-29083000D02*
X161290000Y-46926500D01*
X125730000Y-29083000D02*
X161290000Y-29083000D01*
D13*
X158456000Y-103164000D02*
X153456000Y-103164000D01*
X158456000Y-108164000D02*
X158456000Y-103164000D01*
X153456000Y-108164000D02*
X158456000Y-108164000D01*
X153456000Y-103164000D02*
X153456000Y-108164000D01*
X158456000Y-107164000D02*
X157456000Y-108164000D01*
X148193000Y-106877000D02*
X148193000Y-102677000D01*
X151393000Y-106877000D02*
X151393000Y-102677000D01*
X149293000Y-106877000D02*
X150293000Y-106877000D01*
X149293000Y-102677000D02*
X150293000Y-102677000D01*
X148693000Y-107577000D02*
X148693000Y-107577000D01*
X148793000Y-107577000D02*
X148793000Y-107577000D01*
X148793000Y-107577000D02*
G75*
G03X148693000Y-107577000I-50000J0D01*
G01*
X148693000Y-107577000D02*
G75*
G03X148793000Y-107577000I50000J0D01*
G01*
D10*
X153117733Y-102745000D02*
X153460267Y-102745000D01*
X153117733Y-101725000D02*
X153460267Y-101725000D01*
X157868252Y-102818000D02*
X157345748Y-102818000D01*
X157868252Y-101398000D02*
X157345748Y-101398000D01*
D13*
X158456000Y-112308000D02*
X153456000Y-112308000D01*
X158456000Y-117308000D02*
X158456000Y-112308000D01*
X153456000Y-117308000D02*
X158456000Y-117308000D01*
X153456000Y-112308000D02*
X153456000Y-117308000D01*
X158456000Y-116308000D02*
X157456000Y-117308000D01*
X148193000Y-116021000D02*
X148193000Y-111821000D01*
X151393000Y-116021000D02*
X151393000Y-111821000D01*
X149293000Y-116021000D02*
X150293000Y-116021000D01*
X149293000Y-111821000D02*
X150293000Y-111821000D01*
X148693000Y-116721000D02*
X148693000Y-116721000D01*
X148793000Y-116721000D02*
X148793000Y-116721000D01*
X148793000Y-116721000D02*
G75*
G03X148693000Y-116721000I-50000J0D01*
G01*
X148693000Y-116721000D02*
G75*
G03X148793000Y-116721000I50000J0D01*
G01*
D10*
X153117733Y-111889000D02*
X153460267Y-111889000D01*
X153117733Y-110869000D02*
X153460267Y-110869000D01*
X157868252Y-111962000D02*
X157345748Y-111962000D01*
X157868252Y-110542000D02*
X157345748Y-110542000D01*
D13*
X158456000Y-121452000D02*
X153456000Y-121452000D01*
X158456000Y-126452000D02*
X158456000Y-121452000D01*
X153456000Y-126452000D02*
X158456000Y-126452000D01*
X153456000Y-121452000D02*
X153456000Y-126452000D01*
X158456000Y-125452000D02*
X157456000Y-126452000D01*
X148193000Y-125165000D02*
X148193000Y-120965000D01*
X151393000Y-125165000D02*
X151393000Y-120965000D01*
X149293000Y-125165000D02*
X150293000Y-125165000D01*
X149293000Y-120965000D02*
X150293000Y-120965000D01*
X148693000Y-125865000D02*
X148693000Y-125865000D01*
X148793000Y-125865000D02*
X148793000Y-125865000D01*
X148793000Y-125865000D02*
G75*
G03X148693000Y-125865000I-50000J0D01*
G01*
X148693000Y-125865000D02*
G75*
G03X148793000Y-125865000I50000J0D01*
G01*
D10*
X153117733Y-121033000D02*
X153460267Y-121033000D01*
X153117733Y-120013000D02*
X153460267Y-120013000D01*
X157868252Y-121106000D02*
X157345748Y-121106000D01*
X157868252Y-119686000D02*
X157345748Y-119686000D01*
D13*
X158456000Y-130596000D02*
X153456000Y-130596000D01*
X158456000Y-135596000D02*
X158456000Y-130596000D01*
X153456000Y-135596000D02*
X158456000Y-135596000D01*
X153456000Y-130596000D02*
X153456000Y-135596000D01*
X158456000Y-134596000D02*
X157456000Y-135596000D01*
X148193000Y-134309000D02*
X148193000Y-130109000D01*
X151393000Y-134309000D02*
X151393000Y-130109000D01*
X149293000Y-134309000D02*
X150293000Y-134309000D01*
X149293000Y-130109000D02*
X150293000Y-130109000D01*
X148693000Y-135009000D02*
X148693000Y-135009000D01*
X148793000Y-135009000D02*
X148793000Y-135009000D01*
X148793000Y-135009000D02*
G75*
G03X148693000Y-135009000I-50000J0D01*
G01*
X148693000Y-135009000D02*
G75*
G03X148793000Y-135009000I50000J0D01*
G01*
D10*
X153117733Y-130177000D02*
X153460267Y-130177000D01*
X153117733Y-129157000D02*
X153460267Y-129157000D01*
X157868252Y-130250000D02*
X157345748Y-130250000D01*
X157868252Y-128830000D02*
X157345748Y-128830000D01*
X158621000Y-76155733D02*
X158621000Y-76498267D01*
X159641000Y-76155733D02*
X159641000Y-76498267D01*
X148338000Y-76371267D02*
X148338000Y-76028733D01*
X147318000Y-76371267D02*
X147318000Y-76028733D01*
D13*
X155391000Y-158572000D02*
X151191000Y-158572000D01*
X155391000Y-155372000D02*
X151191000Y-155372000D01*
X155391000Y-157472000D02*
X155391000Y-156472000D01*
X151191000Y-157472000D02*
X151191000Y-156472000D01*
X156091000Y-158072000D02*
X156091000Y-158072000D01*
X156091000Y-157972000D02*
X156091000Y-157972000D01*
X156091000Y-157972000D02*
G75*
G03X156091000Y-158072000I0J-50000D01*
G01*
X156091000Y-158072000D02*
G75*
G03X156091000Y-157972000I0J50000D01*
G01*
D10*
X148207000Y-154857267D02*
X148207000Y-154514733D01*
X149227000Y-154857267D02*
X149227000Y-154514733D01*
D13*
X155916000Y-153646000D02*
X154916000Y-154646000D01*
X150916000Y-149646000D02*
X150916000Y-154646000D01*
X150916000Y-154646000D02*
X155916000Y-154646000D01*
X155916000Y-154646000D02*
X155916000Y-149646000D01*
X155916000Y-149646000D02*
X150916000Y-149646000D01*
D10*
X157786000Y-154433748D02*
X157786000Y-154956252D01*
X159206000Y-154433748D02*
X159206000Y-154956252D01*
D13*
X148693000Y-144153000D02*
G75*
G03X148793000Y-144153000I50000J0D01*
G01*
X148793000Y-144153000D02*
G75*
G03X148693000Y-144153000I-50000J0D01*
G01*
X148793000Y-144153000D02*
X148793000Y-144153000D01*
X148693000Y-144153000D02*
X148693000Y-144153000D01*
X149293000Y-139253000D02*
X150293000Y-139253000D01*
X149293000Y-143453000D02*
X150293000Y-143453000D01*
X151393000Y-143453000D02*
X151393000Y-139253000D01*
X148193000Y-143453000D02*
X148193000Y-139253000D01*
X158456000Y-143740000D02*
X157456000Y-144740000D01*
X153456000Y-139740000D02*
X153456000Y-144740000D01*
X153456000Y-144740000D02*
X158456000Y-144740000D01*
X158456000Y-144740000D02*
X158456000Y-139740000D01*
X158456000Y-139740000D02*
X153456000Y-139740000D01*
D10*
X153117733Y-138301000D02*
X153460267Y-138301000D01*
X153117733Y-139321000D02*
X153460267Y-139321000D01*
X157868252Y-137974000D02*
X157345748Y-137974000D01*
X157868252Y-139394000D02*
X157345748Y-139394000D01*
X148844000Y-75057000D02*
X157988000Y-75057000D01*
X157988000Y-75057000D02*
X157988000Y-77597000D01*
X157988000Y-77597000D02*
X148844000Y-77597000D01*
X148844000Y-77597000D02*
X148844000Y-75057000D01*
X144399000Y-83566000D02*
G75*
G02X145669000Y-82296000I1270000J0D01*
G01*
X145669000Y-97790000D02*
G75*
G02X144399000Y-96520000I0J1270000D01*
G01*
X161163000Y-96520000D02*
G75*
G02X159893000Y-97790000I-1270000J0D01*
G01*
X159893000Y-82296000D02*
G75*
G02X161163000Y-83566000I0J-1270000D01*
G01*
X161163000Y-83566000D02*
X161163000Y-92964000D01*
X144399000Y-83566000D02*
X144399000Y-85090000D01*
X159893000Y-82296000D02*
X145669000Y-82296000D01*
X145669000Y-97790000D02*
X146939000Y-97790000D01*
X161163000Y-96520000D02*
X161163000Y-92964000D01*
X144399000Y-96520000D02*
X144399000Y-85090000D01*
X146939000Y-97790000D02*
X159893000Y-97790000D01*
D15*
X155575095Y-90630380D02*
X155575095Y-91439904D01*
X155622714Y-91535142D01*
X155670333Y-91582761D01*
X155765571Y-91630380D01*
X155956047Y-91630380D01*
X156051285Y-91582761D01*
X156098904Y-91535142D01*
X156146523Y-91439904D01*
X156146523Y-90630380D01*
X157146523Y-91630380D02*
X156575095Y-91630380D01*
X156860809Y-91630380D02*
X156860809Y-90630380D01*
X156765571Y-90773238D01*
X156670333Y-90868476D01*
X156575095Y-90916095D01*
X153249333Y-104338380D02*
X152916000Y-103862190D01*
X152677904Y-104338380D02*
X152677904Y-103338380D01*
X153058857Y-103338380D01*
X153154095Y-103386000D01*
X153201714Y-103433619D01*
X153249333Y-103528857D01*
X153249333Y-103671714D01*
X153201714Y-103766952D01*
X153154095Y-103814571D01*
X153058857Y-103862190D01*
X152677904Y-103862190D01*
X153630285Y-103433619D02*
X153677904Y-103386000D01*
X153773142Y-103338380D01*
X154011238Y-103338380D01*
X154106476Y-103386000D01*
X154154095Y-103433619D01*
X154201714Y-103528857D01*
X154201714Y-103624095D01*
X154154095Y-103766952D01*
X153582666Y-104338380D01*
X154201714Y-104338380D01*
X160488333Y-102465142D02*
X160440714Y-102512761D01*
X160297857Y-102560380D01*
X160202619Y-102560380D01*
X160059761Y-102512761D01*
X159964523Y-102417523D01*
X159916904Y-102322285D01*
X159869285Y-102131809D01*
X159869285Y-101988952D01*
X159916904Y-101798476D01*
X159964523Y-101703238D01*
X160059761Y-101608000D01*
X160202619Y-101560380D01*
X160297857Y-101560380D01*
X160440714Y-101608000D01*
X160488333Y-101655619D01*
X161440714Y-102560380D02*
X160869285Y-102560380D01*
X161155000Y-102560380D02*
X161155000Y-101560380D01*
X161059761Y-101703238D01*
X160964523Y-101798476D01*
X160869285Y-101846095D01*
X153249333Y-113482380D02*
X152916000Y-113006190D01*
X152677904Y-113482380D02*
X152677904Y-112482380D01*
X153058857Y-112482380D01*
X153154095Y-112530000D01*
X153201714Y-112577619D01*
X153249333Y-112672857D01*
X153249333Y-112815714D01*
X153201714Y-112910952D01*
X153154095Y-112958571D01*
X153058857Y-113006190D01*
X152677904Y-113006190D01*
X153582666Y-112482380D02*
X154201714Y-112482380D01*
X153868380Y-112863333D01*
X154011238Y-112863333D01*
X154106476Y-112910952D01*
X154154095Y-112958571D01*
X154201714Y-113053809D01*
X154201714Y-113291904D01*
X154154095Y-113387142D01*
X154106476Y-113434761D01*
X154011238Y-113482380D01*
X153725523Y-113482380D01*
X153630285Y-113434761D01*
X153582666Y-113387142D01*
X160488333Y-111609142D02*
X160440714Y-111656761D01*
X160297857Y-111704380D01*
X160202619Y-111704380D01*
X160059761Y-111656761D01*
X159964523Y-111561523D01*
X159916904Y-111466285D01*
X159869285Y-111275809D01*
X159869285Y-111132952D01*
X159916904Y-110942476D01*
X159964523Y-110847238D01*
X160059761Y-110752000D01*
X160202619Y-110704380D01*
X160297857Y-110704380D01*
X160440714Y-110752000D01*
X160488333Y-110799619D01*
X160869285Y-110799619D02*
X160916904Y-110752000D01*
X161012142Y-110704380D01*
X161250238Y-110704380D01*
X161345476Y-110752000D01*
X161393095Y-110799619D01*
X161440714Y-110894857D01*
X161440714Y-110990095D01*
X161393095Y-111132952D01*
X160821666Y-111704380D01*
X161440714Y-111704380D01*
X153249333Y-122626380D02*
X152916000Y-122150190D01*
X152677904Y-122626380D02*
X152677904Y-121626380D01*
X153058857Y-121626380D01*
X153154095Y-121674000D01*
X153201714Y-121721619D01*
X153249333Y-121816857D01*
X153249333Y-121959714D01*
X153201714Y-122054952D01*
X153154095Y-122102571D01*
X153058857Y-122150190D01*
X152677904Y-122150190D01*
X154106476Y-121959714D02*
X154106476Y-122626380D01*
X153868380Y-121578761D02*
X153630285Y-122293047D01*
X154249333Y-122293047D01*
X160488333Y-120753142D02*
X160440714Y-120800761D01*
X160297857Y-120848380D01*
X160202619Y-120848380D01*
X160059761Y-120800761D01*
X159964523Y-120705523D01*
X159916904Y-120610285D01*
X159869285Y-120419809D01*
X159869285Y-120276952D01*
X159916904Y-120086476D01*
X159964523Y-119991238D01*
X160059761Y-119896000D01*
X160202619Y-119848380D01*
X160297857Y-119848380D01*
X160440714Y-119896000D01*
X160488333Y-119943619D01*
X160821666Y-119848380D02*
X161440714Y-119848380D01*
X161107380Y-120229333D01*
X161250238Y-120229333D01*
X161345476Y-120276952D01*
X161393095Y-120324571D01*
X161440714Y-120419809D01*
X161440714Y-120657904D01*
X161393095Y-120753142D01*
X161345476Y-120800761D01*
X161250238Y-120848380D01*
X160964523Y-120848380D01*
X160869285Y-120800761D01*
X160821666Y-120753142D01*
X153249333Y-131770380D02*
X152916000Y-131294190D01*
X152677904Y-131770380D02*
X152677904Y-130770380D01*
X153058857Y-130770380D01*
X153154095Y-130818000D01*
X153201714Y-130865619D01*
X153249333Y-130960857D01*
X153249333Y-131103714D01*
X153201714Y-131198952D01*
X153154095Y-131246571D01*
X153058857Y-131294190D01*
X152677904Y-131294190D01*
X154154095Y-130770380D02*
X153677904Y-130770380D01*
X153630285Y-131246571D01*
X153677904Y-131198952D01*
X153773142Y-131151333D01*
X154011238Y-131151333D01*
X154106476Y-131198952D01*
X154154095Y-131246571D01*
X154201714Y-131341809D01*
X154201714Y-131579904D01*
X154154095Y-131675142D01*
X154106476Y-131722761D01*
X154011238Y-131770380D01*
X153773142Y-131770380D01*
X153677904Y-131722761D01*
X153630285Y-131675142D01*
X160488333Y-129897142D02*
X160440714Y-129944761D01*
X160297857Y-129992380D01*
X160202619Y-129992380D01*
X160059761Y-129944761D01*
X159964523Y-129849523D01*
X159916904Y-129754285D01*
X159869285Y-129563809D01*
X159869285Y-129420952D01*
X159916904Y-129230476D01*
X159964523Y-129135238D01*
X160059761Y-129040000D01*
X160202619Y-128992380D01*
X160297857Y-128992380D01*
X160440714Y-129040000D01*
X160488333Y-129087619D01*
X161345476Y-129325714D02*
X161345476Y-129992380D01*
X161107380Y-128944761D02*
X160869285Y-129659047D01*
X161488333Y-129659047D01*
X157932380Y-76620666D02*
X157456190Y-76954000D01*
X157932380Y-77192095D02*
X156932380Y-77192095D01*
X156932380Y-76811142D01*
X156980000Y-76715904D01*
X157027619Y-76668285D01*
X157122857Y-76620666D01*
X157265714Y-76620666D01*
X157360952Y-76668285D01*
X157408571Y-76715904D01*
X157456190Y-76811142D01*
X157456190Y-77192095D01*
X157932380Y-75668285D02*
X157932380Y-76239714D01*
X157932380Y-75954000D02*
X156932380Y-75954000D01*
X157075238Y-76049238D01*
X157170476Y-76144476D01*
X157218095Y-76239714D01*
X149931380Y-76239666D02*
X149455190Y-76573000D01*
X149931380Y-76811095D02*
X148931380Y-76811095D01*
X148931380Y-76430142D01*
X148979000Y-76334904D01*
X149026619Y-76287285D01*
X149121857Y-76239666D01*
X149264714Y-76239666D01*
X149359952Y-76287285D01*
X149407571Y-76334904D01*
X149455190Y-76430142D01*
X149455190Y-76811095D01*
X149931380Y-75763476D02*
X149931380Y-75573000D01*
X149883761Y-75477761D01*
X149836142Y-75430142D01*
X149693285Y-75334904D01*
X149502809Y-75287285D01*
X149121857Y-75287285D01*
X149026619Y-75334904D01*
X148979000Y-75382523D01*
X148931380Y-75477761D01*
X148931380Y-75668238D01*
X148979000Y-75763476D01*
X149026619Y-75811095D01*
X149121857Y-75858714D01*
X149359952Y-75858714D01*
X149455190Y-75811095D01*
X149502809Y-75763476D01*
X149550428Y-75668238D01*
X149550428Y-75477761D01*
X149502809Y-75382523D01*
X149455190Y-75334904D01*
X149359952Y-75287285D01*
X150820380Y-154725666D02*
X150344190Y-155059000D01*
X150820380Y-155297095D02*
X149820380Y-155297095D01*
X149820380Y-154916142D01*
X149868000Y-154820904D01*
X149915619Y-154773285D01*
X150010857Y-154725666D01*
X150153714Y-154725666D01*
X150248952Y-154773285D01*
X150296571Y-154820904D01*
X150344190Y-154916142D01*
X150344190Y-155297095D01*
X149820380Y-154392333D02*
X149820380Y-153725666D01*
X150820380Y-154154238D01*
X158853142Y-151813666D02*
X158900761Y-151861285D01*
X158948380Y-152004142D01*
X158948380Y-152099380D01*
X158900761Y-152242238D01*
X158805523Y-152337476D01*
X158710285Y-152385095D01*
X158519809Y-152432714D01*
X158376952Y-152432714D01*
X158186476Y-152385095D01*
X158091238Y-152337476D01*
X157996000Y-152242238D01*
X157948380Y-152099380D01*
X157948380Y-152004142D01*
X157996000Y-151861285D01*
X158043619Y-151813666D01*
X157948380Y-150956523D02*
X157948380Y-151147000D01*
X157996000Y-151242238D01*
X158043619Y-151289857D01*
X158186476Y-151385095D01*
X158376952Y-151432714D01*
X158757904Y-151432714D01*
X158853142Y-151385095D01*
X158900761Y-151337476D01*
X158948380Y-151242238D01*
X158948380Y-151051761D01*
X158900761Y-150956523D01*
X158853142Y-150908904D01*
X158757904Y-150861285D01*
X158519809Y-150861285D01*
X158424571Y-150908904D01*
X158376952Y-150956523D01*
X158329333Y-151051761D01*
X158329333Y-151242238D01*
X158376952Y-151337476D01*
X158424571Y-151385095D01*
X158519809Y-151432714D01*
X153249333Y-140914380D02*
X152916000Y-140438190D01*
X152677904Y-140914380D02*
X152677904Y-139914380D01*
X153058857Y-139914380D01*
X153154095Y-139962000D01*
X153201714Y-140009619D01*
X153249333Y-140104857D01*
X153249333Y-140247714D01*
X153201714Y-140342952D01*
X153154095Y-140390571D01*
X153058857Y-140438190D01*
X152677904Y-140438190D01*
X154106476Y-139914380D02*
X153916000Y-139914380D01*
X153820761Y-139962000D01*
X153773142Y-140009619D01*
X153677904Y-140152476D01*
X153630285Y-140342952D01*
X153630285Y-140723904D01*
X153677904Y-140819142D01*
X153725523Y-140866761D01*
X153820761Y-140914380D01*
X154011238Y-140914380D01*
X154106476Y-140866761D01*
X154154095Y-140819142D01*
X154201714Y-140723904D01*
X154201714Y-140485809D01*
X154154095Y-140390571D01*
X154106476Y-140342952D01*
X154011238Y-140295333D01*
X153820761Y-140295333D01*
X153725523Y-140342952D01*
X153677904Y-140390571D01*
X153630285Y-140485809D01*
X160488333Y-139041142D02*
X160440714Y-139088761D01*
X160297857Y-139136380D01*
X160202619Y-139136380D01*
X160059761Y-139088761D01*
X159964523Y-138993523D01*
X159916904Y-138898285D01*
X159869285Y-138707809D01*
X159869285Y-138564952D01*
X159916904Y-138374476D01*
X159964523Y-138279238D01*
X160059761Y-138184000D01*
X160202619Y-138136380D01*
X160297857Y-138136380D01*
X160440714Y-138184000D01*
X160488333Y-138231619D01*
X161393095Y-138136380D02*
X160916904Y-138136380D01*
X160869285Y-138612571D01*
X160916904Y-138564952D01*
X161012142Y-138517333D01*
X161250238Y-138517333D01*
X161345476Y-138564952D01*
X161393095Y-138612571D01*
X161440714Y-138707809D01*
X161440714Y-138945904D01*
X161393095Y-139041142D01*
X161345476Y-139088761D01*
X161250238Y-139136380D01*
X161012142Y-139136380D01*
X160916904Y-139088761D01*
X160869285Y-139041142D01*
M02*
