G04 #@! TF.GenerationSoftware,KiCad,Pcbnew,(5.1.0)-1*
G04 #@! TF.CreationDate,2019-07-29T16:37:05-07:00*
G04 #@! TF.ProjectId,Watch V4,57617463-6820-4563-942e-6b696361645f,rev?*
G04 #@! TF.SameCoordinates,Original*
G04 #@! TF.FileFunction,Soldermask,Top*
G04 #@! TF.FilePolarity,Negative*
%FSLAX46Y46*%
G04 Gerber Fmt 4.6, Leading zero omitted, Abs format (unit mm)*
G04 Created by KiCad (PCBNEW (5.1.0)-1) date 2019-07-29 16:37:05*
%MOMM*%
%LPD*%
G04 APERTURE LIST*
%ADD10C,0.100000*%
G04 APERTURE END LIST*
D10*
G36*
X155942000Y-158423000D02*
G01*
X154790000Y-158423000D01*
X154790000Y-157671000D01*
X155942000Y-157671000D01*
X155942000Y-158423000D01*
X155942000Y-158423000D01*
G37*
G36*
X151792000Y-158423000D02*
G01*
X150640000Y-158423000D01*
X150640000Y-157671000D01*
X151792000Y-157671000D01*
X151792000Y-158423000D01*
X151792000Y-158423000D01*
G37*
G36*
X159084674Y-155098465D02*
G01*
X159122367Y-155109899D01*
X159157103Y-155128466D01*
X159187548Y-155153452D01*
X159212534Y-155183897D01*
X159231101Y-155218633D01*
X159242535Y-155256326D01*
X159247000Y-155301661D01*
X159247000Y-156138339D01*
X159242535Y-156183674D01*
X159231101Y-156221367D01*
X159212534Y-156256103D01*
X159187548Y-156286548D01*
X159157103Y-156311534D01*
X159122367Y-156330101D01*
X159084674Y-156341535D01*
X159039339Y-156346000D01*
X157952661Y-156346000D01*
X157907326Y-156341535D01*
X157869633Y-156330101D01*
X157834897Y-156311534D01*
X157804452Y-156286548D01*
X157779466Y-156256103D01*
X157760899Y-156221367D01*
X157749465Y-156183674D01*
X157745000Y-156138339D01*
X157745000Y-155301661D01*
X157749465Y-155256326D01*
X157760899Y-155218633D01*
X157779466Y-155183897D01*
X157804452Y-155153452D01*
X157834897Y-155128466D01*
X157869633Y-155109899D01*
X157907326Y-155098465D01*
X157952661Y-155094000D01*
X159039339Y-155094000D01*
X159084674Y-155098465D01*
X159084674Y-155098465D01*
G37*
G36*
X151792000Y-156273000D02*
G01*
X150640000Y-156273000D01*
X150640000Y-155521000D01*
X151792000Y-155521000D01*
X151792000Y-156273000D01*
X151792000Y-156273000D01*
G37*
G36*
X155942000Y-156273000D02*
G01*
X154790000Y-156273000D01*
X154790000Y-155521000D01*
X155942000Y-155521000D01*
X155942000Y-156273000D01*
X155942000Y-156273000D01*
G37*
G36*
X149081499Y-154989445D02*
G01*
X149118995Y-155000820D01*
X149153554Y-155019292D01*
X149183847Y-155044153D01*
X149208708Y-155074446D01*
X149227180Y-155109005D01*
X149238555Y-155146501D01*
X149243000Y-155191638D01*
X149243000Y-155930362D01*
X149238555Y-155975499D01*
X149227180Y-156012995D01*
X149208708Y-156047554D01*
X149183847Y-156077847D01*
X149153554Y-156102708D01*
X149118995Y-156121180D01*
X149081499Y-156132555D01*
X149036362Y-156137000D01*
X148397638Y-156137000D01*
X148352501Y-156132555D01*
X148315005Y-156121180D01*
X148280446Y-156102708D01*
X148250153Y-156077847D01*
X148225292Y-156047554D01*
X148206820Y-156012995D01*
X148195445Y-155975499D01*
X148191000Y-155930362D01*
X148191000Y-155191638D01*
X148195445Y-155146501D01*
X148206820Y-155109005D01*
X148225292Y-155074446D01*
X148250153Y-155044153D01*
X148280446Y-155019292D01*
X148315005Y-155000820D01*
X148352501Y-154989445D01*
X148397638Y-154985000D01*
X149036362Y-154985000D01*
X149081499Y-154989445D01*
X149081499Y-154989445D01*
G37*
G36*
X149081499Y-153239445D02*
G01*
X149118995Y-153250820D01*
X149153554Y-153269292D01*
X149183847Y-153294153D01*
X149208708Y-153324446D01*
X149227180Y-153359005D01*
X149238555Y-153396501D01*
X149243000Y-153441638D01*
X149243000Y-154180362D01*
X149238555Y-154225499D01*
X149227180Y-154262995D01*
X149208708Y-154297554D01*
X149183847Y-154327847D01*
X149153554Y-154352708D01*
X149118995Y-154371180D01*
X149081499Y-154382555D01*
X149036362Y-154387000D01*
X148397638Y-154387000D01*
X148352501Y-154382555D01*
X148315005Y-154371180D01*
X148280446Y-154352708D01*
X148250153Y-154327847D01*
X148225292Y-154297554D01*
X148206820Y-154262995D01*
X148195445Y-154225499D01*
X148191000Y-154180362D01*
X148191000Y-153441638D01*
X148195445Y-153396501D01*
X148206820Y-153359005D01*
X148225292Y-153324446D01*
X148250153Y-153294153D01*
X148280446Y-153269292D01*
X148315005Y-153250820D01*
X148352501Y-153239445D01*
X148397638Y-153235000D01*
X149036362Y-153235000D01*
X149081499Y-153239445D01*
X149081499Y-153239445D01*
G37*
G36*
X151767000Y-154297000D02*
G01*
X150165000Y-154297000D01*
X150165000Y-153195000D01*
X151767000Y-153195000D01*
X151767000Y-154297000D01*
X151767000Y-154297000D01*
G37*
G36*
X156667000Y-154297000D02*
G01*
X155065000Y-154297000D01*
X155065000Y-153195000D01*
X156667000Y-153195000D01*
X156667000Y-154297000D01*
X156667000Y-154297000D01*
G37*
G36*
X159084674Y-153048465D02*
G01*
X159122367Y-153059899D01*
X159157103Y-153078466D01*
X159187548Y-153103452D01*
X159212534Y-153133897D01*
X159231101Y-153168633D01*
X159242535Y-153206326D01*
X159247000Y-153251661D01*
X159247000Y-154088339D01*
X159242535Y-154133674D01*
X159231101Y-154171367D01*
X159212534Y-154206103D01*
X159187548Y-154236548D01*
X159157103Y-154261534D01*
X159122367Y-154280101D01*
X159084674Y-154291535D01*
X159039339Y-154296000D01*
X157952661Y-154296000D01*
X157907326Y-154291535D01*
X157869633Y-154280101D01*
X157834897Y-154261534D01*
X157804452Y-154236548D01*
X157779466Y-154206103D01*
X157760899Y-154171367D01*
X157749465Y-154133674D01*
X157745000Y-154088339D01*
X157745000Y-153251661D01*
X157749465Y-153206326D01*
X157760899Y-153168633D01*
X157779466Y-153133897D01*
X157804452Y-153103452D01*
X157834897Y-153078466D01*
X157869633Y-153059899D01*
X157907326Y-153048465D01*
X157952661Y-153044000D01*
X159039339Y-153044000D01*
X159084674Y-153048465D01*
X159084674Y-153048465D01*
G37*
G36*
X151767000Y-151097000D02*
G01*
X150165000Y-151097000D01*
X150165000Y-149995000D01*
X151767000Y-149995000D01*
X151767000Y-151097000D01*
X151767000Y-151097000D01*
G37*
G36*
X156667000Y-151097000D02*
G01*
X155065000Y-151097000D01*
X155065000Y-149995000D01*
X156667000Y-149995000D01*
X156667000Y-151097000D01*
X156667000Y-151097000D01*
G37*
G36*
X154307000Y-144391000D02*
G01*
X152705000Y-144391000D01*
X152705000Y-143289000D01*
X154307000Y-143289000D01*
X154307000Y-144391000D01*
X154307000Y-144391000D01*
G37*
G36*
X159207000Y-144391000D02*
G01*
X157605000Y-144391000D01*
X157605000Y-143289000D01*
X159207000Y-143289000D01*
X159207000Y-144391000D01*
X159207000Y-144391000D01*
G37*
G36*
X151244000Y-144004000D02*
G01*
X150492000Y-144004000D01*
X150492000Y-142852000D01*
X151244000Y-142852000D01*
X151244000Y-144004000D01*
X151244000Y-144004000D01*
G37*
G36*
X149094000Y-144004000D02*
G01*
X148342000Y-144004000D01*
X148342000Y-142852000D01*
X149094000Y-142852000D01*
X149094000Y-144004000D01*
X149094000Y-144004000D01*
G37*
G36*
X159207000Y-141191000D02*
G01*
X157605000Y-141191000D01*
X157605000Y-140089000D01*
X159207000Y-140089000D01*
X159207000Y-141191000D01*
X159207000Y-141191000D01*
G37*
G36*
X154307000Y-141191000D02*
G01*
X152705000Y-141191000D01*
X152705000Y-140089000D01*
X154307000Y-140089000D01*
X154307000Y-141191000D01*
X154307000Y-141191000D01*
G37*
G36*
X149094000Y-139854000D02*
G01*
X148342000Y-139854000D01*
X148342000Y-138702000D01*
X149094000Y-138702000D01*
X149094000Y-139854000D01*
X149094000Y-139854000D01*
G37*
G36*
X151244000Y-139854000D02*
G01*
X150492000Y-139854000D01*
X150492000Y-138702000D01*
X151244000Y-138702000D01*
X151244000Y-139854000D01*
X151244000Y-139854000D01*
G37*
G36*
X159095674Y-137937465D02*
G01*
X159133367Y-137948899D01*
X159168103Y-137967466D01*
X159198548Y-137992452D01*
X159223534Y-138022897D01*
X159242101Y-138057633D01*
X159253535Y-138095326D01*
X159258000Y-138140661D01*
X159258000Y-139227339D01*
X159253535Y-139272674D01*
X159242101Y-139310367D01*
X159223534Y-139345103D01*
X159198548Y-139375548D01*
X159168103Y-139400534D01*
X159133367Y-139419101D01*
X159095674Y-139430535D01*
X159050339Y-139435000D01*
X158213661Y-139435000D01*
X158168326Y-139430535D01*
X158130633Y-139419101D01*
X158095897Y-139400534D01*
X158065452Y-139375548D01*
X158040466Y-139345103D01*
X158021899Y-139310367D01*
X158010465Y-139272674D01*
X158006000Y-139227339D01*
X158006000Y-138140661D01*
X158010465Y-138095326D01*
X158021899Y-138057633D01*
X158040466Y-138022897D01*
X158065452Y-137992452D01*
X158095897Y-137967466D01*
X158130633Y-137948899D01*
X158168326Y-137937465D01*
X158213661Y-137933000D01*
X159050339Y-137933000D01*
X159095674Y-137937465D01*
X159095674Y-137937465D01*
G37*
G36*
X157045674Y-137937465D02*
G01*
X157083367Y-137948899D01*
X157118103Y-137967466D01*
X157148548Y-137992452D01*
X157173534Y-138022897D01*
X157192101Y-138057633D01*
X157203535Y-138095326D01*
X157208000Y-138140661D01*
X157208000Y-139227339D01*
X157203535Y-139272674D01*
X157192101Y-139310367D01*
X157173534Y-139345103D01*
X157148548Y-139375548D01*
X157118103Y-139400534D01*
X157083367Y-139419101D01*
X157045674Y-139430535D01*
X157000339Y-139435000D01*
X156163661Y-139435000D01*
X156118326Y-139430535D01*
X156080633Y-139419101D01*
X156045897Y-139400534D01*
X156015452Y-139375548D01*
X155990466Y-139345103D01*
X155971899Y-139310367D01*
X155960465Y-139272674D01*
X155956000Y-139227339D01*
X155956000Y-138140661D01*
X155960465Y-138095326D01*
X155971899Y-138057633D01*
X155990466Y-138022897D01*
X156015452Y-137992452D01*
X156045897Y-137967466D01*
X156080633Y-137948899D01*
X156118326Y-137937465D01*
X156163661Y-137933000D01*
X157000339Y-137933000D01*
X157045674Y-137937465D01*
X157045674Y-137937465D01*
G37*
G36*
X154578499Y-138289445D02*
G01*
X154615995Y-138300820D01*
X154650554Y-138319292D01*
X154680847Y-138344153D01*
X154705708Y-138374446D01*
X154724180Y-138409005D01*
X154735555Y-138446501D01*
X154740000Y-138491638D01*
X154740000Y-139130362D01*
X154735555Y-139175499D01*
X154724180Y-139212995D01*
X154705708Y-139247554D01*
X154680847Y-139277847D01*
X154650554Y-139302708D01*
X154615995Y-139321180D01*
X154578499Y-139332555D01*
X154533362Y-139337000D01*
X153794638Y-139337000D01*
X153749501Y-139332555D01*
X153712005Y-139321180D01*
X153677446Y-139302708D01*
X153647153Y-139277847D01*
X153622292Y-139247554D01*
X153603820Y-139212995D01*
X153592445Y-139175499D01*
X153588000Y-139130362D01*
X153588000Y-138491638D01*
X153592445Y-138446501D01*
X153603820Y-138409005D01*
X153622292Y-138374446D01*
X153647153Y-138344153D01*
X153677446Y-138319292D01*
X153712005Y-138300820D01*
X153749501Y-138289445D01*
X153794638Y-138285000D01*
X154533362Y-138285000D01*
X154578499Y-138289445D01*
X154578499Y-138289445D01*
G37*
G36*
X152828499Y-138289445D02*
G01*
X152865995Y-138300820D01*
X152900554Y-138319292D01*
X152930847Y-138344153D01*
X152955708Y-138374446D01*
X152974180Y-138409005D01*
X152985555Y-138446501D01*
X152990000Y-138491638D01*
X152990000Y-139130362D01*
X152985555Y-139175499D01*
X152974180Y-139212995D01*
X152955708Y-139247554D01*
X152930847Y-139277847D01*
X152900554Y-139302708D01*
X152865995Y-139321180D01*
X152828499Y-139332555D01*
X152783362Y-139337000D01*
X152044638Y-139337000D01*
X151999501Y-139332555D01*
X151962005Y-139321180D01*
X151927446Y-139302708D01*
X151897153Y-139277847D01*
X151872292Y-139247554D01*
X151853820Y-139212995D01*
X151842445Y-139175499D01*
X151838000Y-139130362D01*
X151838000Y-138491638D01*
X151842445Y-138446501D01*
X151853820Y-138409005D01*
X151872292Y-138374446D01*
X151897153Y-138344153D01*
X151927446Y-138319292D01*
X151962005Y-138300820D01*
X151999501Y-138289445D01*
X152044638Y-138285000D01*
X152783362Y-138285000D01*
X152828499Y-138289445D01*
X152828499Y-138289445D01*
G37*
G36*
X159207000Y-135247000D02*
G01*
X157605000Y-135247000D01*
X157605000Y-134145000D01*
X159207000Y-134145000D01*
X159207000Y-135247000D01*
X159207000Y-135247000D01*
G37*
G36*
X154307000Y-135247000D02*
G01*
X152705000Y-135247000D01*
X152705000Y-134145000D01*
X154307000Y-134145000D01*
X154307000Y-135247000D01*
X154307000Y-135247000D01*
G37*
G36*
X151244000Y-134860000D02*
G01*
X150492000Y-134860000D01*
X150492000Y-133708000D01*
X151244000Y-133708000D01*
X151244000Y-134860000D01*
X151244000Y-134860000D01*
G37*
G36*
X149094000Y-134860000D02*
G01*
X148342000Y-134860000D01*
X148342000Y-133708000D01*
X149094000Y-133708000D01*
X149094000Y-134860000D01*
X149094000Y-134860000D01*
G37*
G36*
X154307000Y-132047000D02*
G01*
X152705000Y-132047000D01*
X152705000Y-130945000D01*
X154307000Y-130945000D01*
X154307000Y-132047000D01*
X154307000Y-132047000D01*
G37*
G36*
X159207000Y-132047000D02*
G01*
X157605000Y-132047000D01*
X157605000Y-130945000D01*
X159207000Y-130945000D01*
X159207000Y-132047000D01*
X159207000Y-132047000D01*
G37*
G36*
X149094000Y-130710000D02*
G01*
X148342000Y-130710000D01*
X148342000Y-129558000D01*
X149094000Y-129558000D01*
X149094000Y-130710000D01*
X149094000Y-130710000D01*
G37*
G36*
X151244000Y-130710000D02*
G01*
X150492000Y-130710000D01*
X150492000Y-129558000D01*
X151244000Y-129558000D01*
X151244000Y-130710000D01*
X151244000Y-130710000D01*
G37*
G36*
X159095674Y-128793465D02*
G01*
X159133367Y-128804899D01*
X159168103Y-128823466D01*
X159198548Y-128848452D01*
X159223534Y-128878897D01*
X159242101Y-128913633D01*
X159253535Y-128951326D01*
X159258000Y-128996661D01*
X159258000Y-130083339D01*
X159253535Y-130128674D01*
X159242101Y-130166367D01*
X159223534Y-130201103D01*
X159198548Y-130231548D01*
X159168103Y-130256534D01*
X159133367Y-130275101D01*
X159095674Y-130286535D01*
X159050339Y-130291000D01*
X158213661Y-130291000D01*
X158168326Y-130286535D01*
X158130633Y-130275101D01*
X158095897Y-130256534D01*
X158065452Y-130231548D01*
X158040466Y-130201103D01*
X158021899Y-130166367D01*
X158010465Y-130128674D01*
X158006000Y-130083339D01*
X158006000Y-128996661D01*
X158010465Y-128951326D01*
X158021899Y-128913633D01*
X158040466Y-128878897D01*
X158065452Y-128848452D01*
X158095897Y-128823466D01*
X158130633Y-128804899D01*
X158168326Y-128793465D01*
X158213661Y-128789000D01*
X159050339Y-128789000D01*
X159095674Y-128793465D01*
X159095674Y-128793465D01*
G37*
G36*
X157045674Y-128793465D02*
G01*
X157083367Y-128804899D01*
X157118103Y-128823466D01*
X157148548Y-128848452D01*
X157173534Y-128878897D01*
X157192101Y-128913633D01*
X157203535Y-128951326D01*
X157208000Y-128996661D01*
X157208000Y-130083339D01*
X157203535Y-130128674D01*
X157192101Y-130166367D01*
X157173534Y-130201103D01*
X157148548Y-130231548D01*
X157118103Y-130256534D01*
X157083367Y-130275101D01*
X157045674Y-130286535D01*
X157000339Y-130291000D01*
X156163661Y-130291000D01*
X156118326Y-130286535D01*
X156080633Y-130275101D01*
X156045897Y-130256534D01*
X156015452Y-130231548D01*
X155990466Y-130201103D01*
X155971899Y-130166367D01*
X155960465Y-130128674D01*
X155956000Y-130083339D01*
X155956000Y-128996661D01*
X155960465Y-128951326D01*
X155971899Y-128913633D01*
X155990466Y-128878897D01*
X156015452Y-128848452D01*
X156045897Y-128823466D01*
X156080633Y-128804899D01*
X156118326Y-128793465D01*
X156163661Y-128789000D01*
X157000339Y-128789000D01*
X157045674Y-128793465D01*
X157045674Y-128793465D01*
G37*
G36*
X152828499Y-129145445D02*
G01*
X152865995Y-129156820D01*
X152900554Y-129175292D01*
X152930847Y-129200153D01*
X152955708Y-129230446D01*
X152974180Y-129265005D01*
X152985555Y-129302501D01*
X152990000Y-129347638D01*
X152990000Y-129986362D01*
X152985555Y-130031499D01*
X152974180Y-130068995D01*
X152955708Y-130103554D01*
X152930847Y-130133847D01*
X152900554Y-130158708D01*
X152865995Y-130177180D01*
X152828499Y-130188555D01*
X152783362Y-130193000D01*
X152044638Y-130193000D01*
X151999501Y-130188555D01*
X151962005Y-130177180D01*
X151927446Y-130158708D01*
X151897153Y-130133847D01*
X151872292Y-130103554D01*
X151853820Y-130068995D01*
X151842445Y-130031499D01*
X151838000Y-129986362D01*
X151838000Y-129347638D01*
X151842445Y-129302501D01*
X151853820Y-129265005D01*
X151872292Y-129230446D01*
X151897153Y-129200153D01*
X151927446Y-129175292D01*
X151962005Y-129156820D01*
X151999501Y-129145445D01*
X152044638Y-129141000D01*
X152783362Y-129141000D01*
X152828499Y-129145445D01*
X152828499Y-129145445D01*
G37*
G36*
X154578499Y-129145445D02*
G01*
X154615995Y-129156820D01*
X154650554Y-129175292D01*
X154680847Y-129200153D01*
X154705708Y-129230446D01*
X154724180Y-129265005D01*
X154735555Y-129302501D01*
X154740000Y-129347638D01*
X154740000Y-129986362D01*
X154735555Y-130031499D01*
X154724180Y-130068995D01*
X154705708Y-130103554D01*
X154680847Y-130133847D01*
X154650554Y-130158708D01*
X154615995Y-130177180D01*
X154578499Y-130188555D01*
X154533362Y-130193000D01*
X153794638Y-130193000D01*
X153749501Y-130188555D01*
X153712005Y-130177180D01*
X153677446Y-130158708D01*
X153647153Y-130133847D01*
X153622292Y-130103554D01*
X153603820Y-130068995D01*
X153592445Y-130031499D01*
X153588000Y-129986362D01*
X153588000Y-129347638D01*
X153592445Y-129302501D01*
X153603820Y-129265005D01*
X153622292Y-129230446D01*
X153647153Y-129200153D01*
X153677446Y-129175292D01*
X153712005Y-129156820D01*
X153749501Y-129145445D01*
X153794638Y-129141000D01*
X154533362Y-129141000D01*
X154578499Y-129145445D01*
X154578499Y-129145445D01*
G37*
G36*
X154307000Y-126103000D02*
G01*
X152705000Y-126103000D01*
X152705000Y-125001000D01*
X154307000Y-125001000D01*
X154307000Y-126103000D01*
X154307000Y-126103000D01*
G37*
G36*
X159207000Y-126103000D02*
G01*
X157605000Y-126103000D01*
X157605000Y-125001000D01*
X159207000Y-125001000D01*
X159207000Y-126103000D01*
X159207000Y-126103000D01*
G37*
G36*
X151244000Y-125716000D02*
G01*
X150492000Y-125716000D01*
X150492000Y-124564000D01*
X151244000Y-124564000D01*
X151244000Y-125716000D01*
X151244000Y-125716000D01*
G37*
G36*
X149094000Y-125716000D02*
G01*
X148342000Y-125716000D01*
X148342000Y-124564000D01*
X149094000Y-124564000D01*
X149094000Y-125716000D01*
X149094000Y-125716000D01*
G37*
G36*
X154307000Y-122903000D02*
G01*
X152705000Y-122903000D01*
X152705000Y-121801000D01*
X154307000Y-121801000D01*
X154307000Y-122903000D01*
X154307000Y-122903000D01*
G37*
G36*
X159207000Y-122903000D02*
G01*
X157605000Y-122903000D01*
X157605000Y-121801000D01*
X159207000Y-121801000D01*
X159207000Y-122903000D01*
X159207000Y-122903000D01*
G37*
G36*
X149094000Y-121566000D02*
G01*
X148342000Y-121566000D01*
X148342000Y-120414000D01*
X149094000Y-120414000D01*
X149094000Y-121566000D01*
X149094000Y-121566000D01*
G37*
G36*
X151244000Y-121566000D02*
G01*
X150492000Y-121566000D01*
X150492000Y-120414000D01*
X151244000Y-120414000D01*
X151244000Y-121566000D01*
X151244000Y-121566000D01*
G37*
G36*
X157045674Y-119649465D02*
G01*
X157083367Y-119660899D01*
X157118103Y-119679466D01*
X157148548Y-119704452D01*
X157173534Y-119734897D01*
X157192101Y-119769633D01*
X157203535Y-119807326D01*
X157208000Y-119852661D01*
X157208000Y-120939339D01*
X157203535Y-120984674D01*
X157192101Y-121022367D01*
X157173534Y-121057103D01*
X157148548Y-121087548D01*
X157118103Y-121112534D01*
X157083367Y-121131101D01*
X157045674Y-121142535D01*
X157000339Y-121147000D01*
X156163661Y-121147000D01*
X156118326Y-121142535D01*
X156080633Y-121131101D01*
X156045897Y-121112534D01*
X156015452Y-121087548D01*
X155990466Y-121057103D01*
X155971899Y-121022367D01*
X155960465Y-120984674D01*
X155956000Y-120939339D01*
X155956000Y-119852661D01*
X155960465Y-119807326D01*
X155971899Y-119769633D01*
X155990466Y-119734897D01*
X156015452Y-119704452D01*
X156045897Y-119679466D01*
X156080633Y-119660899D01*
X156118326Y-119649465D01*
X156163661Y-119645000D01*
X157000339Y-119645000D01*
X157045674Y-119649465D01*
X157045674Y-119649465D01*
G37*
G36*
X159095674Y-119649465D02*
G01*
X159133367Y-119660899D01*
X159168103Y-119679466D01*
X159198548Y-119704452D01*
X159223534Y-119734897D01*
X159242101Y-119769633D01*
X159253535Y-119807326D01*
X159258000Y-119852661D01*
X159258000Y-120939339D01*
X159253535Y-120984674D01*
X159242101Y-121022367D01*
X159223534Y-121057103D01*
X159198548Y-121087548D01*
X159168103Y-121112534D01*
X159133367Y-121131101D01*
X159095674Y-121142535D01*
X159050339Y-121147000D01*
X158213661Y-121147000D01*
X158168326Y-121142535D01*
X158130633Y-121131101D01*
X158095897Y-121112534D01*
X158065452Y-121087548D01*
X158040466Y-121057103D01*
X158021899Y-121022367D01*
X158010465Y-120984674D01*
X158006000Y-120939339D01*
X158006000Y-119852661D01*
X158010465Y-119807326D01*
X158021899Y-119769633D01*
X158040466Y-119734897D01*
X158065452Y-119704452D01*
X158095897Y-119679466D01*
X158130633Y-119660899D01*
X158168326Y-119649465D01*
X158213661Y-119645000D01*
X159050339Y-119645000D01*
X159095674Y-119649465D01*
X159095674Y-119649465D01*
G37*
G36*
X152828499Y-120001445D02*
G01*
X152865995Y-120012820D01*
X152900554Y-120031292D01*
X152930847Y-120056153D01*
X152955708Y-120086446D01*
X152974180Y-120121005D01*
X152985555Y-120158501D01*
X152990000Y-120203638D01*
X152990000Y-120842362D01*
X152985555Y-120887499D01*
X152974180Y-120924995D01*
X152955708Y-120959554D01*
X152930847Y-120989847D01*
X152900554Y-121014708D01*
X152865995Y-121033180D01*
X152828499Y-121044555D01*
X152783362Y-121049000D01*
X152044638Y-121049000D01*
X151999501Y-121044555D01*
X151962005Y-121033180D01*
X151927446Y-121014708D01*
X151897153Y-120989847D01*
X151872292Y-120959554D01*
X151853820Y-120924995D01*
X151842445Y-120887499D01*
X151838000Y-120842362D01*
X151838000Y-120203638D01*
X151842445Y-120158501D01*
X151853820Y-120121005D01*
X151872292Y-120086446D01*
X151897153Y-120056153D01*
X151927446Y-120031292D01*
X151962005Y-120012820D01*
X151999501Y-120001445D01*
X152044638Y-119997000D01*
X152783362Y-119997000D01*
X152828499Y-120001445D01*
X152828499Y-120001445D01*
G37*
G36*
X154578499Y-120001445D02*
G01*
X154615995Y-120012820D01*
X154650554Y-120031292D01*
X154680847Y-120056153D01*
X154705708Y-120086446D01*
X154724180Y-120121005D01*
X154735555Y-120158501D01*
X154740000Y-120203638D01*
X154740000Y-120842362D01*
X154735555Y-120887499D01*
X154724180Y-120924995D01*
X154705708Y-120959554D01*
X154680847Y-120989847D01*
X154650554Y-121014708D01*
X154615995Y-121033180D01*
X154578499Y-121044555D01*
X154533362Y-121049000D01*
X153794638Y-121049000D01*
X153749501Y-121044555D01*
X153712005Y-121033180D01*
X153677446Y-121014708D01*
X153647153Y-120989847D01*
X153622292Y-120959554D01*
X153603820Y-120924995D01*
X153592445Y-120887499D01*
X153588000Y-120842362D01*
X153588000Y-120203638D01*
X153592445Y-120158501D01*
X153603820Y-120121005D01*
X153622292Y-120086446D01*
X153647153Y-120056153D01*
X153677446Y-120031292D01*
X153712005Y-120012820D01*
X153749501Y-120001445D01*
X153794638Y-119997000D01*
X154533362Y-119997000D01*
X154578499Y-120001445D01*
X154578499Y-120001445D01*
G37*
G36*
X159207000Y-116959000D02*
G01*
X157605000Y-116959000D01*
X157605000Y-115857000D01*
X159207000Y-115857000D01*
X159207000Y-116959000D01*
X159207000Y-116959000D01*
G37*
G36*
X154307000Y-116959000D02*
G01*
X152705000Y-116959000D01*
X152705000Y-115857000D01*
X154307000Y-115857000D01*
X154307000Y-116959000D01*
X154307000Y-116959000D01*
G37*
G36*
X151244000Y-116572000D02*
G01*
X150492000Y-116572000D01*
X150492000Y-115420000D01*
X151244000Y-115420000D01*
X151244000Y-116572000D01*
X151244000Y-116572000D01*
G37*
G36*
X149094000Y-116572000D02*
G01*
X148342000Y-116572000D01*
X148342000Y-115420000D01*
X149094000Y-115420000D01*
X149094000Y-116572000D01*
X149094000Y-116572000D01*
G37*
G36*
X154307000Y-113759000D02*
G01*
X152705000Y-113759000D01*
X152705000Y-112657000D01*
X154307000Y-112657000D01*
X154307000Y-113759000D01*
X154307000Y-113759000D01*
G37*
G36*
X159207000Y-113759000D02*
G01*
X157605000Y-113759000D01*
X157605000Y-112657000D01*
X159207000Y-112657000D01*
X159207000Y-113759000D01*
X159207000Y-113759000D01*
G37*
G36*
X151244000Y-112422000D02*
G01*
X150492000Y-112422000D01*
X150492000Y-111270000D01*
X151244000Y-111270000D01*
X151244000Y-112422000D01*
X151244000Y-112422000D01*
G37*
G36*
X149094000Y-112422000D02*
G01*
X148342000Y-112422000D01*
X148342000Y-111270000D01*
X149094000Y-111270000D01*
X149094000Y-112422000D01*
X149094000Y-112422000D01*
G37*
G36*
X159095674Y-110505465D02*
G01*
X159133367Y-110516899D01*
X159168103Y-110535466D01*
X159198548Y-110560452D01*
X159223534Y-110590897D01*
X159242101Y-110625633D01*
X159253535Y-110663326D01*
X159258000Y-110708661D01*
X159258000Y-111795339D01*
X159253535Y-111840674D01*
X159242101Y-111878367D01*
X159223534Y-111913103D01*
X159198548Y-111943548D01*
X159168103Y-111968534D01*
X159133367Y-111987101D01*
X159095674Y-111998535D01*
X159050339Y-112003000D01*
X158213661Y-112003000D01*
X158168326Y-111998535D01*
X158130633Y-111987101D01*
X158095897Y-111968534D01*
X158065452Y-111943548D01*
X158040466Y-111913103D01*
X158021899Y-111878367D01*
X158010465Y-111840674D01*
X158006000Y-111795339D01*
X158006000Y-110708661D01*
X158010465Y-110663326D01*
X158021899Y-110625633D01*
X158040466Y-110590897D01*
X158065452Y-110560452D01*
X158095897Y-110535466D01*
X158130633Y-110516899D01*
X158168326Y-110505465D01*
X158213661Y-110501000D01*
X159050339Y-110501000D01*
X159095674Y-110505465D01*
X159095674Y-110505465D01*
G37*
G36*
X157045674Y-110505465D02*
G01*
X157083367Y-110516899D01*
X157118103Y-110535466D01*
X157148548Y-110560452D01*
X157173534Y-110590897D01*
X157192101Y-110625633D01*
X157203535Y-110663326D01*
X157208000Y-110708661D01*
X157208000Y-111795339D01*
X157203535Y-111840674D01*
X157192101Y-111878367D01*
X157173534Y-111913103D01*
X157148548Y-111943548D01*
X157118103Y-111968534D01*
X157083367Y-111987101D01*
X157045674Y-111998535D01*
X157000339Y-112003000D01*
X156163661Y-112003000D01*
X156118326Y-111998535D01*
X156080633Y-111987101D01*
X156045897Y-111968534D01*
X156015452Y-111943548D01*
X155990466Y-111913103D01*
X155971899Y-111878367D01*
X155960465Y-111840674D01*
X155956000Y-111795339D01*
X155956000Y-110708661D01*
X155960465Y-110663326D01*
X155971899Y-110625633D01*
X155990466Y-110590897D01*
X156015452Y-110560452D01*
X156045897Y-110535466D01*
X156080633Y-110516899D01*
X156118326Y-110505465D01*
X156163661Y-110501000D01*
X157000339Y-110501000D01*
X157045674Y-110505465D01*
X157045674Y-110505465D01*
G37*
G36*
X154578499Y-110857445D02*
G01*
X154615995Y-110868820D01*
X154650554Y-110887292D01*
X154680847Y-110912153D01*
X154705708Y-110942446D01*
X154724180Y-110977005D01*
X154735555Y-111014501D01*
X154740000Y-111059638D01*
X154740000Y-111698362D01*
X154735555Y-111743499D01*
X154724180Y-111780995D01*
X154705708Y-111815554D01*
X154680847Y-111845847D01*
X154650554Y-111870708D01*
X154615995Y-111889180D01*
X154578499Y-111900555D01*
X154533362Y-111905000D01*
X153794638Y-111905000D01*
X153749501Y-111900555D01*
X153712005Y-111889180D01*
X153677446Y-111870708D01*
X153647153Y-111845847D01*
X153622292Y-111815554D01*
X153603820Y-111780995D01*
X153592445Y-111743499D01*
X153588000Y-111698362D01*
X153588000Y-111059638D01*
X153592445Y-111014501D01*
X153603820Y-110977005D01*
X153622292Y-110942446D01*
X153647153Y-110912153D01*
X153677446Y-110887292D01*
X153712005Y-110868820D01*
X153749501Y-110857445D01*
X153794638Y-110853000D01*
X154533362Y-110853000D01*
X154578499Y-110857445D01*
X154578499Y-110857445D01*
G37*
G36*
X152828499Y-110857445D02*
G01*
X152865995Y-110868820D01*
X152900554Y-110887292D01*
X152930847Y-110912153D01*
X152955708Y-110942446D01*
X152974180Y-110977005D01*
X152985555Y-111014501D01*
X152990000Y-111059638D01*
X152990000Y-111698362D01*
X152985555Y-111743499D01*
X152974180Y-111780995D01*
X152955708Y-111815554D01*
X152930847Y-111845847D01*
X152900554Y-111870708D01*
X152865995Y-111889180D01*
X152828499Y-111900555D01*
X152783362Y-111905000D01*
X152044638Y-111905000D01*
X151999501Y-111900555D01*
X151962005Y-111889180D01*
X151927446Y-111870708D01*
X151897153Y-111845847D01*
X151872292Y-111815554D01*
X151853820Y-111780995D01*
X151842445Y-111743499D01*
X151838000Y-111698362D01*
X151838000Y-111059638D01*
X151842445Y-111014501D01*
X151853820Y-110977005D01*
X151872292Y-110942446D01*
X151897153Y-110912153D01*
X151927446Y-110887292D01*
X151962005Y-110868820D01*
X151999501Y-110857445D01*
X152044638Y-110853000D01*
X152783362Y-110853000D01*
X152828499Y-110857445D01*
X152828499Y-110857445D01*
G37*
G36*
X159207000Y-107815000D02*
G01*
X157605000Y-107815000D01*
X157605000Y-106713000D01*
X159207000Y-106713000D01*
X159207000Y-107815000D01*
X159207000Y-107815000D01*
G37*
G36*
X154307000Y-107815000D02*
G01*
X152705000Y-107815000D01*
X152705000Y-106713000D01*
X154307000Y-106713000D01*
X154307000Y-107815000D01*
X154307000Y-107815000D01*
G37*
G36*
X149094000Y-107428000D02*
G01*
X148342000Y-107428000D01*
X148342000Y-106276000D01*
X149094000Y-106276000D01*
X149094000Y-107428000D01*
X149094000Y-107428000D01*
G37*
G36*
X151244000Y-107428000D02*
G01*
X150492000Y-107428000D01*
X150492000Y-106276000D01*
X151244000Y-106276000D01*
X151244000Y-107428000D01*
X151244000Y-107428000D01*
G37*
G36*
X159207000Y-104615000D02*
G01*
X157605000Y-104615000D01*
X157605000Y-103513000D01*
X159207000Y-103513000D01*
X159207000Y-104615000D01*
X159207000Y-104615000D01*
G37*
G36*
X154307000Y-104615000D02*
G01*
X152705000Y-104615000D01*
X152705000Y-103513000D01*
X154307000Y-103513000D01*
X154307000Y-104615000D01*
X154307000Y-104615000D01*
G37*
G36*
X151244000Y-103278000D02*
G01*
X150492000Y-103278000D01*
X150492000Y-102126000D01*
X151244000Y-102126000D01*
X151244000Y-103278000D01*
X151244000Y-103278000D01*
G37*
G36*
X149094000Y-103278000D02*
G01*
X148342000Y-103278000D01*
X148342000Y-102126000D01*
X149094000Y-102126000D01*
X149094000Y-103278000D01*
X149094000Y-103278000D01*
G37*
G36*
X157045674Y-101361465D02*
G01*
X157083367Y-101372899D01*
X157118103Y-101391466D01*
X157148548Y-101416452D01*
X157173534Y-101446897D01*
X157192101Y-101481633D01*
X157203535Y-101519326D01*
X157208000Y-101564661D01*
X157208000Y-102651339D01*
X157203535Y-102696674D01*
X157192101Y-102734367D01*
X157173534Y-102769103D01*
X157148548Y-102799548D01*
X157118103Y-102824534D01*
X157083367Y-102843101D01*
X157045674Y-102854535D01*
X157000339Y-102859000D01*
X156163661Y-102859000D01*
X156118326Y-102854535D01*
X156080633Y-102843101D01*
X156045897Y-102824534D01*
X156015452Y-102799548D01*
X155990466Y-102769103D01*
X155971899Y-102734367D01*
X155960465Y-102696674D01*
X155956000Y-102651339D01*
X155956000Y-101564661D01*
X155960465Y-101519326D01*
X155971899Y-101481633D01*
X155990466Y-101446897D01*
X156015452Y-101416452D01*
X156045897Y-101391466D01*
X156080633Y-101372899D01*
X156118326Y-101361465D01*
X156163661Y-101357000D01*
X157000339Y-101357000D01*
X157045674Y-101361465D01*
X157045674Y-101361465D01*
G37*
G36*
X159095674Y-101361465D02*
G01*
X159133367Y-101372899D01*
X159168103Y-101391466D01*
X159198548Y-101416452D01*
X159223534Y-101446897D01*
X159242101Y-101481633D01*
X159253535Y-101519326D01*
X159258000Y-101564661D01*
X159258000Y-102651339D01*
X159253535Y-102696674D01*
X159242101Y-102734367D01*
X159223534Y-102769103D01*
X159198548Y-102799548D01*
X159168103Y-102824534D01*
X159133367Y-102843101D01*
X159095674Y-102854535D01*
X159050339Y-102859000D01*
X158213661Y-102859000D01*
X158168326Y-102854535D01*
X158130633Y-102843101D01*
X158095897Y-102824534D01*
X158065452Y-102799548D01*
X158040466Y-102769103D01*
X158021899Y-102734367D01*
X158010465Y-102696674D01*
X158006000Y-102651339D01*
X158006000Y-101564661D01*
X158010465Y-101519326D01*
X158021899Y-101481633D01*
X158040466Y-101446897D01*
X158065452Y-101416452D01*
X158095897Y-101391466D01*
X158130633Y-101372899D01*
X158168326Y-101361465D01*
X158213661Y-101357000D01*
X159050339Y-101357000D01*
X159095674Y-101361465D01*
X159095674Y-101361465D01*
G37*
G36*
X152828499Y-101713445D02*
G01*
X152865995Y-101724820D01*
X152900554Y-101743292D01*
X152930847Y-101768153D01*
X152955708Y-101798446D01*
X152974180Y-101833005D01*
X152985555Y-101870501D01*
X152990000Y-101915638D01*
X152990000Y-102554362D01*
X152985555Y-102599499D01*
X152974180Y-102636995D01*
X152955708Y-102671554D01*
X152930847Y-102701847D01*
X152900554Y-102726708D01*
X152865995Y-102745180D01*
X152828499Y-102756555D01*
X152783362Y-102761000D01*
X152044638Y-102761000D01*
X151999501Y-102756555D01*
X151962005Y-102745180D01*
X151927446Y-102726708D01*
X151897153Y-102701847D01*
X151872292Y-102671554D01*
X151853820Y-102636995D01*
X151842445Y-102599499D01*
X151838000Y-102554362D01*
X151838000Y-101915638D01*
X151842445Y-101870501D01*
X151853820Y-101833005D01*
X151872292Y-101798446D01*
X151897153Y-101768153D01*
X151927446Y-101743292D01*
X151962005Y-101724820D01*
X151999501Y-101713445D01*
X152044638Y-101709000D01*
X152783362Y-101709000D01*
X152828499Y-101713445D01*
X152828499Y-101713445D01*
G37*
G36*
X154578499Y-101713445D02*
G01*
X154615995Y-101724820D01*
X154650554Y-101743292D01*
X154680847Y-101768153D01*
X154705708Y-101798446D01*
X154724180Y-101833005D01*
X154735555Y-101870501D01*
X154740000Y-101915638D01*
X154740000Y-102554362D01*
X154735555Y-102599499D01*
X154724180Y-102636995D01*
X154705708Y-102671554D01*
X154680847Y-102701847D01*
X154650554Y-102726708D01*
X154615995Y-102745180D01*
X154578499Y-102756555D01*
X154533362Y-102761000D01*
X153794638Y-102761000D01*
X153749501Y-102756555D01*
X153712005Y-102745180D01*
X153677446Y-102726708D01*
X153647153Y-102701847D01*
X153622292Y-102671554D01*
X153603820Y-102636995D01*
X153592445Y-102599499D01*
X153588000Y-102554362D01*
X153588000Y-101915638D01*
X153592445Y-101870501D01*
X153603820Y-101833005D01*
X153622292Y-101798446D01*
X153647153Y-101768153D01*
X153677446Y-101743292D01*
X153712005Y-101724820D01*
X153749501Y-101713445D01*
X153794638Y-101709000D01*
X154533362Y-101709000D01*
X154578499Y-101713445D01*
X154578499Y-101713445D01*
G37*
G36*
X150859442Y-95625518D02*
G01*
X150925627Y-95632037D01*
X151095466Y-95683557D01*
X151251991Y-95767222D01*
X151287729Y-95796552D01*
X151389186Y-95879814D01*
X151472448Y-95981271D01*
X151501778Y-96017009D01*
X151585443Y-96173534D01*
X151636963Y-96343373D01*
X151654359Y-96520000D01*
X151636963Y-96696627D01*
X151585443Y-96866466D01*
X151501778Y-97022991D01*
X151472448Y-97058729D01*
X151389186Y-97160186D01*
X151316480Y-97219853D01*
X151251991Y-97272778D01*
X151095466Y-97356443D01*
X150925627Y-97407963D01*
X150859442Y-97414482D01*
X150793260Y-97421000D01*
X150704740Y-97421000D01*
X150638558Y-97414482D01*
X150572373Y-97407963D01*
X150402534Y-97356443D01*
X150246009Y-97272778D01*
X150181520Y-97219853D01*
X150108814Y-97160186D01*
X150025552Y-97058729D01*
X149996222Y-97022991D01*
X149912557Y-96866466D01*
X149861037Y-96696627D01*
X149843641Y-96520000D01*
X149861037Y-96343373D01*
X149912557Y-96173534D01*
X149996222Y-96017009D01*
X150025552Y-95981271D01*
X150108814Y-95879814D01*
X150210271Y-95796552D01*
X150246009Y-95767222D01*
X150402534Y-95683557D01*
X150572373Y-95632037D01*
X150638558Y-95625518D01*
X150704740Y-95619000D01*
X150793260Y-95619000D01*
X150859442Y-95625518D01*
X150859442Y-95625518D01*
G37*
G36*
X153399442Y-95625518D02*
G01*
X153465627Y-95632037D01*
X153635466Y-95683557D01*
X153791991Y-95767222D01*
X153827729Y-95796552D01*
X153929186Y-95879814D01*
X154012448Y-95981271D01*
X154041778Y-96017009D01*
X154125443Y-96173534D01*
X154176963Y-96343373D01*
X154194359Y-96520000D01*
X154176963Y-96696627D01*
X154125443Y-96866466D01*
X154041778Y-97022991D01*
X154012448Y-97058729D01*
X153929186Y-97160186D01*
X153856480Y-97219853D01*
X153791991Y-97272778D01*
X153635466Y-97356443D01*
X153465627Y-97407963D01*
X153399442Y-97414482D01*
X153333260Y-97421000D01*
X153244740Y-97421000D01*
X153178558Y-97414482D01*
X153112373Y-97407963D01*
X152942534Y-97356443D01*
X152786009Y-97272778D01*
X152721520Y-97219853D01*
X152648814Y-97160186D01*
X152565552Y-97058729D01*
X152536222Y-97022991D01*
X152452557Y-96866466D01*
X152401037Y-96696627D01*
X152383641Y-96520000D01*
X152401037Y-96343373D01*
X152452557Y-96173534D01*
X152536222Y-96017009D01*
X152565552Y-95981271D01*
X152648814Y-95879814D01*
X152750271Y-95796552D01*
X152786009Y-95767222D01*
X152942534Y-95683557D01*
X153112373Y-95632037D01*
X153178558Y-95625518D01*
X153244740Y-95619000D01*
X153333260Y-95619000D01*
X153399442Y-95625518D01*
X153399442Y-95625518D01*
G37*
G36*
X155939442Y-95625518D02*
G01*
X156005627Y-95632037D01*
X156175466Y-95683557D01*
X156331991Y-95767222D01*
X156367729Y-95796552D01*
X156469186Y-95879814D01*
X156552448Y-95981271D01*
X156581778Y-96017009D01*
X156665443Y-96173534D01*
X156716963Y-96343373D01*
X156734359Y-96520000D01*
X156716963Y-96696627D01*
X156665443Y-96866466D01*
X156581778Y-97022991D01*
X156552448Y-97058729D01*
X156469186Y-97160186D01*
X156396480Y-97219853D01*
X156331991Y-97272778D01*
X156175466Y-97356443D01*
X156005627Y-97407963D01*
X155939442Y-97414482D01*
X155873260Y-97421000D01*
X155784740Y-97421000D01*
X155718558Y-97414482D01*
X155652373Y-97407963D01*
X155482534Y-97356443D01*
X155326009Y-97272778D01*
X155261520Y-97219853D01*
X155188814Y-97160186D01*
X155105552Y-97058729D01*
X155076222Y-97022991D01*
X154992557Y-96866466D01*
X154941037Y-96696627D01*
X154923641Y-96520000D01*
X154941037Y-96343373D01*
X154992557Y-96173534D01*
X155076222Y-96017009D01*
X155105552Y-95981271D01*
X155188814Y-95879814D01*
X155290271Y-95796552D01*
X155326009Y-95767222D01*
X155482534Y-95683557D01*
X155652373Y-95632037D01*
X155718558Y-95625518D01*
X155784740Y-95619000D01*
X155873260Y-95619000D01*
X155939442Y-95625518D01*
X155939442Y-95625518D01*
G37*
G36*
X158482512Y-95623927D02*
G01*
X158631812Y-95653624D01*
X158795784Y-95721544D01*
X158943354Y-95820147D01*
X159068853Y-95945646D01*
X159167456Y-96093216D01*
X159235376Y-96257188D01*
X159270000Y-96431259D01*
X159270000Y-96608741D01*
X159235376Y-96782812D01*
X159167456Y-96946784D01*
X159068853Y-97094354D01*
X158943354Y-97219853D01*
X158795784Y-97318456D01*
X158631812Y-97386376D01*
X158482512Y-97416073D01*
X158457742Y-97421000D01*
X158280258Y-97421000D01*
X158255488Y-97416073D01*
X158106188Y-97386376D01*
X157942216Y-97318456D01*
X157794646Y-97219853D01*
X157669147Y-97094354D01*
X157570544Y-96946784D01*
X157502624Y-96782812D01*
X157468000Y-96608741D01*
X157468000Y-96431259D01*
X157502624Y-96257188D01*
X157570544Y-96093216D01*
X157669147Y-95945646D01*
X157794646Y-95820147D01*
X157942216Y-95721544D01*
X158106188Y-95653624D01*
X158255488Y-95623927D01*
X158280258Y-95619000D01*
X158457742Y-95619000D01*
X158482512Y-95623927D01*
X158482512Y-95623927D01*
G37*
G36*
X150859443Y-93085519D02*
G01*
X150925627Y-93092037D01*
X151095466Y-93143557D01*
X151251991Y-93227222D01*
X151287729Y-93256552D01*
X151389186Y-93339814D01*
X151472448Y-93441271D01*
X151501778Y-93477009D01*
X151585443Y-93633534D01*
X151636963Y-93803373D01*
X151654359Y-93980000D01*
X151636963Y-94156627D01*
X151585443Y-94326466D01*
X151501778Y-94482991D01*
X151472448Y-94518729D01*
X151389186Y-94620186D01*
X151287729Y-94703448D01*
X151251991Y-94732778D01*
X151095466Y-94816443D01*
X150925627Y-94867963D01*
X150859443Y-94874481D01*
X150793260Y-94881000D01*
X150704740Y-94881000D01*
X150638557Y-94874481D01*
X150572373Y-94867963D01*
X150402534Y-94816443D01*
X150246009Y-94732778D01*
X150210271Y-94703448D01*
X150108814Y-94620186D01*
X150025552Y-94518729D01*
X149996222Y-94482991D01*
X149912557Y-94326466D01*
X149861037Y-94156627D01*
X149843641Y-93980000D01*
X149861037Y-93803373D01*
X149912557Y-93633534D01*
X149996222Y-93477009D01*
X150025552Y-93441271D01*
X150108814Y-93339814D01*
X150210271Y-93256552D01*
X150246009Y-93227222D01*
X150402534Y-93143557D01*
X150572373Y-93092037D01*
X150638557Y-93085519D01*
X150704740Y-93079000D01*
X150793260Y-93079000D01*
X150859443Y-93085519D01*
X150859443Y-93085519D01*
G37*
G36*
X156447142Y-91293242D02*
G01*
X156595101Y-91354529D01*
X156728255Y-91443499D01*
X156841501Y-91556745D01*
X156930471Y-91689899D01*
X156991758Y-91837858D01*
X157023000Y-91994925D01*
X157023000Y-92155075D01*
X156991758Y-92312142D01*
X156930471Y-92460101D01*
X156841501Y-92593255D01*
X156728255Y-92706501D01*
X156595101Y-92795471D01*
X156447142Y-92856758D01*
X156290075Y-92888000D01*
X156129925Y-92888000D01*
X155972858Y-92856758D01*
X155824899Y-92795471D01*
X155691745Y-92706501D01*
X155578499Y-92593255D01*
X155489529Y-92460101D01*
X155428242Y-92312142D01*
X155397000Y-92155075D01*
X155397000Y-91994925D01*
X155428242Y-91837858D01*
X155489529Y-91689899D01*
X155578499Y-91556745D01*
X155691745Y-91443499D01*
X155824899Y-91354529D01*
X155972858Y-91293242D01*
X156129925Y-91262000D01*
X156290075Y-91262000D01*
X156447142Y-91293242D01*
X156447142Y-91293242D01*
G37*
G36*
X156527000Y-80334000D02*
G01*
X155225000Y-80334000D01*
X155225000Y-77732000D01*
X156527000Y-77732000D01*
X156527000Y-80334000D01*
X156527000Y-80334000D01*
G37*
G36*
X151527000Y-80334000D02*
G01*
X150225000Y-80334000D01*
X150225000Y-77732000D01*
X151527000Y-77732000D01*
X151527000Y-80334000D01*
X151527000Y-80334000D01*
G37*
G36*
X154027000Y-80334000D02*
G01*
X152725000Y-80334000D01*
X152725000Y-77732000D01*
X154027000Y-77732000D01*
X154027000Y-80334000D01*
X154027000Y-80334000D01*
G37*
G36*
X159495499Y-76630445D02*
G01*
X159532995Y-76641820D01*
X159567554Y-76660292D01*
X159597847Y-76685153D01*
X159622708Y-76715446D01*
X159641180Y-76750005D01*
X159652555Y-76787501D01*
X159657000Y-76832638D01*
X159657000Y-77571362D01*
X159652555Y-77616499D01*
X159641180Y-77653995D01*
X159622708Y-77688554D01*
X159597847Y-77718847D01*
X159567554Y-77743708D01*
X159532995Y-77762180D01*
X159495499Y-77773555D01*
X159450362Y-77778000D01*
X158811638Y-77778000D01*
X158766501Y-77773555D01*
X158729005Y-77762180D01*
X158694446Y-77743708D01*
X158664153Y-77718847D01*
X158639292Y-77688554D01*
X158620820Y-77653995D01*
X158609445Y-77616499D01*
X158605000Y-77571362D01*
X158605000Y-76832638D01*
X158609445Y-76787501D01*
X158620820Y-76750005D01*
X158639292Y-76715446D01*
X158664153Y-76685153D01*
X158694446Y-76660292D01*
X158729005Y-76641820D01*
X158766501Y-76630445D01*
X158811638Y-76626000D01*
X159450362Y-76626000D01*
X159495499Y-76630445D01*
X159495499Y-76630445D01*
G37*
G36*
X148192499Y-76503445D02*
G01*
X148229995Y-76514820D01*
X148264554Y-76533292D01*
X148294847Y-76558153D01*
X148319708Y-76588446D01*
X148338180Y-76623005D01*
X148349555Y-76660501D01*
X148354000Y-76705638D01*
X148354000Y-77444362D01*
X148349555Y-77489499D01*
X148338180Y-77526995D01*
X148319708Y-77561554D01*
X148294847Y-77591847D01*
X148264554Y-77616708D01*
X148229995Y-77635180D01*
X148192499Y-77646555D01*
X148147362Y-77651000D01*
X147508638Y-77651000D01*
X147463501Y-77646555D01*
X147426005Y-77635180D01*
X147391446Y-77616708D01*
X147361153Y-77591847D01*
X147336292Y-77561554D01*
X147317820Y-77526995D01*
X147306445Y-77489499D01*
X147302000Y-77444362D01*
X147302000Y-76705638D01*
X147306445Y-76660501D01*
X147317820Y-76623005D01*
X147336292Y-76588446D01*
X147361153Y-76558153D01*
X147391446Y-76533292D01*
X147426005Y-76514820D01*
X147463501Y-76503445D01*
X147508638Y-76499000D01*
X148147362Y-76499000D01*
X148192499Y-76503445D01*
X148192499Y-76503445D01*
G37*
G36*
X159495499Y-74880445D02*
G01*
X159532995Y-74891820D01*
X159567554Y-74910292D01*
X159597847Y-74935153D01*
X159622708Y-74965446D01*
X159641180Y-75000005D01*
X159652555Y-75037501D01*
X159657000Y-75082638D01*
X159657000Y-75821362D01*
X159652555Y-75866499D01*
X159641180Y-75903995D01*
X159622708Y-75938554D01*
X159597847Y-75968847D01*
X159567554Y-75993708D01*
X159532995Y-76012180D01*
X159495499Y-76023555D01*
X159450362Y-76028000D01*
X158811638Y-76028000D01*
X158766501Y-76023555D01*
X158729005Y-76012180D01*
X158694446Y-75993708D01*
X158664153Y-75968847D01*
X158639292Y-75938554D01*
X158620820Y-75903995D01*
X158609445Y-75866499D01*
X158605000Y-75821362D01*
X158605000Y-75082638D01*
X158609445Y-75037501D01*
X158620820Y-75000005D01*
X158639292Y-74965446D01*
X158664153Y-74935153D01*
X158694446Y-74910292D01*
X158729005Y-74891820D01*
X158766501Y-74880445D01*
X158811638Y-74876000D01*
X159450362Y-74876000D01*
X159495499Y-74880445D01*
X159495499Y-74880445D01*
G37*
G36*
X148192499Y-74753445D02*
G01*
X148229995Y-74764820D01*
X148264554Y-74783292D01*
X148294847Y-74808153D01*
X148319708Y-74838446D01*
X148338180Y-74873005D01*
X148349555Y-74910501D01*
X148354000Y-74955638D01*
X148354000Y-75694362D01*
X148349555Y-75739499D01*
X148338180Y-75776995D01*
X148319708Y-75811554D01*
X148294847Y-75841847D01*
X148264554Y-75866708D01*
X148229995Y-75885180D01*
X148192499Y-75896555D01*
X148147362Y-75901000D01*
X147508638Y-75901000D01*
X147463501Y-75896555D01*
X147426005Y-75885180D01*
X147391446Y-75866708D01*
X147361153Y-75841847D01*
X147336292Y-75811554D01*
X147317820Y-75776995D01*
X147306445Y-75739499D01*
X147302000Y-75694362D01*
X147302000Y-74955638D01*
X147306445Y-74910501D01*
X147317820Y-74873005D01*
X147336292Y-74838446D01*
X147361153Y-74808153D01*
X147391446Y-74783292D01*
X147426005Y-74764820D01*
X147463501Y-74753445D01*
X147508638Y-74749000D01*
X148147362Y-74749000D01*
X148192499Y-74753445D01*
X148192499Y-74753445D01*
G37*
G36*
X156527000Y-74834000D02*
G01*
X155225000Y-74834000D01*
X155225000Y-72232000D01*
X156527000Y-72232000D01*
X156527000Y-74834000D01*
X156527000Y-74834000D01*
G37*
G36*
X151527000Y-74834000D02*
G01*
X150225000Y-74834000D01*
X150225000Y-72232000D01*
X151527000Y-72232000D01*
X151527000Y-74834000D01*
X151527000Y-74834000D01*
G37*
G36*
X154027000Y-74834000D02*
G01*
X152725000Y-74834000D01*
X152725000Y-72232000D01*
X154027000Y-72232000D01*
X154027000Y-74834000D01*
X154027000Y-74834000D01*
G37*
G36*
X158796943Y-65336019D02*
G01*
X158863127Y-65342537D01*
X159032966Y-65394057D01*
X159189491Y-65477722D01*
X159225229Y-65507052D01*
X159326686Y-65590314D01*
X159409948Y-65691771D01*
X159439278Y-65727509D01*
X159522943Y-65884034D01*
X159574463Y-66053873D01*
X159591859Y-66230500D01*
X159574463Y-66407127D01*
X159522943Y-66576966D01*
X159439278Y-66733491D01*
X159409948Y-66769229D01*
X159326686Y-66870686D01*
X159225229Y-66953948D01*
X159189491Y-66983278D01*
X159032966Y-67066943D01*
X158863127Y-67118463D01*
X158796942Y-67124982D01*
X158730760Y-67131500D01*
X158642240Y-67131500D01*
X158576058Y-67124982D01*
X158509873Y-67118463D01*
X158340034Y-67066943D01*
X158183509Y-66983278D01*
X158147771Y-66953948D01*
X158046314Y-66870686D01*
X157963052Y-66769229D01*
X157933722Y-66733491D01*
X157850057Y-66576966D01*
X157798537Y-66407127D01*
X157781141Y-66230500D01*
X157798537Y-66053873D01*
X157850057Y-65884034D01*
X157933722Y-65727509D01*
X157963052Y-65691771D01*
X158046314Y-65590314D01*
X158147771Y-65507052D01*
X158183509Y-65477722D01*
X158340034Y-65394057D01*
X158509873Y-65342537D01*
X158576057Y-65336019D01*
X158642240Y-65329500D01*
X158730760Y-65329500D01*
X158796943Y-65336019D01*
X158796943Y-65336019D01*
G37*
G36*
X158796942Y-62796018D02*
G01*
X158863127Y-62802537D01*
X159032966Y-62854057D01*
X159189491Y-62937722D01*
X159225229Y-62967052D01*
X159326686Y-63050314D01*
X159409948Y-63151771D01*
X159439278Y-63187509D01*
X159522943Y-63344034D01*
X159574463Y-63513873D01*
X159591859Y-63690500D01*
X159574463Y-63867127D01*
X159522943Y-64036966D01*
X159439278Y-64193491D01*
X159409948Y-64229229D01*
X159326686Y-64330686D01*
X159225229Y-64413948D01*
X159189491Y-64443278D01*
X159032966Y-64526943D01*
X158863127Y-64578463D01*
X158796943Y-64584981D01*
X158730760Y-64591500D01*
X158642240Y-64591500D01*
X158576057Y-64584981D01*
X158509873Y-64578463D01*
X158340034Y-64526943D01*
X158183509Y-64443278D01*
X158147771Y-64413948D01*
X158046314Y-64330686D01*
X157963052Y-64229229D01*
X157933722Y-64193491D01*
X157850057Y-64036966D01*
X157798537Y-63867127D01*
X157781141Y-63690500D01*
X157798537Y-63513873D01*
X157850057Y-63344034D01*
X157933722Y-63187509D01*
X157963052Y-63151771D01*
X158046314Y-63050314D01*
X158147771Y-62967052D01*
X158183509Y-62937722D01*
X158340034Y-62854057D01*
X158509873Y-62802537D01*
X158576058Y-62796018D01*
X158642240Y-62789500D01*
X158730760Y-62789500D01*
X158796942Y-62796018D01*
X158796942Y-62796018D01*
G37*
G36*
X158796943Y-60256019D02*
G01*
X158863127Y-60262537D01*
X159032966Y-60314057D01*
X159189491Y-60397722D01*
X159225229Y-60427052D01*
X159326686Y-60510314D01*
X159409948Y-60611771D01*
X159439278Y-60647509D01*
X159522943Y-60804034D01*
X159574463Y-60973873D01*
X159591859Y-61150500D01*
X159574463Y-61327127D01*
X159522943Y-61496966D01*
X159439278Y-61653491D01*
X159409948Y-61689229D01*
X159326686Y-61790686D01*
X159225229Y-61873948D01*
X159189491Y-61903278D01*
X159032966Y-61986943D01*
X158863127Y-62038463D01*
X158796942Y-62044982D01*
X158730760Y-62051500D01*
X158642240Y-62051500D01*
X158576058Y-62044982D01*
X158509873Y-62038463D01*
X158340034Y-61986943D01*
X158183509Y-61903278D01*
X158147771Y-61873948D01*
X158046314Y-61790686D01*
X157963052Y-61689229D01*
X157933722Y-61653491D01*
X157850057Y-61496966D01*
X157798537Y-61327127D01*
X157781141Y-61150500D01*
X157798537Y-60973873D01*
X157850057Y-60804034D01*
X157933722Y-60647509D01*
X157963052Y-60611771D01*
X158046314Y-60510314D01*
X158147771Y-60427052D01*
X158183509Y-60397722D01*
X158340034Y-60314057D01*
X158509873Y-60262537D01*
X158576057Y-60256019D01*
X158642240Y-60249500D01*
X158730760Y-60249500D01*
X158796943Y-60256019D01*
X158796943Y-60256019D01*
G37*
G36*
X158796942Y-57716018D02*
G01*
X158863127Y-57722537D01*
X159032966Y-57774057D01*
X159189491Y-57857722D01*
X159225229Y-57887052D01*
X159326686Y-57970314D01*
X159409948Y-58071771D01*
X159439278Y-58107509D01*
X159522943Y-58264034D01*
X159574463Y-58433873D01*
X159591859Y-58610500D01*
X159574463Y-58787127D01*
X159522943Y-58956966D01*
X159439278Y-59113491D01*
X159409948Y-59149229D01*
X159326686Y-59250686D01*
X159225229Y-59333948D01*
X159189491Y-59363278D01*
X159032966Y-59446943D01*
X158863127Y-59498463D01*
X158796942Y-59504982D01*
X158730760Y-59511500D01*
X158642240Y-59511500D01*
X158576058Y-59504982D01*
X158509873Y-59498463D01*
X158340034Y-59446943D01*
X158183509Y-59363278D01*
X158147771Y-59333948D01*
X158046314Y-59250686D01*
X157963052Y-59149229D01*
X157933722Y-59113491D01*
X157850057Y-58956966D01*
X157798537Y-58787127D01*
X157781141Y-58610500D01*
X157798537Y-58433873D01*
X157850057Y-58264034D01*
X157933722Y-58107509D01*
X157963052Y-58071771D01*
X158046314Y-57970314D01*
X158147771Y-57887052D01*
X158183509Y-57857722D01*
X158340034Y-57774057D01*
X158509873Y-57722537D01*
X158576058Y-57716018D01*
X158642240Y-57709500D01*
X158730760Y-57709500D01*
X158796942Y-57716018D01*
X158796942Y-57716018D01*
G37*
G36*
X158796943Y-52636019D02*
G01*
X158863127Y-52642537D01*
X159032966Y-52694057D01*
X159189491Y-52777722D01*
X159225229Y-52807052D01*
X159326686Y-52890314D01*
X159409948Y-52991771D01*
X159439278Y-53027509D01*
X159522943Y-53184034D01*
X159574463Y-53353873D01*
X159591859Y-53530500D01*
X159574463Y-53707127D01*
X159522943Y-53876966D01*
X159439278Y-54033491D01*
X159409948Y-54069229D01*
X159326686Y-54170686D01*
X159225229Y-54253948D01*
X159189491Y-54283278D01*
X159032966Y-54366943D01*
X158863127Y-54418463D01*
X158796943Y-54424981D01*
X158730760Y-54431500D01*
X158642240Y-54431500D01*
X158576057Y-54424981D01*
X158509873Y-54418463D01*
X158340034Y-54366943D01*
X158183509Y-54283278D01*
X158147771Y-54253948D01*
X158046314Y-54170686D01*
X157963052Y-54069229D01*
X157933722Y-54033491D01*
X157850057Y-53876966D01*
X157798537Y-53707127D01*
X157781141Y-53530500D01*
X157798537Y-53353873D01*
X157850057Y-53184034D01*
X157933722Y-53027509D01*
X157963052Y-52991771D01*
X158046314Y-52890314D01*
X158147771Y-52807052D01*
X158183509Y-52777722D01*
X158340034Y-52694057D01*
X158509873Y-52642537D01*
X158576057Y-52636019D01*
X158642240Y-52629500D01*
X158730760Y-52629500D01*
X158796943Y-52636019D01*
X158796943Y-52636019D01*
G37*
G36*
X152510443Y-44698519D02*
G01*
X152576627Y-44705037D01*
X152746466Y-44756557D01*
X152902991Y-44840222D01*
X152938729Y-44869552D01*
X153040186Y-44952814D01*
X153123448Y-45054271D01*
X153152778Y-45090009D01*
X153236443Y-45246534D01*
X153287963Y-45416373D01*
X153305359Y-45593000D01*
X153287963Y-45769627D01*
X153236443Y-45939466D01*
X153152778Y-46095991D01*
X153123448Y-46131729D01*
X153040186Y-46233186D01*
X152938729Y-46316448D01*
X152902991Y-46345778D01*
X152746466Y-46429443D01*
X152576627Y-46480963D01*
X152510442Y-46487482D01*
X152444260Y-46494000D01*
X152355740Y-46494000D01*
X152289558Y-46487482D01*
X152223373Y-46480963D01*
X152053534Y-46429443D01*
X151897009Y-46345778D01*
X151861271Y-46316448D01*
X151759814Y-46233186D01*
X151676552Y-46131729D01*
X151647222Y-46095991D01*
X151563557Y-45939466D01*
X151512037Y-45769627D01*
X151494641Y-45593000D01*
X151512037Y-45416373D01*
X151563557Y-45246534D01*
X151647222Y-45090009D01*
X151676552Y-45054271D01*
X151759814Y-44952814D01*
X151861271Y-44869552D01*
X151897009Y-44840222D01*
X152053534Y-44756557D01*
X152223373Y-44705037D01*
X152289558Y-44698518D01*
X152355740Y-44692000D01*
X152444260Y-44692000D01*
X152510443Y-44698519D01*
X152510443Y-44698519D01*
G37*
G36*
X155050443Y-44698519D02*
G01*
X155116627Y-44705037D01*
X155286466Y-44756557D01*
X155442991Y-44840222D01*
X155478729Y-44869552D01*
X155580186Y-44952814D01*
X155663448Y-45054271D01*
X155692778Y-45090009D01*
X155776443Y-45246534D01*
X155827963Y-45416373D01*
X155845359Y-45593000D01*
X155827963Y-45769627D01*
X155776443Y-45939466D01*
X155692778Y-46095991D01*
X155663448Y-46131729D01*
X155580186Y-46233186D01*
X155478729Y-46316448D01*
X155442991Y-46345778D01*
X155286466Y-46429443D01*
X155116627Y-46480963D01*
X155050442Y-46487482D01*
X154984260Y-46494000D01*
X154895740Y-46494000D01*
X154829558Y-46487482D01*
X154763373Y-46480963D01*
X154593534Y-46429443D01*
X154437009Y-46345778D01*
X154401271Y-46316448D01*
X154299814Y-46233186D01*
X154216552Y-46131729D01*
X154187222Y-46095991D01*
X154103557Y-45939466D01*
X154052037Y-45769627D01*
X154034641Y-45593000D01*
X154052037Y-45416373D01*
X154103557Y-45246534D01*
X154187222Y-45090009D01*
X154216552Y-45054271D01*
X154299814Y-44952814D01*
X154401271Y-44869552D01*
X154437009Y-44840222D01*
X154593534Y-44756557D01*
X154763373Y-44705037D01*
X154829558Y-44698518D01*
X154895740Y-44692000D01*
X154984260Y-44692000D01*
X155050443Y-44698519D01*
X155050443Y-44698519D01*
G37*
G36*
X160130443Y-44698519D02*
G01*
X160196627Y-44705037D01*
X160366466Y-44756557D01*
X160522991Y-44840222D01*
X160558729Y-44869552D01*
X160660186Y-44952814D01*
X160743448Y-45054271D01*
X160772778Y-45090009D01*
X160856443Y-45246534D01*
X160907963Y-45416373D01*
X160925359Y-45593000D01*
X160907963Y-45769627D01*
X160856443Y-45939466D01*
X160772778Y-46095991D01*
X160743448Y-46131729D01*
X160660186Y-46233186D01*
X160558729Y-46316448D01*
X160522991Y-46345778D01*
X160366466Y-46429443D01*
X160196627Y-46480963D01*
X160130442Y-46487482D01*
X160064260Y-46494000D01*
X159975740Y-46494000D01*
X159909558Y-46487482D01*
X159843373Y-46480963D01*
X159673534Y-46429443D01*
X159517009Y-46345778D01*
X159481271Y-46316448D01*
X159379814Y-46233186D01*
X159296552Y-46131729D01*
X159267222Y-46095991D01*
X159183557Y-45939466D01*
X159132037Y-45769627D01*
X159114641Y-45593000D01*
X159132037Y-45416373D01*
X159183557Y-45246534D01*
X159267222Y-45090009D01*
X159296552Y-45054271D01*
X159379814Y-44952814D01*
X159481271Y-44869552D01*
X159517009Y-44840222D01*
X159673534Y-44756557D01*
X159843373Y-44705037D01*
X159909558Y-44698518D01*
X159975740Y-44692000D01*
X160064260Y-44692000D01*
X160130443Y-44698519D01*
X160130443Y-44698519D01*
G37*
G36*
X149970443Y-44698519D02*
G01*
X150036627Y-44705037D01*
X150206466Y-44756557D01*
X150362991Y-44840222D01*
X150398729Y-44869552D01*
X150500186Y-44952814D01*
X150583448Y-45054271D01*
X150612778Y-45090009D01*
X150696443Y-45246534D01*
X150747963Y-45416373D01*
X150765359Y-45593000D01*
X150747963Y-45769627D01*
X150696443Y-45939466D01*
X150612778Y-46095991D01*
X150583448Y-46131729D01*
X150500186Y-46233186D01*
X150398729Y-46316448D01*
X150362991Y-46345778D01*
X150206466Y-46429443D01*
X150036627Y-46480963D01*
X149970442Y-46487482D01*
X149904260Y-46494000D01*
X149815740Y-46494000D01*
X149749558Y-46487482D01*
X149683373Y-46480963D01*
X149513534Y-46429443D01*
X149357009Y-46345778D01*
X149321271Y-46316448D01*
X149219814Y-46233186D01*
X149136552Y-46131729D01*
X149107222Y-46095991D01*
X149023557Y-45939466D01*
X148972037Y-45769627D01*
X148954641Y-45593000D01*
X148972037Y-45416373D01*
X149023557Y-45246534D01*
X149107222Y-45090009D01*
X149136552Y-45054271D01*
X149219814Y-44952814D01*
X149321271Y-44869552D01*
X149357009Y-44840222D01*
X149513534Y-44756557D01*
X149683373Y-44705037D01*
X149749558Y-44698518D01*
X149815740Y-44692000D01*
X149904260Y-44692000D01*
X149970443Y-44698519D01*
X149970443Y-44698519D01*
G37*
G36*
X147430443Y-44698519D02*
G01*
X147496627Y-44705037D01*
X147666466Y-44756557D01*
X147822991Y-44840222D01*
X147858729Y-44869552D01*
X147960186Y-44952814D01*
X148043448Y-45054271D01*
X148072778Y-45090009D01*
X148156443Y-45246534D01*
X148207963Y-45416373D01*
X148225359Y-45593000D01*
X148207963Y-45769627D01*
X148156443Y-45939466D01*
X148072778Y-46095991D01*
X148043448Y-46131729D01*
X147960186Y-46233186D01*
X147858729Y-46316448D01*
X147822991Y-46345778D01*
X147666466Y-46429443D01*
X147496627Y-46480963D01*
X147430442Y-46487482D01*
X147364260Y-46494000D01*
X147275740Y-46494000D01*
X147209558Y-46487482D01*
X147143373Y-46480963D01*
X146973534Y-46429443D01*
X146817009Y-46345778D01*
X146781271Y-46316448D01*
X146679814Y-46233186D01*
X146596552Y-46131729D01*
X146567222Y-46095991D01*
X146483557Y-45939466D01*
X146432037Y-45769627D01*
X146414641Y-45593000D01*
X146432037Y-45416373D01*
X146483557Y-45246534D01*
X146567222Y-45090009D01*
X146596552Y-45054271D01*
X146679814Y-44952814D01*
X146781271Y-44869552D01*
X146817009Y-44840222D01*
X146973534Y-44756557D01*
X147143373Y-44705037D01*
X147209558Y-44698518D01*
X147275740Y-44692000D01*
X147364260Y-44692000D01*
X147430443Y-44698519D01*
X147430443Y-44698519D01*
G37*
G36*
X144890443Y-44698519D02*
G01*
X144956627Y-44705037D01*
X145126466Y-44756557D01*
X145282991Y-44840222D01*
X145318729Y-44869552D01*
X145420186Y-44952814D01*
X145503448Y-45054271D01*
X145532778Y-45090009D01*
X145616443Y-45246534D01*
X145667963Y-45416373D01*
X145685359Y-45593000D01*
X145667963Y-45769627D01*
X145616443Y-45939466D01*
X145532778Y-46095991D01*
X145503448Y-46131729D01*
X145420186Y-46233186D01*
X145318729Y-46316448D01*
X145282991Y-46345778D01*
X145126466Y-46429443D01*
X144956627Y-46480963D01*
X144890442Y-46487482D01*
X144824260Y-46494000D01*
X144735740Y-46494000D01*
X144669558Y-46487482D01*
X144603373Y-46480963D01*
X144433534Y-46429443D01*
X144277009Y-46345778D01*
X144241271Y-46316448D01*
X144139814Y-46233186D01*
X144056552Y-46131729D01*
X144027222Y-46095991D01*
X143943557Y-45939466D01*
X143892037Y-45769627D01*
X143874641Y-45593000D01*
X143892037Y-45416373D01*
X143943557Y-45246534D01*
X144027222Y-45090009D01*
X144056552Y-45054271D01*
X144139814Y-44952814D01*
X144241271Y-44869552D01*
X144277009Y-44840222D01*
X144433534Y-44756557D01*
X144603373Y-44705037D01*
X144669558Y-44698518D01*
X144735740Y-44692000D01*
X144824260Y-44692000D01*
X144890443Y-44698519D01*
X144890443Y-44698519D01*
G37*
G36*
X157590443Y-44698519D02*
G01*
X157656627Y-44705037D01*
X157826466Y-44756557D01*
X157982991Y-44840222D01*
X158018729Y-44869552D01*
X158120186Y-44952814D01*
X158203448Y-45054271D01*
X158232778Y-45090009D01*
X158316443Y-45246534D01*
X158367963Y-45416373D01*
X158385359Y-45593000D01*
X158367963Y-45769627D01*
X158316443Y-45939466D01*
X158232778Y-46095991D01*
X158203448Y-46131729D01*
X158120186Y-46233186D01*
X158018729Y-46316448D01*
X157982991Y-46345778D01*
X157826466Y-46429443D01*
X157656627Y-46480963D01*
X157590442Y-46487482D01*
X157524260Y-46494000D01*
X157435740Y-46494000D01*
X157369558Y-46487482D01*
X157303373Y-46480963D01*
X157133534Y-46429443D01*
X156977009Y-46345778D01*
X156941271Y-46316448D01*
X156839814Y-46233186D01*
X156756552Y-46131729D01*
X156727222Y-46095991D01*
X156643557Y-45939466D01*
X156592037Y-45769627D01*
X156574641Y-45593000D01*
X156592037Y-45416373D01*
X156643557Y-45246534D01*
X156727222Y-45090009D01*
X156756552Y-45054271D01*
X156839814Y-44952814D01*
X156941271Y-44869552D01*
X156977009Y-44840222D01*
X157133534Y-44756557D01*
X157303373Y-44705037D01*
X157369558Y-44698518D01*
X157435740Y-44692000D01*
X157524260Y-44692000D01*
X157590443Y-44698519D01*
X157590443Y-44698519D01*
G37*
G36*
X139810443Y-44698519D02*
G01*
X139876627Y-44705037D01*
X140046466Y-44756557D01*
X140202991Y-44840222D01*
X140238729Y-44869552D01*
X140340186Y-44952814D01*
X140423448Y-45054271D01*
X140452778Y-45090009D01*
X140536443Y-45246534D01*
X140587963Y-45416373D01*
X140605359Y-45593000D01*
X140587963Y-45769627D01*
X140536443Y-45939466D01*
X140452778Y-46095991D01*
X140423448Y-46131729D01*
X140340186Y-46233186D01*
X140238729Y-46316448D01*
X140202991Y-46345778D01*
X140046466Y-46429443D01*
X139876627Y-46480963D01*
X139810442Y-46487482D01*
X139744260Y-46494000D01*
X139655740Y-46494000D01*
X139589558Y-46487482D01*
X139523373Y-46480963D01*
X139353534Y-46429443D01*
X139197009Y-46345778D01*
X139161271Y-46316448D01*
X139059814Y-46233186D01*
X138976552Y-46131729D01*
X138947222Y-46095991D01*
X138863557Y-45939466D01*
X138812037Y-45769627D01*
X138794641Y-45593000D01*
X138812037Y-45416373D01*
X138863557Y-45246534D01*
X138947222Y-45090009D01*
X138976552Y-45054271D01*
X139059814Y-44952814D01*
X139161271Y-44869552D01*
X139197009Y-44840222D01*
X139353534Y-44756557D01*
X139523373Y-44705037D01*
X139589558Y-44698518D01*
X139655740Y-44692000D01*
X139744260Y-44692000D01*
X139810443Y-44698519D01*
X139810443Y-44698519D01*
G37*
G36*
X137270443Y-44698519D02*
G01*
X137336627Y-44705037D01*
X137506466Y-44756557D01*
X137662991Y-44840222D01*
X137698729Y-44869552D01*
X137800186Y-44952814D01*
X137883448Y-45054271D01*
X137912778Y-45090009D01*
X137996443Y-45246534D01*
X138047963Y-45416373D01*
X138065359Y-45593000D01*
X138047963Y-45769627D01*
X137996443Y-45939466D01*
X137912778Y-46095991D01*
X137883448Y-46131729D01*
X137800186Y-46233186D01*
X137698729Y-46316448D01*
X137662991Y-46345778D01*
X137506466Y-46429443D01*
X137336627Y-46480963D01*
X137270442Y-46487482D01*
X137204260Y-46494000D01*
X137115740Y-46494000D01*
X137049558Y-46487482D01*
X136983373Y-46480963D01*
X136813534Y-46429443D01*
X136657009Y-46345778D01*
X136621271Y-46316448D01*
X136519814Y-46233186D01*
X136436552Y-46131729D01*
X136407222Y-46095991D01*
X136323557Y-45939466D01*
X136272037Y-45769627D01*
X136254641Y-45593000D01*
X136272037Y-45416373D01*
X136323557Y-45246534D01*
X136407222Y-45090009D01*
X136436552Y-45054271D01*
X136519814Y-44952814D01*
X136621271Y-44869552D01*
X136657009Y-44840222D01*
X136813534Y-44756557D01*
X136983373Y-44705037D01*
X137049558Y-44698518D01*
X137115740Y-44692000D01*
X137204260Y-44692000D01*
X137270443Y-44698519D01*
X137270443Y-44698519D01*
G37*
G36*
X134730443Y-44698519D02*
G01*
X134796627Y-44705037D01*
X134966466Y-44756557D01*
X135122991Y-44840222D01*
X135158729Y-44869552D01*
X135260186Y-44952814D01*
X135343448Y-45054271D01*
X135372778Y-45090009D01*
X135456443Y-45246534D01*
X135507963Y-45416373D01*
X135525359Y-45593000D01*
X135507963Y-45769627D01*
X135456443Y-45939466D01*
X135372778Y-46095991D01*
X135343448Y-46131729D01*
X135260186Y-46233186D01*
X135158729Y-46316448D01*
X135122991Y-46345778D01*
X134966466Y-46429443D01*
X134796627Y-46480963D01*
X134730442Y-46487482D01*
X134664260Y-46494000D01*
X134575740Y-46494000D01*
X134509558Y-46487482D01*
X134443373Y-46480963D01*
X134273534Y-46429443D01*
X134117009Y-46345778D01*
X134081271Y-46316448D01*
X133979814Y-46233186D01*
X133896552Y-46131729D01*
X133867222Y-46095991D01*
X133783557Y-45939466D01*
X133732037Y-45769627D01*
X133714641Y-45593000D01*
X133732037Y-45416373D01*
X133783557Y-45246534D01*
X133867222Y-45090009D01*
X133896552Y-45054271D01*
X133979814Y-44952814D01*
X134081271Y-44869552D01*
X134117009Y-44840222D01*
X134273534Y-44756557D01*
X134443373Y-44705037D01*
X134509558Y-44698518D01*
X134575740Y-44692000D01*
X134664260Y-44692000D01*
X134730443Y-44698519D01*
X134730443Y-44698519D01*
G37*
G36*
X132190443Y-44698519D02*
G01*
X132256627Y-44705037D01*
X132426466Y-44756557D01*
X132582991Y-44840222D01*
X132618729Y-44869552D01*
X132720186Y-44952814D01*
X132803448Y-45054271D01*
X132832778Y-45090009D01*
X132916443Y-45246534D01*
X132967963Y-45416373D01*
X132985359Y-45593000D01*
X132967963Y-45769627D01*
X132916443Y-45939466D01*
X132832778Y-46095991D01*
X132803448Y-46131729D01*
X132720186Y-46233186D01*
X132618729Y-46316448D01*
X132582991Y-46345778D01*
X132426466Y-46429443D01*
X132256627Y-46480963D01*
X132190442Y-46487482D01*
X132124260Y-46494000D01*
X132035740Y-46494000D01*
X131969558Y-46487482D01*
X131903373Y-46480963D01*
X131733534Y-46429443D01*
X131577009Y-46345778D01*
X131541271Y-46316448D01*
X131439814Y-46233186D01*
X131356552Y-46131729D01*
X131327222Y-46095991D01*
X131243557Y-45939466D01*
X131192037Y-45769627D01*
X131174641Y-45593000D01*
X131192037Y-45416373D01*
X131243557Y-45246534D01*
X131327222Y-45090009D01*
X131356552Y-45054271D01*
X131439814Y-44952814D01*
X131541271Y-44869552D01*
X131577009Y-44840222D01*
X131733534Y-44756557D01*
X131903373Y-44705037D01*
X131969558Y-44698518D01*
X132035740Y-44692000D01*
X132124260Y-44692000D01*
X132190443Y-44698519D01*
X132190443Y-44698519D01*
G37*
G36*
X129650443Y-44698519D02*
G01*
X129716627Y-44705037D01*
X129886466Y-44756557D01*
X130042991Y-44840222D01*
X130078729Y-44869552D01*
X130180186Y-44952814D01*
X130263448Y-45054271D01*
X130292778Y-45090009D01*
X130376443Y-45246534D01*
X130427963Y-45416373D01*
X130445359Y-45593000D01*
X130427963Y-45769627D01*
X130376443Y-45939466D01*
X130292778Y-46095991D01*
X130263448Y-46131729D01*
X130180186Y-46233186D01*
X130078729Y-46316448D01*
X130042991Y-46345778D01*
X129886466Y-46429443D01*
X129716627Y-46480963D01*
X129650442Y-46487482D01*
X129584260Y-46494000D01*
X129495740Y-46494000D01*
X129429558Y-46487482D01*
X129363373Y-46480963D01*
X129193534Y-46429443D01*
X129037009Y-46345778D01*
X129001271Y-46316448D01*
X128899814Y-46233186D01*
X128816552Y-46131729D01*
X128787222Y-46095991D01*
X128703557Y-45939466D01*
X128652037Y-45769627D01*
X128634641Y-45593000D01*
X128652037Y-45416373D01*
X128703557Y-45246534D01*
X128787222Y-45090009D01*
X128816552Y-45054271D01*
X128899814Y-44952814D01*
X129001271Y-44869552D01*
X129037009Y-44840222D01*
X129193534Y-44756557D01*
X129363373Y-44705037D01*
X129429558Y-44698518D01*
X129495740Y-44692000D01*
X129584260Y-44692000D01*
X129650443Y-44698519D01*
X129650443Y-44698519D01*
G37*
G36*
X127110443Y-44698519D02*
G01*
X127176627Y-44705037D01*
X127346466Y-44756557D01*
X127502991Y-44840222D01*
X127538729Y-44869552D01*
X127640186Y-44952814D01*
X127723448Y-45054271D01*
X127752778Y-45090009D01*
X127836443Y-45246534D01*
X127887963Y-45416373D01*
X127905359Y-45593000D01*
X127887963Y-45769627D01*
X127836443Y-45939466D01*
X127752778Y-46095991D01*
X127723448Y-46131729D01*
X127640186Y-46233186D01*
X127538729Y-46316448D01*
X127502991Y-46345778D01*
X127346466Y-46429443D01*
X127176627Y-46480963D01*
X127110442Y-46487482D01*
X127044260Y-46494000D01*
X126955740Y-46494000D01*
X126889558Y-46487482D01*
X126823373Y-46480963D01*
X126653534Y-46429443D01*
X126497009Y-46345778D01*
X126461271Y-46316448D01*
X126359814Y-46233186D01*
X126276552Y-46131729D01*
X126247222Y-46095991D01*
X126163557Y-45939466D01*
X126112037Y-45769627D01*
X126094641Y-45593000D01*
X126112037Y-45416373D01*
X126163557Y-45246534D01*
X126247222Y-45090009D01*
X126276552Y-45054271D01*
X126359814Y-44952814D01*
X126461271Y-44869552D01*
X126497009Y-44840222D01*
X126653534Y-44756557D01*
X126823373Y-44705037D01*
X126889558Y-44698518D01*
X126955740Y-44692000D01*
X127044260Y-44692000D01*
X127110443Y-44698519D01*
X127110443Y-44698519D01*
G37*
G36*
X142350443Y-44698519D02*
G01*
X142416627Y-44705037D01*
X142586466Y-44756557D01*
X142742991Y-44840222D01*
X142778729Y-44869552D01*
X142880186Y-44952814D01*
X142963448Y-45054271D01*
X142992778Y-45090009D01*
X143076443Y-45246534D01*
X143127963Y-45416373D01*
X143145359Y-45593000D01*
X143127963Y-45769627D01*
X143076443Y-45939466D01*
X142992778Y-46095991D01*
X142963448Y-46131729D01*
X142880186Y-46233186D01*
X142778729Y-46316448D01*
X142742991Y-46345778D01*
X142586466Y-46429443D01*
X142416627Y-46480963D01*
X142350442Y-46487482D01*
X142284260Y-46494000D01*
X142195740Y-46494000D01*
X142129558Y-46487482D01*
X142063373Y-46480963D01*
X141893534Y-46429443D01*
X141737009Y-46345778D01*
X141701271Y-46316448D01*
X141599814Y-46233186D01*
X141516552Y-46131729D01*
X141487222Y-46095991D01*
X141403557Y-45939466D01*
X141352037Y-45769627D01*
X141334641Y-45593000D01*
X141352037Y-45416373D01*
X141403557Y-45246534D01*
X141487222Y-45090009D01*
X141516552Y-45054271D01*
X141599814Y-44952814D01*
X141701271Y-44869552D01*
X141737009Y-44840222D01*
X141893534Y-44756557D01*
X142063373Y-44705037D01*
X142129558Y-44698518D01*
X142195740Y-44692000D01*
X142284260Y-44692000D01*
X142350443Y-44698519D01*
X142350443Y-44698519D01*
G37*
G36*
X160130442Y-42158518D02*
G01*
X160196627Y-42165037D01*
X160366466Y-42216557D01*
X160522991Y-42300222D01*
X160558729Y-42329552D01*
X160660186Y-42412814D01*
X160743448Y-42514271D01*
X160772778Y-42550009D01*
X160856443Y-42706534D01*
X160907963Y-42876373D01*
X160925359Y-43053000D01*
X160907963Y-43229627D01*
X160856443Y-43399466D01*
X160772778Y-43555991D01*
X160743448Y-43591729D01*
X160660186Y-43693186D01*
X160558729Y-43776448D01*
X160522991Y-43805778D01*
X160366466Y-43889443D01*
X160196627Y-43940963D01*
X160130442Y-43947482D01*
X160064260Y-43954000D01*
X159975740Y-43954000D01*
X159909557Y-43947481D01*
X159843373Y-43940963D01*
X159673534Y-43889443D01*
X159517009Y-43805778D01*
X159481271Y-43776448D01*
X159379814Y-43693186D01*
X159296552Y-43591729D01*
X159267222Y-43555991D01*
X159183557Y-43399466D01*
X159132037Y-43229627D01*
X159114641Y-43053000D01*
X159132037Y-42876373D01*
X159183557Y-42706534D01*
X159267222Y-42550009D01*
X159296552Y-42514271D01*
X159379814Y-42412814D01*
X159481271Y-42329552D01*
X159517009Y-42300222D01*
X159673534Y-42216557D01*
X159843373Y-42165037D01*
X159909558Y-42158518D01*
X159975740Y-42152000D01*
X160064260Y-42152000D01*
X160130442Y-42158518D01*
X160130442Y-42158518D01*
G37*
G36*
X160130443Y-39618519D02*
G01*
X160196627Y-39625037D01*
X160366466Y-39676557D01*
X160522991Y-39760222D01*
X160558729Y-39789552D01*
X160660186Y-39872814D01*
X160743448Y-39974271D01*
X160772778Y-40010009D01*
X160856443Y-40166534D01*
X160907963Y-40336373D01*
X160925359Y-40513000D01*
X160907963Y-40689627D01*
X160856443Y-40859466D01*
X160772778Y-41015991D01*
X160743448Y-41051729D01*
X160660186Y-41153186D01*
X160558729Y-41236448D01*
X160522991Y-41265778D01*
X160366466Y-41349443D01*
X160196627Y-41400963D01*
X160130442Y-41407482D01*
X160064260Y-41414000D01*
X159975740Y-41414000D01*
X159909557Y-41407481D01*
X159843373Y-41400963D01*
X159673534Y-41349443D01*
X159517009Y-41265778D01*
X159481271Y-41236448D01*
X159379814Y-41153186D01*
X159296552Y-41051729D01*
X159267222Y-41015991D01*
X159183557Y-40859466D01*
X159132037Y-40689627D01*
X159114641Y-40513000D01*
X159132037Y-40336373D01*
X159183557Y-40166534D01*
X159267222Y-40010009D01*
X159296552Y-39974271D01*
X159379814Y-39872814D01*
X159481271Y-39789552D01*
X159517009Y-39760222D01*
X159673534Y-39676557D01*
X159843373Y-39625037D01*
X159909557Y-39618519D01*
X159975740Y-39612000D01*
X160064260Y-39612000D01*
X160130443Y-39618519D01*
X160130443Y-39618519D01*
G37*
G36*
X160130442Y-37078518D02*
G01*
X160196627Y-37085037D01*
X160366466Y-37136557D01*
X160522991Y-37220222D01*
X160558729Y-37249552D01*
X160660186Y-37332814D01*
X160743448Y-37434271D01*
X160772778Y-37470009D01*
X160856443Y-37626534D01*
X160907963Y-37796373D01*
X160925359Y-37973000D01*
X160907963Y-38149627D01*
X160856443Y-38319466D01*
X160772778Y-38475991D01*
X160743448Y-38511729D01*
X160660186Y-38613186D01*
X160558729Y-38696448D01*
X160522991Y-38725778D01*
X160366466Y-38809443D01*
X160196627Y-38860963D01*
X160130443Y-38867481D01*
X160064260Y-38874000D01*
X159975740Y-38874000D01*
X159909557Y-38867481D01*
X159843373Y-38860963D01*
X159673534Y-38809443D01*
X159517009Y-38725778D01*
X159481271Y-38696448D01*
X159379814Y-38613186D01*
X159296552Y-38511729D01*
X159267222Y-38475991D01*
X159183557Y-38319466D01*
X159132037Y-38149627D01*
X159114641Y-37973000D01*
X159132037Y-37796373D01*
X159183557Y-37626534D01*
X159267222Y-37470009D01*
X159296552Y-37434271D01*
X159379814Y-37332814D01*
X159481271Y-37249552D01*
X159517009Y-37220222D01*
X159673534Y-37136557D01*
X159843373Y-37085037D01*
X159909558Y-37078518D01*
X159975740Y-37072000D01*
X160064260Y-37072000D01*
X160130442Y-37078518D01*
X160130442Y-37078518D01*
G37*
G36*
X160130442Y-34538518D02*
G01*
X160196627Y-34545037D01*
X160366466Y-34596557D01*
X160522991Y-34680222D01*
X160558729Y-34709552D01*
X160660186Y-34792814D01*
X160743448Y-34894271D01*
X160772778Y-34930009D01*
X160856443Y-35086534D01*
X160907963Y-35256373D01*
X160925359Y-35433000D01*
X160907963Y-35609627D01*
X160856443Y-35779466D01*
X160772778Y-35935991D01*
X160743448Y-35971729D01*
X160660186Y-36073186D01*
X160558729Y-36156448D01*
X160522991Y-36185778D01*
X160366466Y-36269443D01*
X160196627Y-36320963D01*
X160130442Y-36327482D01*
X160064260Y-36334000D01*
X159975740Y-36334000D01*
X159909558Y-36327482D01*
X159843373Y-36320963D01*
X159673534Y-36269443D01*
X159517009Y-36185778D01*
X159481271Y-36156448D01*
X159379814Y-36073186D01*
X159296552Y-35971729D01*
X159267222Y-35935991D01*
X159183557Y-35779466D01*
X159132037Y-35609627D01*
X159114641Y-35433000D01*
X159132037Y-35256373D01*
X159183557Y-35086534D01*
X159267222Y-34930009D01*
X159296552Y-34894271D01*
X159379814Y-34792814D01*
X159481271Y-34709552D01*
X159517009Y-34680222D01*
X159673534Y-34596557D01*
X159843373Y-34545037D01*
X159909558Y-34538518D01*
X159975740Y-34532000D01*
X160064260Y-34532000D01*
X160130442Y-34538518D01*
X160130442Y-34538518D01*
G37*
G36*
X160130443Y-31998519D02*
G01*
X160196627Y-32005037D01*
X160366466Y-32056557D01*
X160522991Y-32140222D01*
X160558729Y-32169552D01*
X160660186Y-32252814D01*
X160743448Y-32354271D01*
X160772778Y-32390009D01*
X160856443Y-32546534D01*
X160907963Y-32716373D01*
X160925359Y-32893000D01*
X160907963Y-33069627D01*
X160856443Y-33239466D01*
X160772778Y-33395991D01*
X160743448Y-33431729D01*
X160660186Y-33533186D01*
X160558729Y-33616448D01*
X160522991Y-33645778D01*
X160366466Y-33729443D01*
X160196627Y-33780963D01*
X160130442Y-33787482D01*
X160064260Y-33794000D01*
X159975740Y-33794000D01*
X159909558Y-33787482D01*
X159843373Y-33780963D01*
X159673534Y-33729443D01*
X159517009Y-33645778D01*
X159481271Y-33616448D01*
X159379814Y-33533186D01*
X159296552Y-33431729D01*
X159267222Y-33395991D01*
X159183557Y-33239466D01*
X159132037Y-33069627D01*
X159114641Y-32893000D01*
X159132037Y-32716373D01*
X159183557Y-32546534D01*
X159267222Y-32390009D01*
X159296552Y-32354271D01*
X159379814Y-32252814D01*
X159481271Y-32169552D01*
X159517009Y-32140222D01*
X159673534Y-32056557D01*
X159843373Y-32005037D01*
X159909557Y-31998519D01*
X159975740Y-31992000D01*
X160064260Y-31992000D01*
X160130443Y-31998519D01*
X160130443Y-31998519D01*
G37*
G36*
X129650442Y-29458518D02*
G01*
X129716627Y-29465037D01*
X129886466Y-29516557D01*
X130042991Y-29600222D01*
X130078729Y-29629552D01*
X130180186Y-29712814D01*
X130263448Y-29814271D01*
X130292778Y-29850009D01*
X130376443Y-30006534D01*
X130427963Y-30176373D01*
X130445359Y-30353000D01*
X130427963Y-30529627D01*
X130376443Y-30699466D01*
X130292778Y-30855991D01*
X130263448Y-30891729D01*
X130180186Y-30993186D01*
X130078729Y-31076448D01*
X130042991Y-31105778D01*
X129886466Y-31189443D01*
X129716627Y-31240963D01*
X129650442Y-31247482D01*
X129584260Y-31254000D01*
X129495740Y-31254000D01*
X129429558Y-31247482D01*
X129363373Y-31240963D01*
X129193534Y-31189443D01*
X129037009Y-31105778D01*
X129001271Y-31076448D01*
X128899814Y-30993186D01*
X128816552Y-30891729D01*
X128787222Y-30855991D01*
X128703557Y-30699466D01*
X128652037Y-30529627D01*
X128634641Y-30353000D01*
X128652037Y-30176373D01*
X128703557Y-30006534D01*
X128787222Y-29850009D01*
X128816552Y-29814271D01*
X128899814Y-29712814D01*
X129001271Y-29629552D01*
X129037009Y-29600222D01*
X129193534Y-29516557D01*
X129363373Y-29465037D01*
X129429558Y-29458518D01*
X129495740Y-29452000D01*
X129584260Y-29452000D01*
X129650442Y-29458518D01*
X129650442Y-29458518D01*
G37*
G36*
X132190442Y-29458518D02*
G01*
X132256627Y-29465037D01*
X132426466Y-29516557D01*
X132582991Y-29600222D01*
X132618729Y-29629552D01*
X132720186Y-29712814D01*
X132803448Y-29814271D01*
X132832778Y-29850009D01*
X132916443Y-30006534D01*
X132967963Y-30176373D01*
X132985359Y-30353000D01*
X132967963Y-30529627D01*
X132916443Y-30699466D01*
X132832778Y-30855991D01*
X132803448Y-30891729D01*
X132720186Y-30993186D01*
X132618729Y-31076448D01*
X132582991Y-31105778D01*
X132426466Y-31189443D01*
X132256627Y-31240963D01*
X132190442Y-31247482D01*
X132124260Y-31254000D01*
X132035740Y-31254000D01*
X131969558Y-31247482D01*
X131903373Y-31240963D01*
X131733534Y-31189443D01*
X131577009Y-31105778D01*
X131541271Y-31076448D01*
X131439814Y-30993186D01*
X131356552Y-30891729D01*
X131327222Y-30855991D01*
X131243557Y-30699466D01*
X131192037Y-30529627D01*
X131174641Y-30353000D01*
X131192037Y-30176373D01*
X131243557Y-30006534D01*
X131327222Y-29850009D01*
X131356552Y-29814271D01*
X131439814Y-29712814D01*
X131541271Y-29629552D01*
X131577009Y-29600222D01*
X131733534Y-29516557D01*
X131903373Y-29465037D01*
X131969558Y-29458518D01*
X132035740Y-29452000D01*
X132124260Y-29452000D01*
X132190442Y-29458518D01*
X132190442Y-29458518D01*
G37*
G36*
X134730442Y-29458518D02*
G01*
X134796627Y-29465037D01*
X134966466Y-29516557D01*
X135122991Y-29600222D01*
X135158729Y-29629552D01*
X135260186Y-29712814D01*
X135343448Y-29814271D01*
X135372778Y-29850009D01*
X135456443Y-30006534D01*
X135507963Y-30176373D01*
X135525359Y-30353000D01*
X135507963Y-30529627D01*
X135456443Y-30699466D01*
X135372778Y-30855991D01*
X135343448Y-30891729D01*
X135260186Y-30993186D01*
X135158729Y-31076448D01*
X135122991Y-31105778D01*
X134966466Y-31189443D01*
X134796627Y-31240963D01*
X134730442Y-31247482D01*
X134664260Y-31254000D01*
X134575740Y-31254000D01*
X134509558Y-31247482D01*
X134443373Y-31240963D01*
X134273534Y-31189443D01*
X134117009Y-31105778D01*
X134081271Y-31076448D01*
X133979814Y-30993186D01*
X133896552Y-30891729D01*
X133867222Y-30855991D01*
X133783557Y-30699466D01*
X133732037Y-30529627D01*
X133714641Y-30353000D01*
X133732037Y-30176373D01*
X133783557Y-30006534D01*
X133867222Y-29850009D01*
X133896552Y-29814271D01*
X133979814Y-29712814D01*
X134081271Y-29629552D01*
X134117009Y-29600222D01*
X134273534Y-29516557D01*
X134443373Y-29465037D01*
X134509558Y-29458518D01*
X134575740Y-29452000D01*
X134664260Y-29452000D01*
X134730442Y-29458518D01*
X134730442Y-29458518D01*
G37*
G36*
X137270442Y-29458518D02*
G01*
X137336627Y-29465037D01*
X137506466Y-29516557D01*
X137662991Y-29600222D01*
X137698729Y-29629552D01*
X137800186Y-29712814D01*
X137883448Y-29814271D01*
X137912778Y-29850009D01*
X137996443Y-30006534D01*
X138047963Y-30176373D01*
X138065359Y-30353000D01*
X138047963Y-30529627D01*
X137996443Y-30699466D01*
X137912778Y-30855991D01*
X137883448Y-30891729D01*
X137800186Y-30993186D01*
X137698729Y-31076448D01*
X137662991Y-31105778D01*
X137506466Y-31189443D01*
X137336627Y-31240963D01*
X137270442Y-31247482D01*
X137204260Y-31254000D01*
X137115740Y-31254000D01*
X137049558Y-31247482D01*
X136983373Y-31240963D01*
X136813534Y-31189443D01*
X136657009Y-31105778D01*
X136621271Y-31076448D01*
X136519814Y-30993186D01*
X136436552Y-30891729D01*
X136407222Y-30855991D01*
X136323557Y-30699466D01*
X136272037Y-30529627D01*
X136254641Y-30353000D01*
X136272037Y-30176373D01*
X136323557Y-30006534D01*
X136407222Y-29850009D01*
X136436552Y-29814271D01*
X136519814Y-29712814D01*
X136621271Y-29629552D01*
X136657009Y-29600222D01*
X136813534Y-29516557D01*
X136983373Y-29465037D01*
X137049558Y-29458518D01*
X137115740Y-29452000D01*
X137204260Y-29452000D01*
X137270442Y-29458518D01*
X137270442Y-29458518D01*
G37*
G36*
X139810442Y-29458518D02*
G01*
X139876627Y-29465037D01*
X140046466Y-29516557D01*
X140202991Y-29600222D01*
X140238729Y-29629552D01*
X140340186Y-29712814D01*
X140423448Y-29814271D01*
X140452778Y-29850009D01*
X140536443Y-30006534D01*
X140587963Y-30176373D01*
X140605359Y-30353000D01*
X140587963Y-30529627D01*
X140536443Y-30699466D01*
X140452778Y-30855991D01*
X140423448Y-30891729D01*
X140340186Y-30993186D01*
X140238729Y-31076448D01*
X140202991Y-31105778D01*
X140046466Y-31189443D01*
X139876627Y-31240963D01*
X139810442Y-31247482D01*
X139744260Y-31254000D01*
X139655740Y-31254000D01*
X139589558Y-31247482D01*
X139523373Y-31240963D01*
X139353534Y-31189443D01*
X139197009Y-31105778D01*
X139161271Y-31076448D01*
X139059814Y-30993186D01*
X138976552Y-30891729D01*
X138947222Y-30855991D01*
X138863557Y-30699466D01*
X138812037Y-30529627D01*
X138794641Y-30353000D01*
X138812037Y-30176373D01*
X138863557Y-30006534D01*
X138947222Y-29850009D01*
X138976552Y-29814271D01*
X139059814Y-29712814D01*
X139161271Y-29629552D01*
X139197009Y-29600222D01*
X139353534Y-29516557D01*
X139523373Y-29465037D01*
X139589558Y-29458518D01*
X139655740Y-29452000D01*
X139744260Y-29452000D01*
X139810442Y-29458518D01*
X139810442Y-29458518D01*
G37*
G36*
X127110442Y-29458518D02*
G01*
X127176627Y-29465037D01*
X127346466Y-29516557D01*
X127502991Y-29600222D01*
X127538729Y-29629552D01*
X127640186Y-29712814D01*
X127723448Y-29814271D01*
X127752778Y-29850009D01*
X127836443Y-30006534D01*
X127887963Y-30176373D01*
X127905359Y-30353000D01*
X127887963Y-30529627D01*
X127836443Y-30699466D01*
X127752778Y-30855991D01*
X127723448Y-30891729D01*
X127640186Y-30993186D01*
X127538729Y-31076448D01*
X127502991Y-31105778D01*
X127346466Y-31189443D01*
X127176627Y-31240963D01*
X127110442Y-31247482D01*
X127044260Y-31254000D01*
X126955740Y-31254000D01*
X126889558Y-31247482D01*
X126823373Y-31240963D01*
X126653534Y-31189443D01*
X126497009Y-31105778D01*
X126461271Y-31076448D01*
X126359814Y-30993186D01*
X126276552Y-30891729D01*
X126247222Y-30855991D01*
X126163557Y-30699466D01*
X126112037Y-30529627D01*
X126094641Y-30353000D01*
X126112037Y-30176373D01*
X126163557Y-30006534D01*
X126247222Y-29850009D01*
X126276552Y-29814271D01*
X126359814Y-29712814D01*
X126461271Y-29629552D01*
X126497009Y-29600222D01*
X126653534Y-29516557D01*
X126823373Y-29465037D01*
X126889558Y-29458518D01*
X126955740Y-29452000D01*
X127044260Y-29452000D01*
X127110442Y-29458518D01*
X127110442Y-29458518D01*
G37*
G36*
X152510442Y-29458518D02*
G01*
X152576627Y-29465037D01*
X152746466Y-29516557D01*
X152902991Y-29600222D01*
X152938729Y-29629552D01*
X153040186Y-29712814D01*
X153123448Y-29814271D01*
X153152778Y-29850009D01*
X153236443Y-30006534D01*
X153287963Y-30176373D01*
X153305359Y-30353000D01*
X153287963Y-30529627D01*
X153236443Y-30699466D01*
X153152778Y-30855991D01*
X153123448Y-30891729D01*
X153040186Y-30993186D01*
X152938729Y-31076448D01*
X152902991Y-31105778D01*
X152746466Y-31189443D01*
X152576627Y-31240963D01*
X152510442Y-31247482D01*
X152444260Y-31254000D01*
X152355740Y-31254000D01*
X152289558Y-31247482D01*
X152223373Y-31240963D01*
X152053534Y-31189443D01*
X151897009Y-31105778D01*
X151861271Y-31076448D01*
X151759814Y-30993186D01*
X151676552Y-30891729D01*
X151647222Y-30855991D01*
X151563557Y-30699466D01*
X151512037Y-30529627D01*
X151494641Y-30353000D01*
X151512037Y-30176373D01*
X151563557Y-30006534D01*
X151647222Y-29850009D01*
X151676552Y-29814271D01*
X151759814Y-29712814D01*
X151861271Y-29629552D01*
X151897009Y-29600222D01*
X152053534Y-29516557D01*
X152223373Y-29465037D01*
X152289558Y-29458518D01*
X152355740Y-29452000D01*
X152444260Y-29452000D01*
X152510442Y-29458518D01*
X152510442Y-29458518D01*
G37*
G36*
X147430442Y-29458518D02*
G01*
X147496627Y-29465037D01*
X147666466Y-29516557D01*
X147822991Y-29600222D01*
X147858729Y-29629552D01*
X147960186Y-29712814D01*
X148043448Y-29814271D01*
X148072778Y-29850009D01*
X148156443Y-30006534D01*
X148207963Y-30176373D01*
X148225359Y-30353000D01*
X148207963Y-30529627D01*
X148156443Y-30699466D01*
X148072778Y-30855991D01*
X148043448Y-30891729D01*
X147960186Y-30993186D01*
X147858729Y-31076448D01*
X147822991Y-31105778D01*
X147666466Y-31189443D01*
X147496627Y-31240963D01*
X147430442Y-31247482D01*
X147364260Y-31254000D01*
X147275740Y-31254000D01*
X147209558Y-31247482D01*
X147143373Y-31240963D01*
X146973534Y-31189443D01*
X146817009Y-31105778D01*
X146781271Y-31076448D01*
X146679814Y-30993186D01*
X146596552Y-30891729D01*
X146567222Y-30855991D01*
X146483557Y-30699466D01*
X146432037Y-30529627D01*
X146414641Y-30353000D01*
X146432037Y-30176373D01*
X146483557Y-30006534D01*
X146567222Y-29850009D01*
X146596552Y-29814271D01*
X146679814Y-29712814D01*
X146781271Y-29629552D01*
X146817009Y-29600222D01*
X146973534Y-29516557D01*
X147143373Y-29465037D01*
X147209558Y-29458518D01*
X147275740Y-29452000D01*
X147364260Y-29452000D01*
X147430442Y-29458518D01*
X147430442Y-29458518D01*
G37*
G36*
X144890442Y-29458518D02*
G01*
X144956627Y-29465037D01*
X145126466Y-29516557D01*
X145282991Y-29600222D01*
X145318729Y-29629552D01*
X145420186Y-29712814D01*
X145503448Y-29814271D01*
X145532778Y-29850009D01*
X145616443Y-30006534D01*
X145667963Y-30176373D01*
X145685359Y-30353000D01*
X145667963Y-30529627D01*
X145616443Y-30699466D01*
X145532778Y-30855991D01*
X145503448Y-30891729D01*
X145420186Y-30993186D01*
X145318729Y-31076448D01*
X145282991Y-31105778D01*
X145126466Y-31189443D01*
X144956627Y-31240963D01*
X144890442Y-31247482D01*
X144824260Y-31254000D01*
X144735740Y-31254000D01*
X144669558Y-31247482D01*
X144603373Y-31240963D01*
X144433534Y-31189443D01*
X144277009Y-31105778D01*
X144241271Y-31076448D01*
X144139814Y-30993186D01*
X144056552Y-30891729D01*
X144027222Y-30855991D01*
X143943557Y-30699466D01*
X143892037Y-30529627D01*
X143874641Y-30353000D01*
X143892037Y-30176373D01*
X143943557Y-30006534D01*
X144027222Y-29850009D01*
X144056552Y-29814271D01*
X144139814Y-29712814D01*
X144241271Y-29629552D01*
X144277009Y-29600222D01*
X144433534Y-29516557D01*
X144603373Y-29465037D01*
X144669558Y-29458518D01*
X144735740Y-29452000D01*
X144824260Y-29452000D01*
X144890442Y-29458518D01*
X144890442Y-29458518D01*
G37*
G36*
X142350442Y-29458518D02*
G01*
X142416627Y-29465037D01*
X142586466Y-29516557D01*
X142742991Y-29600222D01*
X142778729Y-29629552D01*
X142880186Y-29712814D01*
X142963448Y-29814271D01*
X142992778Y-29850009D01*
X143076443Y-30006534D01*
X143127963Y-30176373D01*
X143145359Y-30353000D01*
X143127963Y-30529627D01*
X143076443Y-30699466D01*
X142992778Y-30855991D01*
X142963448Y-30891729D01*
X142880186Y-30993186D01*
X142778729Y-31076448D01*
X142742991Y-31105778D01*
X142586466Y-31189443D01*
X142416627Y-31240963D01*
X142350442Y-31247482D01*
X142284260Y-31254000D01*
X142195740Y-31254000D01*
X142129558Y-31247482D01*
X142063373Y-31240963D01*
X141893534Y-31189443D01*
X141737009Y-31105778D01*
X141701271Y-31076448D01*
X141599814Y-30993186D01*
X141516552Y-30891729D01*
X141487222Y-30855991D01*
X141403557Y-30699466D01*
X141352037Y-30529627D01*
X141334641Y-30353000D01*
X141352037Y-30176373D01*
X141403557Y-30006534D01*
X141487222Y-29850009D01*
X141516552Y-29814271D01*
X141599814Y-29712814D01*
X141701271Y-29629552D01*
X141737009Y-29600222D01*
X141893534Y-29516557D01*
X142063373Y-29465037D01*
X142129558Y-29458518D01*
X142195740Y-29452000D01*
X142284260Y-29452000D01*
X142350442Y-29458518D01*
X142350442Y-29458518D01*
G37*
G36*
X155050442Y-29458518D02*
G01*
X155116627Y-29465037D01*
X155286466Y-29516557D01*
X155442991Y-29600222D01*
X155478729Y-29629552D01*
X155580186Y-29712814D01*
X155663448Y-29814271D01*
X155692778Y-29850009D01*
X155776443Y-30006534D01*
X155827963Y-30176373D01*
X155845359Y-30353000D01*
X155827963Y-30529627D01*
X155776443Y-30699466D01*
X155692778Y-30855991D01*
X155663448Y-30891729D01*
X155580186Y-30993186D01*
X155478729Y-31076448D01*
X155442991Y-31105778D01*
X155286466Y-31189443D01*
X155116627Y-31240963D01*
X155050442Y-31247482D01*
X154984260Y-31254000D01*
X154895740Y-31254000D01*
X154829558Y-31247482D01*
X154763373Y-31240963D01*
X154593534Y-31189443D01*
X154437009Y-31105778D01*
X154401271Y-31076448D01*
X154299814Y-30993186D01*
X154216552Y-30891729D01*
X154187222Y-30855991D01*
X154103557Y-30699466D01*
X154052037Y-30529627D01*
X154034641Y-30353000D01*
X154052037Y-30176373D01*
X154103557Y-30006534D01*
X154187222Y-29850009D01*
X154216552Y-29814271D01*
X154299814Y-29712814D01*
X154401271Y-29629552D01*
X154437009Y-29600222D01*
X154593534Y-29516557D01*
X154763373Y-29465037D01*
X154829558Y-29458518D01*
X154895740Y-29452000D01*
X154984260Y-29452000D01*
X155050442Y-29458518D01*
X155050442Y-29458518D01*
G37*
G36*
X157590442Y-29458518D02*
G01*
X157656627Y-29465037D01*
X157826466Y-29516557D01*
X157982991Y-29600222D01*
X158018729Y-29629552D01*
X158120186Y-29712814D01*
X158203448Y-29814271D01*
X158232778Y-29850009D01*
X158316443Y-30006534D01*
X158367963Y-30176373D01*
X158385359Y-30353000D01*
X158367963Y-30529627D01*
X158316443Y-30699466D01*
X158232778Y-30855991D01*
X158203448Y-30891729D01*
X158120186Y-30993186D01*
X158018729Y-31076448D01*
X157982991Y-31105778D01*
X157826466Y-31189443D01*
X157656627Y-31240963D01*
X157590442Y-31247482D01*
X157524260Y-31254000D01*
X157435740Y-31254000D01*
X157369558Y-31247482D01*
X157303373Y-31240963D01*
X157133534Y-31189443D01*
X156977009Y-31105778D01*
X156941271Y-31076448D01*
X156839814Y-30993186D01*
X156756552Y-30891729D01*
X156727222Y-30855991D01*
X156643557Y-30699466D01*
X156592037Y-30529627D01*
X156574641Y-30353000D01*
X156592037Y-30176373D01*
X156643557Y-30006534D01*
X156727222Y-29850009D01*
X156756552Y-29814271D01*
X156839814Y-29712814D01*
X156941271Y-29629552D01*
X156977009Y-29600222D01*
X157133534Y-29516557D01*
X157303373Y-29465037D01*
X157369558Y-29458518D01*
X157435740Y-29452000D01*
X157524260Y-29452000D01*
X157590442Y-29458518D01*
X157590442Y-29458518D01*
G37*
G36*
X160130442Y-29458518D02*
G01*
X160196627Y-29465037D01*
X160366466Y-29516557D01*
X160522991Y-29600222D01*
X160558729Y-29629552D01*
X160660186Y-29712814D01*
X160743448Y-29814271D01*
X160772778Y-29850009D01*
X160856443Y-30006534D01*
X160907963Y-30176373D01*
X160925359Y-30353000D01*
X160907963Y-30529627D01*
X160856443Y-30699466D01*
X160772778Y-30855991D01*
X160743448Y-30891729D01*
X160660186Y-30993186D01*
X160558729Y-31076448D01*
X160522991Y-31105778D01*
X160366466Y-31189443D01*
X160196627Y-31240963D01*
X160130442Y-31247482D01*
X160064260Y-31254000D01*
X159975740Y-31254000D01*
X159909558Y-31247482D01*
X159843373Y-31240963D01*
X159673534Y-31189443D01*
X159517009Y-31105778D01*
X159481271Y-31076448D01*
X159379814Y-30993186D01*
X159296552Y-30891729D01*
X159267222Y-30855991D01*
X159183557Y-30699466D01*
X159132037Y-30529627D01*
X159114641Y-30353000D01*
X159132037Y-30176373D01*
X159183557Y-30006534D01*
X159267222Y-29850009D01*
X159296552Y-29814271D01*
X159379814Y-29712814D01*
X159481271Y-29629552D01*
X159517009Y-29600222D01*
X159673534Y-29516557D01*
X159843373Y-29465037D01*
X159909558Y-29458518D01*
X159975740Y-29452000D01*
X160064260Y-29452000D01*
X160130442Y-29458518D01*
X160130442Y-29458518D01*
G37*
G36*
X149970442Y-29458518D02*
G01*
X150036627Y-29465037D01*
X150206466Y-29516557D01*
X150362991Y-29600222D01*
X150398729Y-29629552D01*
X150500186Y-29712814D01*
X150583448Y-29814271D01*
X150612778Y-29850009D01*
X150696443Y-30006534D01*
X150747963Y-30176373D01*
X150765359Y-30353000D01*
X150747963Y-30529627D01*
X150696443Y-30699466D01*
X150612778Y-30855991D01*
X150583448Y-30891729D01*
X150500186Y-30993186D01*
X150398729Y-31076448D01*
X150362991Y-31105778D01*
X150206466Y-31189443D01*
X150036627Y-31240963D01*
X149970442Y-31247482D01*
X149904260Y-31254000D01*
X149815740Y-31254000D01*
X149749558Y-31247482D01*
X149683373Y-31240963D01*
X149513534Y-31189443D01*
X149357009Y-31105778D01*
X149321271Y-31076448D01*
X149219814Y-30993186D01*
X149136552Y-30891729D01*
X149107222Y-30855991D01*
X149023557Y-30699466D01*
X148972037Y-30529627D01*
X148954641Y-30353000D01*
X148972037Y-30176373D01*
X149023557Y-30006534D01*
X149107222Y-29850009D01*
X149136552Y-29814271D01*
X149219814Y-29712814D01*
X149321271Y-29629552D01*
X149357009Y-29600222D01*
X149513534Y-29516557D01*
X149683373Y-29465037D01*
X149749558Y-29458518D01*
X149815740Y-29452000D01*
X149904260Y-29452000D01*
X149970442Y-29458518D01*
X149970442Y-29458518D01*
G37*
M02*
