M48
INCH,TZ
T1C0.0157
%
G90
G05
T1
X53200Y-13150
X53550Y-12500
X55675Y-13825
X57400Y-30400
X57500Y-17250
X57500Y-23450
X57675Y-26325
X57800Y-29150
X57850Y-25500
X58050Y-26550
X58150Y-59250
X58200Y-17250
X58200Y-29150
X58200Y-40950
X58200Y-44550
X58200Y-48150
X58200Y-51750
X58200Y-55350
X58550Y-16700
X58800Y-28550
X58900Y-24100
X58900Y-24950
X59850Y-40950
X59850Y-44550
X59850Y-48150
X59850Y-51750
X59850Y-55350
X60050Y-37300
X60200Y-24450
X60350Y-59400
X60350Y-60550
X60400Y-22400
X60400Y-41600
X60400Y-45200
X60400Y-48800
X60400Y-52400
X60400Y-56000
X60850Y-25500
X60850Y-36450
X61000Y-17200
X61200Y-30100
X61350Y-36900
X61400Y-17200
X61800Y-17200
X61800Y-21450
X61800Y-22000
X61850Y-37300
X61900Y-25000
X62050Y-23600
X62300Y-15400
X62650Y-31050
X63050Y-37700
T0
M30
