G04 #@! TF.GenerationSoftware,KiCad,Pcbnew,(5.1.0)-1*
G04 #@! TF.CreationDate,2019-07-29T16:37:05-07:00*
G04 #@! TF.ProjectId,Watch V4,57617463-6820-4563-942e-6b696361645f,rev?*
G04 #@! TF.SameCoordinates,Original*
G04 #@! TF.FileFunction,Paste,Top*
G04 #@! TF.FilePolarity,Positive*
%FSLAX46Y46*%
G04 Gerber Fmt 4.6, Leading zero omitted, Abs format (unit mm)*
G04 Created by KiCad (PCBNEW (5.1.0)-1) date 2019-07-29 16:37:05*
%MOMM*%
%LPD*%
G04 APERTURE LIST*
%ADD10O,1.700000X1.700000*%
%ADD11C,1.524000*%
%ADD12R,1.500000X1.000000*%
%ADD13R,0.650000X1.050000*%
%ADD14C,0.100000*%
%ADD15C,0.950000*%
%ADD16C,1.150000*%
%ADD17R,1.050000X0.650000*%
%ADD18R,1.200000X2.500000*%
%ADD19C,1.700000*%
G04 APERTURE END LIST*
D10*
X158686500Y-53530500D03*
X158686500Y-58610500D03*
X158686500Y-66230500D03*
X158686500Y-63690500D03*
X158686500Y-61150500D03*
X147320000Y-45593000D03*
X149860000Y-45593000D03*
X144780000Y-45593000D03*
X154940000Y-45593000D03*
X127000000Y-45593000D03*
X129540000Y-45593000D03*
X127000000Y-30353000D03*
X129540000Y-30353000D03*
X132080000Y-30353000D03*
X134620000Y-30353000D03*
X137160000Y-30353000D03*
X139700000Y-30353000D03*
X132080000Y-45593000D03*
X134620000Y-45593000D03*
X137160000Y-45593000D03*
X139700000Y-45593000D03*
X142240000Y-45593000D03*
X152400000Y-45593000D03*
X157480000Y-45593000D03*
X160020000Y-45593000D03*
X160020000Y-43053000D03*
X160020000Y-40513000D03*
X142240000Y-30353000D03*
X144780000Y-30353000D03*
X147320000Y-30353000D03*
X149860000Y-30353000D03*
X152400000Y-30353000D03*
X154940000Y-30353000D03*
X157480000Y-30353000D03*
X160020000Y-30353000D03*
X160020000Y-32893000D03*
X160020000Y-35433000D03*
X160020000Y-37973000D03*
D11*
X156210000Y-92075000D03*
D12*
X153506000Y-104064000D03*
X153506000Y-107264000D03*
X158406000Y-104064000D03*
X158406000Y-107264000D03*
D13*
X148718000Y-106852000D03*
X148718000Y-102702000D03*
X150868000Y-106852000D03*
X150868000Y-102702000D03*
D14*
G36*
X154474779Y-101761144D02*
G01*
X154497834Y-101764563D01*
X154520443Y-101770227D01*
X154542387Y-101778079D01*
X154563457Y-101788044D01*
X154583448Y-101800026D01*
X154602168Y-101813910D01*
X154619438Y-101829562D01*
X154635090Y-101846832D01*
X154648974Y-101865552D01*
X154660956Y-101885543D01*
X154670921Y-101906613D01*
X154678773Y-101928557D01*
X154684437Y-101951166D01*
X154687856Y-101974221D01*
X154689000Y-101997500D01*
X154689000Y-102472500D01*
X154687856Y-102495779D01*
X154684437Y-102518834D01*
X154678773Y-102541443D01*
X154670921Y-102563387D01*
X154660956Y-102584457D01*
X154648974Y-102604448D01*
X154635090Y-102623168D01*
X154619438Y-102640438D01*
X154602168Y-102656090D01*
X154583448Y-102669974D01*
X154563457Y-102681956D01*
X154542387Y-102691921D01*
X154520443Y-102699773D01*
X154497834Y-102705437D01*
X154474779Y-102708856D01*
X154451500Y-102710000D01*
X153876500Y-102710000D01*
X153853221Y-102708856D01*
X153830166Y-102705437D01*
X153807557Y-102699773D01*
X153785613Y-102691921D01*
X153764543Y-102681956D01*
X153744552Y-102669974D01*
X153725832Y-102656090D01*
X153708562Y-102640438D01*
X153692910Y-102623168D01*
X153679026Y-102604448D01*
X153667044Y-102584457D01*
X153657079Y-102563387D01*
X153649227Y-102541443D01*
X153643563Y-102518834D01*
X153640144Y-102495779D01*
X153639000Y-102472500D01*
X153639000Y-101997500D01*
X153640144Y-101974221D01*
X153643563Y-101951166D01*
X153649227Y-101928557D01*
X153657079Y-101906613D01*
X153667044Y-101885543D01*
X153679026Y-101865552D01*
X153692910Y-101846832D01*
X153708562Y-101829562D01*
X153725832Y-101813910D01*
X153744552Y-101800026D01*
X153764543Y-101788044D01*
X153785613Y-101778079D01*
X153807557Y-101770227D01*
X153830166Y-101764563D01*
X153853221Y-101761144D01*
X153876500Y-101760000D01*
X154451500Y-101760000D01*
X154474779Y-101761144D01*
X154474779Y-101761144D01*
G37*
D15*
X154164000Y-102235000D03*
D14*
G36*
X152724779Y-101761144D02*
G01*
X152747834Y-101764563D01*
X152770443Y-101770227D01*
X152792387Y-101778079D01*
X152813457Y-101788044D01*
X152833448Y-101800026D01*
X152852168Y-101813910D01*
X152869438Y-101829562D01*
X152885090Y-101846832D01*
X152898974Y-101865552D01*
X152910956Y-101885543D01*
X152920921Y-101906613D01*
X152928773Y-101928557D01*
X152934437Y-101951166D01*
X152937856Y-101974221D01*
X152939000Y-101997500D01*
X152939000Y-102472500D01*
X152937856Y-102495779D01*
X152934437Y-102518834D01*
X152928773Y-102541443D01*
X152920921Y-102563387D01*
X152910956Y-102584457D01*
X152898974Y-102604448D01*
X152885090Y-102623168D01*
X152869438Y-102640438D01*
X152852168Y-102656090D01*
X152833448Y-102669974D01*
X152813457Y-102681956D01*
X152792387Y-102691921D01*
X152770443Y-102699773D01*
X152747834Y-102705437D01*
X152724779Y-102708856D01*
X152701500Y-102710000D01*
X152126500Y-102710000D01*
X152103221Y-102708856D01*
X152080166Y-102705437D01*
X152057557Y-102699773D01*
X152035613Y-102691921D01*
X152014543Y-102681956D01*
X151994552Y-102669974D01*
X151975832Y-102656090D01*
X151958562Y-102640438D01*
X151942910Y-102623168D01*
X151929026Y-102604448D01*
X151917044Y-102584457D01*
X151907079Y-102563387D01*
X151899227Y-102541443D01*
X151893563Y-102518834D01*
X151890144Y-102495779D01*
X151889000Y-102472500D01*
X151889000Y-101997500D01*
X151890144Y-101974221D01*
X151893563Y-101951166D01*
X151899227Y-101928557D01*
X151907079Y-101906613D01*
X151917044Y-101885543D01*
X151929026Y-101865552D01*
X151942910Y-101846832D01*
X151958562Y-101829562D01*
X151975832Y-101813910D01*
X151994552Y-101800026D01*
X152014543Y-101788044D01*
X152035613Y-101778079D01*
X152057557Y-101770227D01*
X152080166Y-101764563D01*
X152103221Y-101761144D01*
X152126500Y-101760000D01*
X152701500Y-101760000D01*
X152724779Y-101761144D01*
X152724779Y-101761144D01*
G37*
D15*
X152414000Y-102235000D03*
D14*
G36*
X158981505Y-101409204D02*
G01*
X159005773Y-101412804D01*
X159029572Y-101418765D01*
X159052671Y-101427030D01*
X159074850Y-101437520D01*
X159095893Y-101450132D01*
X159115599Y-101464747D01*
X159133777Y-101481223D01*
X159150253Y-101499401D01*
X159164868Y-101519107D01*
X159177480Y-101540150D01*
X159187970Y-101562329D01*
X159196235Y-101585428D01*
X159202196Y-101609227D01*
X159205796Y-101633495D01*
X159207000Y-101657999D01*
X159207000Y-102558001D01*
X159205796Y-102582505D01*
X159202196Y-102606773D01*
X159196235Y-102630572D01*
X159187970Y-102653671D01*
X159177480Y-102675850D01*
X159164868Y-102696893D01*
X159150253Y-102716599D01*
X159133777Y-102734777D01*
X159115599Y-102751253D01*
X159095893Y-102765868D01*
X159074850Y-102778480D01*
X159052671Y-102788970D01*
X159029572Y-102797235D01*
X159005773Y-102803196D01*
X158981505Y-102806796D01*
X158957001Y-102808000D01*
X158306999Y-102808000D01*
X158282495Y-102806796D01*
X158258227Y-102803196D01*
X158234428Y-102797235D01*
X158211329Y-102788970D01*
X158189150Y-102778480D01*
X158168107Y-102765868D01*
X158148401Y-102751253D01*
X158130223Y-102734777D01*
X158113747Y-102716599D01*
X158099132Y-102696893D01*
X158086520Y-102675850D01*
X158076030Y-102653671D01*
X158067765Y-102630572D01*
X158061804Y-102606773D01*
X158058204Y-102582505D01*
X158057000Y-102558001D01*
X158057000Y-101657999D01*
X158058204Y-101633495D01*
X158061804Y-101609227D01*
X158067765Y-101585428D01*
X158076030Y-101562329D01*
X158086520Y-101540150D01*
X158099132Y-101519107D01*
X158113747Y-101499401D01*
X158130223Y-101481223D01*
X158148401Y-101464747D01*
X158168107Y-101450132D01*
X158189150Y-101437520D01*
X158211329Y-101427030D01*
X158234428Y-101418765D01*
X158258227Y-101412804D01*
X158282495Y-101409204D01*
X158306999Y-101408000D01*
X158957001Y-101408000D01*
X158981505Y-101409204D01*
X158981505Y-101409204D01*
G37*
D16*
X158632000Y-102108000D03*
D14*
G36*
X156931505Y-101409204D02*
G01*
X156955773Y-101412804D01*
X156979572Y-101418765D01*
X157002671Y-101427030D01*
X157024850Y-101437520D01*
X157045893Y-101450132D01*
X157065599Y-101464747D01*
X157083777Y-101481223D01*
X157100253Y-101499401D01*
X157114868Y-101519107D01*
X157127480Y-101540150D01*
X157137970Y-101562329D01*
X157146235Y-101585428D01*
X157152196Y-101609227D01*
X157155796Y-101633495D01*
X157157000Y-101657999D01*
X157157000Y-102558001D01*
X157155796Y-102582505D01*
X157152196Y-102606773D01*
X157146235Y-102630572D01*
X157137970Y-102653671D01*
X157127480Y-102675850D01*
X157114868Y-102696893D01*
X157100253Y-102716599D01*
X157083777Y-102734777D01*
X157065599Y-102751253D01*
X157045893Y-102765868D01*
X157024850Y-102778480D01*
X157002671Y-102788970D01*
X156979572Y-102797235D01*
X156955773Y-102803196D01*
X156931505Y-102806796D01*
X156907001Y-102808000D01*
X156256999Y-102808000D01*
X156232495Y-102806796D01*
X156208227Y-102803196D01*
X156184428Y-102797235D01*
X156161329Y-102788970D01*
X156139150Y-102778480D01*
X156118107Y-102765868D01*
X156098401Y-102751253D01*
X156080223Y-102734777D01*
X156063747Y-102716599D01*
X156049132Y-102696893D01*
X156036520Y-102675850D01*
X156026030Y-102653671D01*
X156017765Y-102630572D01*
X156011804Y-102606773D01*
X156008204Y-102582505D01*
X156007000Y-102558001D01*
X156007000Y-101657999D01*
X156008204Y-101633495D01*
X156011804Y-101609227D01*
X156017765Y-101585428D01*
X156026030Y-101562329D01*
X156036520Y-101540150D01*
X156049132Y-101519107D01*
X156063747Y-101499401D01*
X156080223Y-101481223D01*
X156098401Y-101464747D01*
X156118107Y-101450132D01*
X156139150Y-101437520D01*
X156161329Y-101427030D01*
X156184428Y-101418765D01*
X156208227Y-101412804D01*
X156232495Y-101409204D01*
X156256999Y-101408000D01*
X156907001Y-101408000D01*
X156931505Y-101409204D01*
X156931505Y-101409204D01*
G37*
D16*
X156582000Y-102108000D03*
D12*
X153506000Y-113208000D03*
X153506000Y-116408000D03*
X158406000Y-113208000D03*
X158406000Y-116408000D03*
D13*
X148718000Y-115996000D03*
X148718000Y-111846000D03*
X150868000Y-115996000D03*
X150868000Y-111846000D03*
D14*
G36*
X154474779Y-110905144D02*
G01*
X154497834Y-110908563D01*
X154520443Y-110914227D01*
X154542387Y-110922079D01*
X154563457Y-110932044D01*
X154583448Y-110944026D01*
X154602168Y-110957910D01*
X154619438Y-110973562D01*
X154635090Y-110990832D01*
X154648974Y-111009552D01*
X154660956Y-111029543D01*
X154670921Y-111050613D01*
X154678773Y-111072557D01*
X154684437Y-111095166D01*
X154687856Y-111118221D01*
X154689000Y-111141500D01*
X154689000Y-111616500D01*
X154687856Y-111639779D01*
X154684437Y-111662834D01*
X154678773Y-111685443D01*
X154670921Y-111707387D01*
X154660956Y-111728457D01*
X154648974Y-111748448D01*
X154635090Y-111767168D01*
X154619438Y-111784438D01*
X154602168Y-111800090D01*
X154583448Y-111813974D01*
X154563457Y-111825956D01*
X154542387Y-111835921D01*
X154520443Y-111843773D01*
X154497834Y-111849437D01*
X154474779Y-111852856D01*
X154451500Y-111854000D01*
X153876500Y-111854000D01*
X153853221Y-111852856D01*
X153830166Y-111849437D01*
X153807557Y-111843773D01*
X153785613Y-111835921D01*
X153764543Y-111825956D01*
X153744552Y-111813974D01*
X153725832Y-111800090D01*
X153708562Y-111784438D01*
X153692910Y-111767168D01*
X153679026Y-111748448D01*
X153667044Y-111728457D01*
X153657079Y-111707387D01*
X153649227Y-111685443D01*
X153643563Y-111662834D01*
X153640144Y-111639779D01*
X153639000Y-111616500D01*
X153639000Y-111141500D01*
X153640144Y-111118221D01*
X153643563Y-111095166D01*
X153649227Y-111072557D01*
X153657079Y-111050613D01*
X153667044Y-111029543D01*
X153679026Y-111009552D01*
X153692910Y-110990832D01*
X153708562Y-110973562D01*
X153725832Y-110957910D01*
X153744552Y-110944026D01*
X153764543Y-110932044D01*
X153785613Y-110922079D01*
X153807557Y-110914227D01*
X153830166Y-110908563D01*
X153853221Y-110905144D01*
X153876500Y-110904000D01*
X154451500Y-110904000D01*
X154474779Y-110905144D01*
X154474779Y-110905144D01*
G37*
D15*
X154164000Y-111379000D03*
D14*
G36*
X152724779Y-110905144D02*
G01*
X152747834Y-110908563D01*
X152770443Y-110914227D01*
X152792387Y-110922079D01*
X152813457Y-110932044D01*
X152833448Y-110944026D01*
X152852168Y-110957910D01*
X152869438Y-110973562D01*
X152885090Y-110990832D01*
X152898974Y-111009552D01*
X152910956Y-111029543D01*
X152920921Y-111050613D01*
X152928773Y-111072557D01*
X152934437Y-111095166D01*
X152937856Y-111118221D01*
X152939000Y-111141500D01*
X152939000Y-111616500D01*
X152937856Y-111639779D01*
X152934437Y-111662834D01*
X152928773Y-111685443D01*
X152920921Y-111707387D01*
X152910956Y-111728457D01*
X152898974Y-111748448D01*
X152885090Y-111767168D01*
X152869438Y-111784438D01*
X152852168Y-111800090D01*
X152833448Y-111813974D01*
X152813457Y-111825956D01*
X152792387Y-111835921D01*
X152770443Y-111843773D01*
X152747834Y-111849437D01*
X152724779Y-111852856D01*
X152701500Y-111854000D01*
X152126500Y-111854000D01*
X152103221Y-111852856D01*
X152080166Y-111849437D01*
X152057557Y-111843773D01*
X152035613Y-111835921D01*
X152014543Y-111825956D01*
X151994552Y-111813974D01*
X151975832Y-111800090D01*
X151958562Y-111784438D01*
X151942910Y-111767168D01*
X151929026Y-111748448D01*
X151917044Y-111728457D01*
X151907079Y-111707387D01*
X151899227Y-111685443D01*
X151893563Y-111662834D01*
X151890144Y-111639779D01*
X151889000Y-111616500D01*
X151889000Y-111141500D01*
X151890144Y-111118221D01*
X151893563Y-111095166D01*
X151899227Y-111072557D01*
X151907079Y-111050613D01*
X151917044Y-111029543D01*
X151929026Y-111009552D01*
X151942910Y-110990832D01*
X151958562Y-110973562D01*
X151975832Y-110957910D01*
X151994552Y-110944026D01*
X152014543Y-110932044D01*
X152035613Y-110922079D01*
X152057557Y-110914227D01*
X152080166Y-110908563D01*
X152103221Y-110905144D01*
X152126500Y-110904000D01*
X152701500Y-110904000D01*
X152724779Y-110905144D01*
X152724779Y-110905144D01*
G37*
D15*
X152414000Y-111379000D03*
D14*
G36*
X158981505Y-110553204D02*
G01*
X159005773Y-110556804D01*
X159029572Y-110562765D01*
X159052671Y-110571030D01*
X159074850Y-110581520D01*
X159095893Y-110594132D01*
X159115599Y-110608747D01*
X159133777Y-110625223D01*
X159150253Y-110643401D01*
X159164868Y-110663107D01*
X159177480Y-110684150D01*
X159187970Y-110706329D01*
X159196235Y-110729428D01*
X159202196Y-110753227D01*
X159205796Y-110777495D01*
X159207000Y-110801999D01*
X159207000Y-111702001D01*
X159205796Y-111726505D01*
X159202196Y-111750773D01*
X159196235Y-111774572D01*
X159187970Y-111797671D01*
X159177480Y-111819850D01*
X159164868Y-111840893D01*
X159150253Y-111860599D01*
X159133777Y-111878777D01*
X159115599Y-111895253D01*
X159095893Y-111909868D01*
X159074850Y-111922480D01*
X159052671Y-111932970D01*
X159029572Y-111941235D01*
X159005773Y-111947196D01*
X158981505Y-111950796D01*
X158957001Y-111952000D01*
X158306999Y-111952000D01*
X158282495Y-111950796D01*
X158258227Y-111947196D01*
X158234428Y-111941235D01*
X158211329Y-111932970D01*
X158189150Y-111922480D01*
X158168107Y-111909868D01*
X158148401Y-111895253D01*
X158130223Y-111878777D01*
X158113747Y-111860599D01*
X158099132Y-111840893D01*
X158086520Y-111819850D01*
X158076030Y-111797671D01*
X158067765Y-111774572D01*
X158061804Y-111750773D01*
X158058204Y-111726505D01*
X158057000Y-111702001D01*
X158057000Y-110801999D01*
X158058204Y-110777495D01*
X158061804Y-110753227D01*
X158067765Y-110729428D01*
X158076030Y-110706329D01*
X158086520Y-110684150D01*
X158099132Y-110663107D01*
X158113747Y-110643401D01*
X158130223Y-110625223D01*
X158148401Y-110608747D01*
X158168107Y-110594132D01*
X158189150Y-110581520D01*
X158211329Y-110571030D01*
X158234428Y-110562765D01*
X158258227Y-110556804D01*
X158282495Y-110553204D01*
X158306999Y-110552000D01*
X158957001Y-110552000D01*
X158981505Y-110553204D01*
X158981505Y-110553204D01*
G37*
D16*
X158632000Y-111252000D03*
D14*
G36*
X156931505Y-110553204D02*
G01*
X156955773Y-110556804D01*
X156979572Y-110562765D01*
X157002671Y-110571030D01*
X157024850Y-110581520D01*
X157045893Y-110594132D01*
X157065599Y-110608747D01*
X157083777Y-110625223D01*
X157100253Y-110643401D01*
X157114868Y-110663107D01*
X157127480Y-110684150D01*
X157137970Y-110706329D01*
X157146235Y-110729428D01*
X157152196Y-110753227D01*
X157155796Y-110777495D01*
X157157000Y-110801999D01*
X157157000Y-111702001D01*
X157155796Y-111726505D01*
X157152196Y-111750773D01*
X157146235Y-111774572D01*
X157137970Y-111797671D01*
X157127480Y-111819850D01*
X157114868Y-111840893D01*
X157100253Y-111860599D01*
X157083777Y-111878777D01*
X157065599Y-111895253D01*
X157045893Y-111909868D01*
X157024850Y-111922480D01*
X157002671Y-111932970D01*
X156979572Y-111941235D01*
X156955773Y-111947196D01*
X156931505Y-111950796D01*
X156907001Y-111952000D01*
X156256999Y-111952000D01*
X156232495Y-111950796D01*
X156208227Y-111947196D01*
X156184428Y-111941235D01*
X156161329Y-111932970D01*
X156139150Y-111922480D01*
X156118107Y-111909868D01*
X156098401Y-111895253D01*
X156080223Y-111878777D01*
X156063747Y-111860599D01*
X156049132Y-111840893D01*
X156036520Y-111819850D01*
X156026030Y-111797671D01*
X156017765Y-111774572D01*
X156011804Y-111750773D01*
X156008204Y-111726505D01*
X156007000Y-111702001D01*
X156007000Y-110801999D01*
X156008204Y-110777495D01*
X156011804Y-110753227D01*
X156017765Y-110729428D01*
X156026030Y-110706329D01*
X156036520Y-110684150D01*
X156049132Y-110663107D01*
X156063747Y-110643401D01*
X156080223Y-110625223D01*
X156098401Y-110608747D01*
X156118107Y-110594132D01*
X156139150Y-110581520D01*
X156161329Y-110571030D01*
X156184428Y-110562765D01*
X156208227Y-110556804D01*
X156232495Y-110553204D01*
X156256999Y-110552000D01*
X156907001Y-110552000D01*
X156931505Y-110553204D01*
X156931505Y-110553204D01*
G37*
D16*
X156582000Y-111252000D03*
D12*
X153506000Y-122352000D03*
X153506000Y-125552000D03*
X158406000Y-122352000D03*
X158406000Y-125552000D03*
D13*
X148718000Y-125140000D03*
X148718000Y-120990000D03*
X150868000Y-125140000D03*
X150868000Y-120990000D03*
D14*
G36*
X154474779Y-120049144D02*
G01*
X154497834Y-120052563D01*
X154520443Y-120058227D01*
X154542387Y-120066079D01*
X154563457Y-120076044D01*
X154583448Y-120088026D01*
X154602168Y-120101910D01*
X154619438Y-120117562D01*
X154635090Y-120134832D01*
X154648974Y-120153552D01*
X154660956Y-120173543D01*
X154670921Y-120194613D01*
X154678773Y-120216557D01*
X154684437Y-120239166D01*
X154687856Y-120262221D01*
X154689000Y-120285500D01*
X154689000Y-120760500D01*
X154687856Y-120783779D01*
X154684437Y-120806834D01*
X154678773Y-120829443D01*
X154670921Y-120851387D01*
X154660956Y-120872457D01*
X154648974Y-120892448D01*
X154635090Y-120911168D01*
X154619438Y-120928438D01*
X154602168Y-120944090D01*
X154583448Y-120957974D01*
X154563457Y-120969956D01*
X154542387Y-120979921D01*
X154520443Y-120987773D01*
X154497834Y-120993437D01*
X154474779Y-120996856D01*
X154451500Y-120998000D01*
X153876500Y-120998000D01*
X153853221Y-120996856D01*
X153830166Y-120993437D01*
X153807557Y-120987773D01*
X153785613Y-120979921D01*
X153764543Y-120969956D01*
X153744552Y-120957974D01*
X153725832Y-120944090D01*
X153708562Y-120928438D01*
X153692910Y-120911168D01*
X153679026Y-120892448D01*
X153667044Y-120872457D01*
X153657079Y-120851387D01*
X153649227Y-120829443D01*
X153643563Y-120806834D01*
X153640144Y-120783779D01*
X153639000Y-120760500D01*
X153639000Y-120285500D01*
X153640144Y-120262221D01*
X153643563Y-120239166D01*
X153649227Y-120216557D01*
X153657079Y-120194613D01*
X153667044Y-120173543D01*
X153679026Y-120153552D01*
X153692910Y-120134832D01*
X153708562Y-120117562D01*
X153725832Y-120101910D01*
X153744552Y-120088026D01*
X153764543Y-120076044D01*
X153785613Y-120066079D01*
X153807557Y-120058227D01*
X153830166Y-120052563D01*
X153853221Y-120049144D01*
X153876500Y-120048000D01*
X154451500Y-120048000D01*
X154474779Y-120049144D01*
X154474779Y-120049144D01*
G37*
D15*
X154164000Y-120523000D03*
D14*
G36*
X152724779Y-120049144D02*
G01*
X152747834Y-120052563D01*
X152770443Y-120058227D01*
X152792387Y-120066079D01*
X152813457Y-120076044D01*
X152833448Y-120088026D01*
X152852168Y-120101910D01*
X152869438Y-120117562D01*
X152885090Y-120134832D01*
X152898974Y-120153552D01*
X152910956Y-120173543D01*
X152920921Y-120194613D01*
X152928773Y-120216557D01*
X152934437Y-120239166D01*
X152937856Y-120262221D01*
X152939000Y-120285500D01*
X152939000Y-120760500D01*
X152937856Y-120783779D01*
X152934437Y-120806834D01*
X152928773Y-120829443D01*
X152920921Y-120851387D01*
X152910956Y-120872457D01*
X152898974Y-120892448D01*
X152885090Y-120911168D01*
X152869438Y-120928438D01*
X152852168Y-120944090D01*
X152833448Y-120957974D01*
X152813457Y-120969956D01*
X152792387Y-120979921D01*
X152770443Y-120987773D01*
X152747834Y-120993437D01*
X152724779Y-120996856D01*
X152701500Y-120998000D01*
X152126500Y-120998000D01*
X152103221Y-120996856D01*
X152080166Y-120993437D01*
X152057557Y-120987773D01*
X152035613Y-120979921D01*
X152014543Y-120969956D01*
X151994552Y-120957974D01*
X151975832Y-120944090D01*
X151958562Y-120928438D01*
X151942910Y-120911168D01*
X151929026Y-120892448D01*
X151917044Y-120872457D01*
X151907079Y-120851387D01*
X151899227Y-120829443D01*
X151893563Y-120806834D01*
X151890144Y-120783779D01*
X151889000Y-120760500D01*
X151889000Y-120285500D01*
X151890144Y-120262221D01*
X151893563Y-120239166D01*
X151899227Y-120216557D01*
X151907079Y-120194613D01*
X151917044Y-120173543D01*
X151929026Y-120153552D01*
X151942910Y-120134832D01*
X151958562Y-120117562D01*
X151975832Y-120101910D01*
X151994552Y-120088026D01*
X152014543Y-120076044D01*
X152035613Y-120066079D01*
X152057557Y-120058227D01*
X152080166Y-120052563D01*
X152103221Y-120049144D01*
X152126500Y-120048000D01*
X152701500Y-120048000D01*
X152724779Y-120049144D01*
X152724779Y-120049144D01*
G37*
D15*
X152414000Y-120523000D03*
D14*
G36*
X158981505Y-119697204D02*
G01*
X159005773Y-119700804D01*
X159029572Y-119706765D01*
X159052671Y-119715030D01*
X159074850Y-119725520D01*
X159095893Y-119738132D01*
X159115599Y-119752747D01*
X159133777Y-119769223D01*
X159150253Y-119787401D01*
X159164868Y-119807107D01*
X159177480Y-119828150D01*
X159187970Y-119850329D01*
X159196235Y-119873428D01*
X159202196Y-119897227D01*
X159205796Y-119921495D01*
X159207000Y-119945999D01*
X159207000Y-120846001D01*
X159205796Y-120870505D01*
X159202196Y-120894773D01*
X159196235Y-120918572D01*
X159187970Y-120941671D01*
X159177480Y-120963850D01*
X159164868Y-120984893D01*
X159150253Y-121004599D01*
X159133777Y-121022777D01*
X159115599Y-121039253D01*
X159095893Y-121053868D01*
X159074850Y-121066480D01*
X159052671Y-121076970D01*
X159029572Y-121085235D01*
X159005773Y-121091196D01*
X158981505Y-121094796D01*
X158957001Y-121096000D01*
X158306999Y-121096000D01*
X158282495Y-121094796D01*
X158258227Y-121091196D01*
X158234428Y-121085235D01*
X158211329Y-121076970D01*
X158189150Y-121066480D01*
X158168107Y-121053868D01*
X158148401Y-121039253D01*
X158130223Y-121022777D01*
X158113747Y-121004599D01*
X158099132Y-120984893D01*
X158086520Y-120963850D01*
X158076030Y-120941671D01*
X158067765Y-120918572D01*
X158061804Y-120894773D01*
X158058204Y-120870505D01*
X158057000Y-120846001D01*
X158057000Y-119945999D01*
X158058204Y-119921495D01*
X158061804Y-119897227D01*
X158067765Y-119873428D01*
X158076030Y-119850329D01*
X158086520Y-119828150D01*
X158099132Y-119807107D01*
X158113747Y-119787401D01*
X158130223Y-119769223D01*
X158148401Y-119752747D01*
X158168107Y-119738132D01*
X158189150Y-119725520D01*
X158211329Y-119715030D01*
X158234428Y-119706765D01*
X158258227Y-119700804D01*
X158282495Y-119697204D01*
X158306999Y-119696000D01*
X158957001Y-119696000D01*
X158981505Y-119697204D01*
X158981505Y-119697204D01*
G37*
D16*
X158632000Y-120396000D03*
D14*
G36*
X156931505Y-119697204D02*
G01*
X156955773Y-119700804D01*
X156979572Y-119706765D01*
X157002671Y-119715030D01*
X157024850Y-119725520D01*
X157045893Y-119738132D01*
X157065599Y-119752747D01*
X157083777Y-119769223D01*
X157100253Y-119787401D01*
X157114868Y-119807107D01*
X157127480Y-119828150D01*
X157137970Y-119850329D01*
X157146235Y-119873428D01*
X157152196Y-119897227D01*
X157155796Y-119921495D01*
X157157000Y-119945999D01*
X157157000Y-120846001D01*
X157155796Y-120870505D01*
X157152196Y-120894773D01*
X157146235Y-120918572D01*
X157137970Y-120941671D01*
X157127480Y-120963850D01*
X157114868Y-120984893D01*
X157100253Y-121004599D01*
X157083777Y-121022777D01*
X157065599Y-121039253D01*
X157045893Y-121053868D01*
X157024850Y-121066480D01*
X157002671Y-121076970D01*
X156979572Y-121085235D01*
X156955773Y-121091196D01*
X156931505Y-121094796D01*
X156907001Y-121096000D01*
X156256999Y-121096000D01*
X156232495Y-121094796D01*
X156208227Y-121091196D01*
X156184428Y-121085235D01*
X156161329Y-121076970D01*
X156139150Y-121066480D01*
X156118107Y-121053868D01*
X156098401Y-121039253D01*
X156080223Y-121022777D01*
X156063747Y-121004599D01*
X156049132Y-120984893D01*
X156036520Y-120963850D01*
X156026030Y-120941671D01*
X156017765Y-120918572D01*
X156011804Y-120894773D01*
X156008204Y-120870505D01*
X156007000Y-120846001D01*
X156007000Y-119945999D01*
X156008204Y-119921495D01*
X156011804Y-119897227D01*
X156017765Y-119873428D01*
X156026030Y-119850329D01*
X156036520Y-119828150D01*
X156049132Y-119807107D01*
X156063747Y-119787401D01*
X156080223Y-119769223D01*
X156098401Y-119752747D01*
X156118107Y-119738132D01*
X156139150Y-119725520D01*
X156161329Y-119715030D01*
X156184428Y-119706765D01*
X156208227Y-119700804D01*
X156232495Y-119697204D01*
X156256999Y-119696000D01*
X156907001Y-119696000D01*
X156931505Y-119697204D01*
X156931505Y-119697204D01*
G37*
D16*
X156582000Y-120396000D03*
D12*
X153506000Y-131496000D03*
X153506000Y-134696000D03*
X158406000Y-131496000D03*
X158406000Y-134696000D03*
D13*
X148718000Y-134284000D03*
X148718000Y-130134000D03*
X150868000Y-134284000D03*
X150868000Y-130134000D03*
D14*
G36*
X154474779Y-129193144D02*
G01*
X154497834Y-129196563D01*
X154520443Y-129202227D01*
X154542387Y-129210079D01*
X154563457Y-129220044D01*
X154583448Y-129232026D01*
X154602168Y-129245910D01*
X154619438Y-129261562D01*
X154635090Y-129278832D01*
X154648974Y-129297552D01*
X154660956Y-129317543D01*
X154670921Y-129338613D01*
X154678773Y-129360557D01*
X154684437Y-129383166D01*
X154687856Y-129406221D01*
X154689000Y-129429500D01*
X154689000Y-129904500D01*
X154687856Y-129927779D01*
X154684437Y-129950834D01*
X154678773Y-129973443D01*
X154670921Y-129995387D01*
X154660956Y-130016457D01*
X154648974Y-130036448D01*
X154635090Y-130055168D01*
X154619438Y-130072438D01*
X154602168Y-130088090D01*
X154583448Y-130101974D01*
X154563457Y-130113956D01*
X154542387Y-130123921D01*
X154520443Y-130131773D01*
X154497834Y-130137437D01*
X154474779Y-130140856D01*
X154451500Y-130142000D01*
X153876500Y-130142000D01*
X153853221Y-130140856D01*
X153830166Y-130137437D01*
X153807557Y-130131773D01*
X153785613Y-130123921D01*
X153764543Y-130113956D01*
X153744552Y-130101974D01*
X153725832Y-130088090D01*
X153708562Y-130072438D01*
X153692910Y-130055168D01*
X153679026Y-130036448D01*
X153667044Y-130016457D01*
X153657079Y-129995387D01*
X153649227Y-129973443D01*
X153643563Y-129950834D01*
X153640144Y-129927779D01*
X153639000Y-129904500D01*
X153639000Y-129429500D01*
X153640144Y-129406221D01*
X153643563Y-129383166D01*
X153649227Y-129360557D01*
X153657079Y-129338613D01*
X153667044Y-129317543D01*
X153679026Y-129297552D01*
X153692910Y-129278832D01*
X153708562Y-129261562D01*
X153725832Y-129245910D01*
X153744552Y-129232026D01*
X153764543Y-129220044D01*
X153785613Y-129210079D01*
X153807557Y-129202227D01*
X153830166Y-129196563D01*
X153853221Y-129193144D01*
X153876500Y-129192000D01*
X154451500Y-129192000D01*
X154474779Y-129193144D01*
X154474779Y-129193144D01*
G37*
D15*
X154164000Y-129667000D03*
D14*
G36*
X152724779Y-129193144D02*
G01*
X152747834Y-129196563D01*
X152770443Y-129202227D01*
X152792387Y-129210079D01*
X152813457Y-129220044D01*
X152833448Y-129232026D01*
X152852168Y-129245910D01*
X152869438Y-129261562D01*
X152885090Y-129278832D01*
X152898974Y-129297552D01*
X152910956Y-129317543D01*
X152920921Y-129338613D01*
X152928773Y-129360557D01*
X152934437Y-129383166D01*
X152937856Y-129406221D01*
X152939000Y-129429500D01*
X152939000Y-129904500D01*
X152937856Y-129927779D01*
X152934437Y-129950834D01*
X152928773Y-129973443D01*
X152920921Y-129995387D01*
X152910956Y-130016457D01*
X152898974Y-130036448D01*
X152885090Y-130055168D01*
X152869438Y-130072438D01*
X152852168Y-130088090D01*
X152833448Y-130101974D01*
X152813457Y-130113956D01*
X152792387Y-130123921D01*
X152770443Y-130131773D01*
X152747834Y-130137437D01*
X152724779Y-130140856D01*
X152701500Y-130142000D01*
X152126500Y-130142000D01*
X152103221Y-130140856D01*
X152080166Y-130137437D01*
X152057557Y-130131773D01*
X152035613Y-130123921D01*
X152014543Y-130113956D01*
X151994552Y-130101974D01*
X151975832Y-130088090D01*
X151958562Y-130072438D01*
X151942910Y-130055168D01*
X151929026Y-130036448D01*
X151917044Y-130016457D01*
X151907079Y-129995387D01*
X151899227Y-129973443D01*
X151893563Y-129950834D01*
X151890144Y-129927779D01*
X151889000Y-129904500D01*
X151889000Y-129429500D01*
X151890144Y-129406221D01*
X151893563Y-129383166D01*
X151899227Y-129360557D01*
X151907079Y-129338613D01*
X151917044Y-129317543D01*
X151929026Y-129297552D01*
X151942910Y-129278832D01*
X151958562Y-129261562D01*
X151975832Y-129245910D01*
X151994552Y-129232026D01*
X152014543Y-129220044D01*
X152035613Y-129210079D01*
X152057557Y-129202227D01*
X152080166Y-129196563D01*
X152103221Y-129193144D01*
X152126500Y-129192000D01*
X152701500Y-129192000D01*
X152724779Y-129193144D01*
X152724779Y-129193144D01*
G37*
D15*
X152414000Y-129667000D03*
D14*
G36*
X158981505Y-128841204D02*
G01*
X159005773Y-128844804D01*
X159029572Y-128850765D01*
X159052671Y-128859030D01*
X159074850Y-128869520D01*
X159095893Y-128882132D01*
X159115599Y-128896747D01*
X159133777Y-128913223D01*
X159150253Y-128931401D01*
X159164868Y-128951107D01*
X159177480Y-128972150D01*
X159187970Y-128994329D01*
X159196235Y-129017428D01*
X159202196Y-129041227D01*
X159205796Y-129065495D01*
X159207000Y-129089999D01*
X159207000Y-129990001D01*
X159205796Y-130014505D01*
X159202196Y-130038773D01*
X159196235Y-130062572D01*
X159187970Y-130085671D01*
X159177480Y-130107850D01*
X159164868Y-130128893D01*
X159150253Y-130148599D01*
X159133777Y-130166777D01*
X159115599Y-130183253D01*
X159095893Y-130197868D01*
X159074850Y-130210480D01*
X159052671Y-130220970D01*
X159029572Y-130229235D01*
X159005773Y-130235196D01*
X158981505Y-130238796D01*
X158957001Y-130240000D01*
X158306999Y-130240000D01*
X158282495Y-130238796D01*
X158258227Y-130235196D01*
X158234428Y-130229235D01*
X158211329Y-130220970D01*
X158189150Y-130210480D01*
X158168107Y-130197868D01*
X158148401Y-130183253D01*
X158130223Y-130166777D01*
X158113747Y-130148599D01*
X158099132Y-130128893D01*
X158086520Y-130107850D01*
X158076030Y-130085671D01*
X158067765Y-130062572D01*
X158061804Y-130038773D01*
X158058204Y-130014505D01*
X158057000Y-129990001D01*
X158057000Y-129089999D01*
X158058204Y-129065495D01*
X158061804Y-129041227D01*
X158067765Y-129017428D01*
X158076030Y-128994329D01*
X158086520Y-128972150D01*
X158099132Y-128951107D01*
X158113747Y-128931401D01*
X158130223Y-128913223D01*
X158148401Y-128896747D01*
X158168107Y-128882132D01*
X158189150Y-128869520D01*
X158211329Y-128859030D01*
X158234428Y-128850765D01*
X158258227Y-128844804D01*
X158282495Y-128841204D01*
X158306999Y-128840000D01*
X158957001Y-128840000D01*
X158981505Y-128841204D01*
X158981505Y-128841204D01*
G37*
D16*
X158632000Y-129540000D03*
D14*
G36*
X156931505Y-128841204D02*
G01*
X156955773Y-128844804D01*
X156979572Y-128850765D01*
X157002671Y-128859030D01*
X157024850Y-128869520D01*
X157045893Y-128882132D01*
X157065599Y-128896747D01*
X157083777Y-128913223D01*
X157100253Y-128931401D01*
X157114868Y-128951107D01*
X157127480Y-128972150D01*
X157137970Y-128994329D01*
X157146235Y-129017428D01*
X157152196Y-129041227D01*
X157155796Y-129065495D01*
X157157000Y-129089999D01*
X157157000Y-129990001D01*
X157155796Y-130014505D01*
X157152196Y-130038773D01*
X157146235Y-130062572D01*
X157137970Y-130085671D01*
X157127480Y-130107850D01*
X157114868Y-130128893D01*
X157100253Y-130148599D01*
X157083777Y-130166777D01*
X157065599Y-130183253D01*
X157045893Y-130197868D01*
X157024850Y-130210480D01*
X157002671Y-130220970D01*
X156979572Y-130229235D01*
X156955773Y-130235196D01*
X156931505Y-130238796D01*
X156907001Y-130240000D01*
X156256999Y-130240000D01*
X156232495Y-130238796D01*
X156208227Y-130235196D01*
X156184428Y-130229235D01*
X156161329Y-130220970D01*
X156139150Y-130210480D01*
X156118107Y-130197868D01*
X156098401Y-130183253D01*
X156080223Y-130166777D01*
X156063747Y-130148599D01*
X156049132Y-130128893D01*
X156036520Y-130107850D01*
X156026030Y-130085671D01*
X156017765Y-130062572D01*
X156011804Y-130038773D01*
X156008204Y-130014505D01*
X156007000Y-129990001D01*
X156007000Y-129089999D01*
X156008204Y-129065495D01*
X156011804Y-129041227D01*
X156017765Y-129017428D01*
X156026030Y-128994329D01*
X156036520Y-128972150D01*
X156049132Y-128951107D01*
X156063747Y-128931401D01*
X156080223Y-128913223D01*
X156098401Y-128896747D01*
X156118107Y-128882132D01*
X156139150Y-128869520D01*
X156161329Y-128859030D01*
X156184428Y-128850765D01*
X156208227Y-128844804D01*
X156232495Y-128841204D01*
X156256999Y-128840000D01*
X156907001Y-128840000D01*
X156931505Y-128841204D01*
X156931505Y-128841204D01*
G37*
D16*
X156582000Y-129540000D03*
D14*
G36*
X159391779Y-76678144D02*
G01*
X159414834Y-76681563D01*
X159437443Y-76687227D01*
X159459387Y-76695079D01*
X159480457Y-76705044D01*
X159500448Y-76717026D01*
X159519168Y-76730910D01*
X159536438Y-76746562D01*
X159552090Y-76763832D01*
X159565974Y-76782552D01*
X159577956Y-76802543D01*
X159587921Y-76823613D01*
X159595773Y-76845557D01*
X159601437Y-76868166D01*
X159604856Y-76891221D01*
X159606000Y-76914500D01*
X159606000Y-77489500D01*
X159604856Y-77512779D01*
X159601437Y-77535834D01*
X159595773Y-77558443D01*
X159587921Y-77580387D01*
X159577956Y-77601457D01*
X159565974Y-77621448D01*
X159552090Y-77640168D01*
X159536438Y-77657438D01*
X159519168Y-77673090D01*
X159500448Y-77686974D01*
X159480457Y-77698956D01*
X159459387Y-77708921D01*
X159437443Y-77716773D01*
X159414834Y-77722437D01*
X159391779Y-77725856D01*
X159368500Y-77727000D01*
X158893500Y-77727000D01*
X158870221Y-77725856D01*
X158847166Y-77722437D01*
X158824557Y-77716773D01*
X158802613Y-77708921D01*
X158781543Y-77698956D01*
X158761552Y-77686974D01*
X158742832Y-77673090D01*
X158725562Y-77657438D01*
X158709910Y-77640168D01*
X158696026Y-77621448D01*
X158684044Y-77601457D01*
X158674079Y-77580387D01*
X158666227Y-77558443D01*
X158660563Y-77535834D01*
X158657144Y-77512779D01*
X158656000Y-77489500D01*
X158656000Y-76914500D01*
X158657144Y-76891221D01*
X158660563Y-76868166D01*
X158666227Y-76845557D01*
X158674079Y-76823613D01*
X158684044Y-76802543D01*
X158696026Y-76782552D01*
X158709910Y-76763832D01*
X158725562Y-76746562D01*
X158742832Y-76730910D01*
X158761552Y-76717026D01*
X158781543Y-76705044D01*
X158802613Y-76695079D01*
X158824557Y-76687227D01*
X158847166Y-76681563D01*
X158870221Y-76678144D01*
X158893500Y-76677000D01*
X159368500Y-76677000D01*
X159391779Y-76678144D01*
X159391779Y-76678144D01*
G37*
D15*
X159131000Y-77202000D03*
D14*
G36*
X159391779Y-74928144D02*
G01*
X159414834Y-74931563D01*
X159437443Y-74937227D01*
X159459387Y-74945079D01*
X159480457Y-74955044D01*
X159500448Y-74967026D01*
X159519168Y-74980910D01*
X159536438Y-74996562D01*
X159552090Y-75013832D01*
X159565974Y-75032552D01*
X159577956Y-75052543D01*
X159587921Y-75073613D01*
X159595773Y-75095557D01*
X159601437Y-75118166D01*
X159604856Y-75141221D01*
X159606000Y-75164500D01*
X159606000Y-75739500D01*
X159604856Y-75762779D01*
X159601437Y-75785834D01*
X159595773Y-75808443D01*
X159587921Y-75830387D01*
X159577956Y-75851457D01*
X159565974Y-75871448D01*
X159552090Y-75890168D01*
X159536438Y-75907438D01*
X159519168Y-75923090D01*
X159500448Y-75936974D01*
X159480457Y-75948956D01*
X159459387Y-75958921D01*
X159437443Y-75966773D01*
X159414834Y-75972437D01*
X159391779Y-75975856D01*
X159368500Y-75977000D01*
X158893500Y-75977000D01*
X158870221Y-75975856D01*
X158847166Y-75972437D01*
X158824557Y-75966773D01*
X158802613Y-75958921D01*
X158781543Y-75948956D01*
X158761552Y-75936974D01*
X158742832Y-75923090D01*
X158725562Y-75907438D01*
X158709910Y-75890168D01*
X158696026Y-75871448D01*
X158684044Y-75851457D01*
X158674079Y-75830387D01*
X158666227Y-75808443D01*
X158660563Y-75785834D01*
X158657144Y-75762779D01*
X158656000Y-75739500D01*
X158656000Y-75164500D01*
X158657144Y-75141221D01*
X158660563Y-75118166D01*
X158666227Y-75095557D01*
X158674079Y-75073613D01*
X158684044Y-75052543D01*
X158696026Y-75032552D01*
X158709910Y-75013832D01*
X158725562Y-74996562D01*
X158742832Y-74980910D01*
X158761552Y-74967026D01*
X158781543Y-74955044D01*
X158802613Y-74945079D01*
X158824557Y-74937227D01*
X158847166Y-74931563D01*
X158870221Y-74928144D01*
X158893500Y-74927000D01*
X159368500Y-74927000D01*
X159391779Y-74928144D01*
X159391779Y-74928144D01*
G37*
D15*
X159131000Y-75452000D03*
D14*
G36*
X148088779Y-74801144D02*
G01*
X148111834Y-74804563D01*
X148134443Y-74810227D01*
X148156387Y-74818079D01*
X148177457Y-74828044D01*
X148197448Y-74840026D01*
X148216168Y-74853910D01*
X148233438Y-74869562D01*
X148249090Y-74886832D01*
X148262974Y-74905552D01*
X148274956Y-74925543D01*
X148284921Y-74946613D01*
X148292773Y-74968557D01*
X148298437Y-74991166D01*
X148301856Y-75014221D01*
X148303000Y-75037500D01*
X148303000Y-75612500D01*
X148301856Y-75635779D01*
X148298437Y-75658834D01*
X148292773Y-75681443D01*
X148284921Y-75703387D01*
X148274956Y-75724457D01*
X148262974Y-75744448D01*
X148249090Y-75763168D01*
X148233438Y-75780438D01*
X148216168Y-75796090D01*
X148197448Y-75809974D01*
X148177457Y-75821956D01*
X148156387Y-75831921D01*
X148134443Y-75839773D01*
X148111834Y-75845437D01*
X148088779Y-75848856D01*
X148065500Y-75850000D01*
X147590500Y-75850000D01*
X147567221Y-75848856D01*
X147544166Y-75845437D01*
X147521557Y-75839773D01*
X147499613Y-75831921D01*
X147478543Y-75821956D01*
X147458552Y-75809974D01*
X147439832Y-75796090D01*
X147422562Y-75780438D01*
X147406910Y-75763168D01*
X147393026Y-75744448D01*
X147381044Y-75724457D01*
X147371079Y-75703387D01*
X147363227Y-75681443D01*
X147357563Y-75658834D01*
X147354144Y-75635779D01*
X147353000Y-75612500D01*
X147353000Y-75037500D01*
X147354144Y-75014221D01*
X147357563Y-74991166D01*
X147363227Y-74968557D01*
X147371079Y-74946613D01*
X147381044Y-74925543D01*
X147393026Y-74905552D01*
X147406910Y-74886832D01*
X147422562Y-74869562D01*
X147439832Y-74853910D01*
X147458552Y-74840026D01*
X147478543Y-74828044D01*
X147499613Y-74818079D01*
X147521557Y-74810227D01*
X147544166Y-74804563D01*
X147567221Y-74801144D01*
X147590500Y-74800000D01*
X148065500Y-74800000D01*
X148088779Y-74801144D01*
X148088779Y-74801144D01*
G37*
D15*
X147828000Y-75325000D03*
D14*
G36*
X148088779Y-76551144D02*
G01*
X148111834Y-76554563D01*
X148134443Y-76560227D01*
X148156387Y-76568079D01*
X148177457Y-76578044D01*
X148197448Y-76590026D01*
X148216168Y-76603910D01*
X148233438Y-76619562D01*
X148249090Y-76636832D01*
X148262974Y-76655552D01*
X148274956Y-76675543D01*
X148284921Y-76696613D01*
X148292773Y-76718557D01*
X148298437Y-76741166D01*
X148301856Y-76764221D01*
X148303000Y-76787500D01*
X148303000Y-77362500D01*
X148301856Y-77385779D01*
X148298437Y-77408834D01*
X148292773Y-77431443D01*
X148284921Y-77453387D01*
X148274956Y-77474457D01*
X148262974Y-77494448D01*
X148249090Y-77513168D01*
X148233438Y-77530438D01*
X148216168Y-77546090D01*
X148197448Y-77559974D01*
X148177457Y-77571956D01*
X148156387Y-77581921D01*
X148134443Y-77589773D01*
X148111834Y-77595437D01*
X148088779Y-77598856D01*
X148065500Y-77600000D01*
X147590500Y-77600000D01*
X147567221Y-77598856D01*
X147544166Y-77595437D01*
X147521557Y-77589773D01*
X147499613Y-77581921D01*
X147478543Y-77571956D01*
X147458552Y-77559974D01*
X147439832Y-77546090D01*
X147422562Y-77530438D01*
X147406910Y-77513168D01*
X147393026Y-77494448D01*
X147381044Y-77474457D01*
X147371079Y-77453387D01*
X147363227Y-77431443D01*
X147357563Y-77408834D01*
X147354144Y-77385779D01*
X147353000Y-77362500D01*
X147353000Y-76787500D01*
X147354144Y-76764221D01*
X147357563Y-76741166D01*
X147363227Y-76718557D01*
X147371079Y-76696613D01*
X147381044Y-76675543D01*
X147393026Y-76655552D01*
X147406910Y-76636832D01*
X147422562Y-76619562D01*
X147439832Y-76603910D01*
X147458552Y-76590026D01*
X147478543Y-76578044D01*
X147499613Y-76568079D01*
X147521557Y-76560227D01*
X147544166Y-76554563D01*
X147567221Y-76551144D01*
X147590500Y-76550000D01*
X148065500Y-76550000D01*
X148088779Y-76551144D01*
X148088779Y-76551144D01*
G37*
D15*
X147828000Y-77075000D03*
D17*
X155366000Y-158047000D03*
X151216000Y-158047000D03*
X155366000Y-155897000D03*
X151216000Y-155897000D03*
D14*
G36*
X148977779Y-155037144D02*
G01*
X149000834Y-155040563D01*
X149023443Y-155046227D01*
X149045387Y-155054079D01*
X149066457Y-155064044D01*
X149086448Y-155076026D01*
X149105168Y-155089910D01*
X149122438Y-155105562D01*
X149138090Y-155122832D01*
X149151974Y-155141552D01*
X149163956Y-155161543D01*
X149173921Y-155182613D01*
X149181773Y-155204557D01*
X149187437Y-155227166D01*
X149190856Y-155250221D01*
X149192000Y-155273500D01*
X149192000Y-155848500D01*
X149190856Y-155871779D01*
X149187437Y-155894834D01*
X149181773Y-155917443D01*
X149173921Y-155939387D01*
X149163956Y-155960457D01*
X149151974Y-155980448D01*
X149138090Y-155999168D01*
X149122438Y-156016438D01*
X149105168Y-156032090D01*
X149086448Y-156045974D01*
X149066457Y-156057956D01*
X149045387Y-156067921D01*
X149023443Y-156075773D01*
X149000834Y-156081437D01*
X148977779Y-156084856D01*
X148954500Y-156086000D01*
X148479500Y-156086000D01*
X148456221Y-156084856D01*
X148433166Y-156081437D01*
X148410557Y-156075773D01*
X148388613Y-156067921D01*
X148367543Y-156057956D01*
X148347552Y-156045974D01*
X148328832Y-156032090D01*
X148311562Y-156016438D01*
X148295910Y-155999168D01*
X148282026Y-155980448D01*
X148270044Y-155960457D01*
X148260079Y-155939387D01*
X148252227Y-155917443D01*
X148246563Y-155894834D01*
X148243144Y-155871779D01*
X148242000Y-155848500D01*
X148242000Y-155273500D01*
X148243144Y-155250221D01*
X148246563Y-155227166D01*
X148252227Y-155204557D01*
X148260079Y-155182613D01*
X148270044Y-155161543D01*
X148282026Y-155141552D01*
X148295910Y-155122832D01*
X148311562Y-155105562D01*
X148328832Y-155089910D01*
X148347552Y-155076026D01*
X148367543Y-155064044D01*
X148388613Y-155054079D01*
X148410557Y-155046227D01*
X148433166Y-155040563D01*
X148456221Y-155037144D01*
X148479500Y-155036000D01*
X148954500Y-155036000D01*
X148977779Y-155037144D01*
X148977779Y-155037144D01*
G37*
D15*
X148717000Y-155561000D03*
D14*
G36*
X148977779Y-153287144D02*
G01*
X149000834Y-153290563D01*
X149023443Y-153296227D01*
X149045387Y-153304079D01*
X149066457Y-153314044D01*
X149086448Y-153326026D01*
X149105168Y-153339910D01*
X149122438Y-153355562D01*
X149138090Y-153372832D01*
X149151974Y-153391552D01*
X149163956Y-153411543D01*
X149173921Y-153432613D01*
X149181773Y-153454557D01*
X149187437Y-153477166D01*
X149190856Y-153500221D01*
X149192000Y-153523500D01*
X149192000Y-154098500D01*
X149190856Y-154121779D01*
X149187437Y-154144834D01*
X149181773Y-154167443D01*
X149173921Y-154189387D01*
X149163956Y-154210457D01*
X149151974Y-154230448D01*
X149138090Y-154249168D01*
X149122438Y-154266438D01*
X149105168Y-154282090D01*
X149086448Y-154295974D01*
X149066457Y-154307956D01*
X149045387Y-154317921D01*
X149023443Y-154325773D01*
X149000834Y-154331437D01*
X148977779Y-154334856D01*
X148954500Y-154336000D01*
X148479500Y-154336000D01*
X148456221Y-154334856D01*
X148433166Y-154331437D01*
X148410557Y-154325773D01*
X148388613Y-154317921D01*
X148367543Y-154307956D01*
X148347552Y-154295974D01*
X148328832Y-154282090D01*
X148311562Y-154266438D01*
X148295910Y-154249168D01*
X148282026Y-154230448D01*
X148270044Y-154210457D01*
X148260079Y-154189387D01*
X148252227Y-154167443D01*
X148246563Y-154144834D01*
X148243144Y-154121779D01*
X148242000Y-154098500D01*
X148242000Y-153523500D01*
X148243144Y-153500221D01*
X148246563Y-153477166D01*
X148252227Y-153454557D01*
X148260079Y-153432613D01*
X148270044Y-153411543D01*
X148282026Y-153391552D01*
X148295910Y-153372832D01*
X148311562Y-153355562D01*
X148328832Y-153339910D01*
X148347552Y-153326026D01*
X148367543Y-153314044D01*
X148388613Y-153304079D01*
X148410557Y-153296227D01*
X148433166Y-153290563D01*
X148456221Y-153287144D01*
X148479500Y-153286000D01*
X148954500Y-153286000D01*
X148977779Y-153287144D01*
X148977779Y-153287144D01*
G37*
D15*
X148717000Y-153811000D03*
D12*
X155866000Y-153746000D03*
X155866000Y-150546000D03*
X150966000Y-153746000D03*
X150966000Y-150546000D03*
D14*
G36*
X158970505Y-155146204D02*
G01*
X158994773Y-155149804D01*
X159018572Y-155155765D01*
X159041671Y-155164030D01*
X159063850Y-155174520D01*
X159084893Y-155187132D01*
X159104599Y-155201747D01*
X159122777Y-155218223D01*
X159139253Y-155236401D01*
X159153868Y-155256107D01*
X159166480Y-155277150D01*
X159176970Y-155299329D01*
X159185235Y-155322428D01*
X159191196Y-155346227D01*
X159194796Y-155370495D01*
X159196000Y-155394999D01*
X159196000Y-156045001D01*
X159194796Y-156069505D01*
X159191196Y-156093773D01*
X159185235Y-156117572D01*
X159176970Y-156140671D01*
X159166480Y-156162850D01*
X159153868Y-156183893D01*
X159139253Y-156203599D01*
X159122777Y-156221777D01*
X159104599Y-156238253D01*
X159084893Y-156252868D01*
X159063850Y-156265480D01*
X159041671Y-156275970D01*
X159018572Y-156284235D01*
X158994773Y-156290196D01*
X158970505Y-156293796D01*
X158946001Y-156295000D01*
X158045999Y-156295000D01*
X158021495Y-156293796D01*
X157997227Y-156290196D01*
X157973428Y-156284235D01*
X157950329Y-156275970D01*
X157928150Y-156265480D01*
X157907107Y-156252868D01*
X157887401Y-156238253D01*
X157869223Y-156221777D01*
X157852747Y-156203599D01*
X157838132Y-156183893D01*
X157825520Y-156162850D01*
X157815030Y-156140671D01*
X157806765Y-156117572D01*
X157800804Y-156093773D01*
X157797204Y-156069505D01*
X157796000Y-156045001D01*
X157796000Y-155394999D01*
X157797204Y-155370495D01*
X157800804Y-155346227D01*
X157806765Y-155322428D01*
X157815030Y-155299329D01*
X157825520Y-155277150D01*
X157838132Y-155256107D01*
X157852747Y-155236401D01*
X157869223Y-155218223D01*
X157887401Y-155201747D01*
X157907107Y-155187132D01*
X157928150Y-155174520D01*
X157950329Y-155164030D01*
X157973428Y-155155765D01*
X157997227Y-155149804D01*
X158021495Y-155146204D01*
X158045999Y-155145000D01*
X158946001Y-155145000D01*
X158970505Y-155146204D01*
X158970505Y-155146204D01*
G37*
D16*
X158496000Y-155720000D03*
D14*
G36*
X158970505Y-153096204D02*
G01*
X158994773Y-153099804D01*
X159018572Y-153105765D01*
X159041671Y-153114030D01*
X159063850Y-153124520D01*
X159084893Y-153137132D01*
X159104599Y-153151747D01*
X159122777Y-153168223D01*
X159139253Y-153186401D01*
X159153868Y-153206107D01*
X159166480Y-153227150D01*
X159176970Y-153249329D01*
X159185235Y-153272428D01*
X159191196Y-153296227D01*
X159194796Y-153320495D01*
X159196000Y-153344999D01*
X159196000Y-153995001D01*
X159194796Y-154019505D01*
X159191196Y-154043773D01*
X159185235Y-154067572D01*
X159176970Y-154090671D01*
X159166480Y-154112850D01*
X159153868Y-154133893D01*
X159139253Y-154153599D01*
X159122777Y-154171777D01*
X159104599Y-154188253D01*
X159084893Y-154202868D01*
X159063850Y-154215480D01*
X159041671Y-154225970D01*
X159018572Y-154234235D01*
X158994773Y-154240196D01*
X158970505Y-154243796D01*
X158946001Y-154245000D01*
X158045999Y-154245000D01*
X158021495Y-154243796D01*
X157997227Y-154240196D01*
X157973428Y-154234235D01*
X157950329Y-154225970D01*
X157928150Y-154215480D01*
X157907107Y-154202868D01*
X157887401Y-154188253D01*
X157869223Y-154171777D01*
X157852747Y-154153599D01*
X157838132Y-154133893D01*
X157825520Y-154112850D01*
X157815030Y-154090671D01*
X157806765Y-154067572D01*
X157800804Y-154043773D01*
X157797204Y-154019505D01*
X157796000Y-153995001D01*
X157796000Y-153344999D01*
X157797204Y-153320495D01*
X157800804Y-153296227D01*
X157806765Y-153272428D01*
X157815030Y-153249329D01*
X157825520Y-153227150D01*
X157838132Y-153206107D01*
X157852747Y-153186401D01*
X157869223Y-153168223D01*
X157887401Y-153151747D01*
X157907107Y-153137132D01*
X157928150Y-153124520D01*
X157950329Y-153114030D01*
X157973428Y-153105765D01*
X157997227Y-153099804D01*
X158021495Y-153096204D01*
X158045999Y-153095000D01*
X158946001Y-153095000D01*
X158970505Y-153096204D01*
X158970505Y-153096204D01*
G37*
D16*
X158496000Y-153670000D03*
D13*
X150868000Y-139278000D03*
X150868000Y-143428000D03*
X148718000Y-139278000D03*
X148718000Y-143428000D03*
D12*
X158406000Y-143840000D03*
X158406000Y-140640000D03*
X153506000Y-143840000D03*
X153506000Y-140640000D03*
D14*
G36*
X152724779Y-138337144D02*
G01*
X152747834Y-138340563D01*
X152770443Y-138346227D01*
X152792387Y-138354079D01*
X152813457Y-138364044D01*
X152833448Y-138376026D01*
X152852168Y-138389910D01*
X152869438Y-138405562D01*
X152885090Y-138422832D01*
X152898974Y-138441552D01*
X152910956Y-138461543D01*
X152920921Y-138482613D01*
X152928773Y-138504557D01*
X152934437Y-138527166D01*
X152937856Y-138550221D01*
X152939000Y-138573500D01*
X152939000Y-139048500D01*
X152937856Y-139071779D01*
X152934437Y-139094834D01*
X152928773Y-139117443D01*
X152920921Y-139139387D01*
X152910956Y-139160457D01*
X152898974Y-139180448D01*
X152885090Y-139199168D01*
X152869438Y-139216438D01*
X152852168Y-139232090D01*
X152833448Y-139245974D01*
X152813457Y-139257956D01*
X152792387Y-139267921D01*
X152770443Y-139275773D01*
X152747834Y-139281437D01*
X152724779Y-139284856D01*
X152701500Y-139286000D01*
X152126500Y-139286000D01*
X152103221Y-139284856D01*
X152080166Y-139281437D01*
X152057557Y-139275773D01*
X152035613Y-139267921D01*
X152014543Y-139257956D01*
X151994552Y-139245974D01*
X151975832Y-139232090D01*
X151958562Y-139216438D01*
X151942910Y-139199168D01*
X151929026Y-139180448D01*
X151917044Y-139160457D01*
X151907079Y-139139387D01*
X151899227Y-139117443D01*
X151893563Y-139094834D01*
X151890144Y-139071779D01*
X151889000Y-139048500D01*
X151889000Y-138573500D01*
X151890144Y-138550221D01*
X151893563Y-138527166D01*
X151899227Y-138504557D01*
X151907079Y-138482613D01*
X151917044Y-138461543D01*
X151929026Y-138441552D01*
X151942910Y-138422832D01*
X151958562Y-138405562D01*
X151975832Y-138389910D01*
X151994552Y-138376026D01*
X152014543Y-138364044D01*
X152035613Y-138354079D01*
X152057557Y-138346227D01*
X152080166Y-138340563D01*
X152103221Y-138337144D01*
X152126500Y-138336000D01*
X152701500Y-138336000D01*
X152724779Y-138337144D01*
X152724779Y-138337144D01*
G37*
D15*
X152414000Y-138811000D03*
D14*
G36*
X154474779Y-138337144D02*
G01*
X154497834Y-138340563D01*
X154520443Y-138346227D01*
X154542387Y-138354079D01*
X154563457Y-138364044D01*
X154583448Y-138376026D01*
X154602168Y-138389910D01*
X154619438Y-138405562D01*
X154635090Y-138422832D01*
X154648974Y-138441552D01*
X154660956Y-138461543D01*
X154670921Y-138482613D01*
X154678773Y-138504557D01*
X154684437Y-138527166D01*
X154687856Y-138550221D01*
X154689000Y-138573500D01*
X154689000Y-139048500D01*
X154687856Y-139071779D01*
X154684437Y-139094834D01*
X154678773Y-139117443D01*
X154670921Y-139139387D01*
X154660956Y-139160457D01*
X154648974Y-139180448D01*
X154635090Y-139199168D01*
X154619438Y-139216438D01*
X154602168Y-139232090D01*
X154583448Y-139245974D01*
X154563457Y-139257956D01*
X154542387Y-139267921D01*
X154520443Y-139275773D01*
X154497834Y-139281437D01*
X154474779Y-139284856D01*
X154451500Y-139286000D01*
X153876500Y-139286000D01*
X153853221Y-139284856D01*
X153830166Y-139281437D01*
X153807557Y-139275773D01*
X153785613Y-139267921D01*
X153764543Y-139257956D01*
X153744552Y-139245974D01*
X153725832Y-139232090D01*
X153708562Y-139216438D01*
X153692910Y-139199168D01*
X153679026Y-139180448D01*
X153667044Y-139160457D01*
X153657079Y-139139387D01*
X153649227Y-139117443D01*
X153643563Y-139094834D01*
X153640144Y-139071779D01*
X153639000Y-139048500D01*
X153639000Y-138573500D01*
X153640144Y-138550221D01*
X153643563Y-138527166D01*
X153649227Y-138504557D01*
X153657079Y-138482613D01*
X153667044Y-138461543D01*
X153679026Y-138441552D01*
X153692910Y-138422832D01*
X153708562Y-138405562D01*
X153725832Y-138389910D01*
X153744552Y-138376026D01*
X153764543Y-138364044D01*
X153785613Y-138354079D01*
X153807557Y-138346227D01*
X153830166Y-138340563D01*
X153853221Y-138337144D01*
X153876500Y-138336000D01*
X154451500Y-138336000D01*
X154474779Y-138337144D01*
X154474779Y-138337144D01*
G37*
D15*
X154164000Y-138811000D03*
D14*
G36*
X156931505Y-137985204D02*
G01*
X156955773Y-137988804D01*
X156979572Y-137994765D01*
X157002671Y-138003030D01*
X157024850Y-138013520D01*
X157045893Y-138026132D01*
X157065599Y-138040747D01*
X157083777Y-138057223D01*
X157100253Y-138075401D01*
X157114868Y-138095107D01*
X157127480Y-138116150D01*
X157137970Y-138138329D01*
X157146235Y-138161428D01*
X157152196Y-138185227D01*
X157155796Y-138209495D01*
X157157000Y-138233999D01*
X157157000Y-139134001D01*
X157155796Y-139158505D01*
X157152196Y-139182773D01*
X157146235Y-139206572D01*
X157137970Y-139229671D01*
X157127480Y-139251850D01*
X157114868Y-139272893D01*
X157100253Y-139292599D01*
X157083777Y-139310777D01*
X157065599Y-139327253D01*
X157045893Y-139341868D01*
X157024850Y-139354480D01*
X157002671Y-139364970D01*
X156979572Y-139373235D01*
X156955773Y-139379196D01*
X156931505Y-139382796D01*
X156907001Y-139384000D01*
X156256999Y-139384000D01*
X156232495Y-139382796D01*
X156208227Y-139379196D01*
X156184428Y-139373235D01*
X156161329Y-139364970D01*
X156139150Y-139354480D01*
X156118107Y-139341868D01*
X156098401Y-139327253D01*
X156080223Y-139310777D01*
X156063747Y-139292599D01*
X156049132Y-139272893D01*
X156036520Y-139251850D01*
X156026030Y-139229671D01*
X156017765Y-139206572D01*
X156011804Y-139182773D01*
X156008204Y-139158505D01*
X156007000Y-139134001D01*
X156007000Y-138233999D01*
X156008204Y-138209495D01*
X156011804Y-138185227D01*
X156017765Y-138161428D01*
X156026030Y-138138329D01*
X156036520Y-138116150D01*
X156049132Y-138095107D01*
X156063747Y-138075401D01*
X156080223Y-138057223D01*
X156098401Y-138040747D01*
X156118107Y-138026132D01*
X156139150Y-138013520D01*
X156161329Y-138003030D01*
X156184428Y-137994765D01*
X156208227Y-137988804D01*
X156232495Y-137985204D01*
X156256999Y-137984000D01*
X156907001Y-137984000D01*
X156931505Y-137985204D01*
X156931505Y-137985204D01*
G37*
D16*
X156582000Y-138684000D03*
D14*
G36*
X158981505Y-137985204D02*
G01*
X159005773Y-137988804D01*
X159029572Y-137994765D01*
X159052671Y-138003030D01*
X159074850Y-138013520D01*
X159095893Y-138026132D01*
X159115599Y-138040747D01*
X159133777Y-138057223D01*
X159150253Y-138075401D01*
X159164868Y-138095107D01*
X159177480Y-138116150D01*
X159187970Y-138138329D01*
X159196235Y-138161428D01*
X159202196Y-138185227D01*
X159205796Y-138209495D01*
X159207000Y-138233999D01*
X159207000Y-139134001D01*
X159205796Y-139158505D01*
X159202196Y-139182773D01*
X159196235Y-139206572D01*
X159187970Y-139229671D01*
X159177480Y-139251850D01*
X159164868Y-139272893D01*
X159150253Y-139292599D01*
X159133777Y-139310777D01*
X159115599Y-139327253D01*
X159095893Y-139341868D01*
X159074850Y-139354480D01*
X159052671Y-139364970D01*
X159029572Y-139373235D01*
X159005773Y-139379196D01*
X158981505Y-139382796D01*
X158957001Y-139384000D01*
X158306999Y-139384000D01*
X158282495Y-139382796D01*
X158258227Y-139379196D01*
X158234428Y-139373235D01*
X158211329Y-139364970D01*
X158189150Y-139354480D01*
X158168107Y-139341868D01*
X158148401Y-139327253D01*
X158130223Y-139310777D01*
X158113747Y-139292599D01*
X158099132Y-139272893D01*
X158086520Y-139251850D01*
X158076030Y-139229671D01*
X158067765Y-139206572D01*
X158061804Y-139182773D01*
X158058204Y-139158505D01*
X158057000Y-139134001D01*
X158057000Y-138233999D01*
X158058204Y-138209495D01*
X158061804Y-138185227D01*
X158067765Y-138161428D01*
X158076030Y-138138329D01*
X158086520Y-138116150D01*
X158099132Y-138095107D01*
X158113747Y-138075401D01*
X158130223Y-138057223D01*
X158148401Y-138040747D01*
X158168107Y-138026132D01*
X158189150Y-138013520D01*
X158211329Y-138003030D01*
X158234428Y-137994765D01*
X158258227Y-137988804D01*
X158282495Y-137985204D01*
X158306999Y-137984000D01*
X158957001Y-137984000D01*
X158981505Y-137985204D01*
X158981505Y-137985204D01*
G37*
D16*
X158632000Y-138684000D03*
D18*
X150876000Y-73533000D03*
X153376000Y-73533000D03*
X155876000Y-73533000D03*
X155876000Y-79033000D03*
X150876000Y-79033000D03*
X153376000Y-79033000D03*
D10*
X150749000Y-93980000D03*
X150749000Y-96520000D03*
X153289000Y-96520000D03*
X155829000Y-96520000D03*
D19*
X158369000Y-96520000D03*
M02*
