G04 #@! TF.GenerationSoftware,KiCad,Pcbnew,(5.1.0)-1*
G04 #@! TF.CreationDate,2019-07-29T16:37:05-07:00*
G04 #@! TF.ProjectId,Watch V4,57617463-6820-4563-942e-6b696361645f,rev?*
G04 #@! TF.SameCoordinates,Original*
G04 #@! TF.FileFunction,Copper,L2,Bot*
G04 #@! TF.FilePolarity,Positive*
%FSLAX46Y46*%
G04 Gerber Fmt 4.6, Leading zero omitted, Abs format (unit mm)*
G04 Created by KiCad (PCBNEW (5.1.0)-1) date 2019-07-29 16:37:05*
%MOMM*%
%LPD*%
G04 APERTURE LIST*
%ADD10R,3.000000X1.000000*%
%ADD11R,1.000000X1.000000*%
%ADD12C,0.100000*%
%ADD13C,0.950000*%
%ADD14R,1.900000X0.800000*%
%ADD15C,0.800000*%
%ADD16C,0.500000*%
G04 APERTURE END LIST*
D10*
X153416000Y-60579000D03*
X153416000Y-58801000D03*
D11*
X152166000Y-56896000D03*
X154666000Y-56896000D03*
D12*
G36*
X151073779Y-65439144D02*
G01*
X151096834Y-65442563D01*
X151119443Y-65448227D01*
X151141387Y-65456079D01*
X151162457Y-65466044D01*
X151182448Y-65478026D01*
X151201168Y-65491910D01*
X151218438Y-65507562D01*
X151234090Y-65524832D01*
X151247974Y-65543552D01*
X151259956Y-65563543D01*
X151269921Y-65584613D01*
X151277773Y-65606557D01*
X151283437Y-65629166D01*
X151286856Y-65652221D01*
X151288000Y-65675500D01*
X151288000Y-66150500D01*
X151286856Y-66173779D01*
X151283437Y-66196834D01*
X151277773Y-66219443D01*
X151269921Y-66241387D01*
X151259956Y-66262457D01*
X151247974Y-66282448D01*
X151234090Y-66301168D01*
X151218438Y-66318438D01*
X151201168Y-66334090D01*
X151182448Y-66347974D01*
X151162457Y-66359956D01*
X151141387Y-66369921D01*
X151119443Y-66377773D01*
X151096834Y-66383437D01*
X151073779Y-66386856D01*
X151050500Y-66388000D01*
X150475500Y-66388000D01*
X150452221Y-66386856D01*
X150429166Y-66383437D01*
X150406557Y-66377773D01*
X150384613Y-66369921D01*
X150363543Y-66359956D01*
X150343552Y-66347974D01*
X150324832Y-66334090D01*
X150307562Y-66318438D01*
X150291910Y-66301168D01*
X150278026Y-66282448D01*
X150266044Y-66262457D01*
X150256079Y-66241387D01*
X150248227Y-66219443D01*
X150242563Y-66196834D01*
X150239144Y-66173779D01*
X150238000Y-66150500D01*
X150238000Y-65675500D01*
X150239144Y-65652221D01*
X150242563Y-65629166D01*
X150248227Y-65606557D01*
X150256079Y-65584613D01*
X150266044Y-65563543D01*
X150278026Y-65543552D01*
X150291910Y-65524832D01*
X150307562Y-65507562D01*
X150324832Y-65491910D01*
X150343552Y-65478026D01*
X150363543Y-65466044D01*
X150384613Y-65456079D01*
X150406557Y-65448227D01*
X150429166Y-65442563D01*
X150452221Y-65439144D01*
X150475500Y-65438000D01*
X151050500Y-65438000D01*
X151073779Y-65439144D01*
X151073779Y-65439144D01*
G37*
D13*
X150763000Y-65913000D03*
D12*
G36*
X152823779Y-65439144D02*
G01*
X152846834Y-65442563D01*
X152869443Y-65448227D01*
X152891387Y-65456079D01*
X152912457Y-65466044D01*
X152932448Y-65478026D01*
X152951168Y-65491910D01*
X152968438Y-65507562D01*
X152984090Y-65524832D01*
X152997974Y-65543552D01*
X153009956Y-65563543D01*
X153019921Y-65584613D01*
X153027773Y-65606557D01*
X153033437Y-65629166D01*
X153036856Y-65652221D01*
X153038000Y-65675500D01*
X153038000Y-66150500D01*
X153036856Y-66173779D01*
X153033437Y-66196834D01*
X153027773Y-66219443D01*
X153019921Y-66241387D01*
X153009956Y-66262457D01*
X152997974Y-66282448D01*
X152984090Y-66301168D01*
X152968438Y-66318438D01*
X152951168Y-66334090D01*
X152932448Y-66347974D01*
X152912457Y-66359956D01*
X152891387Y-66369921D01*
X152869443Y-66377773D01*
X152846834Y-66383437D01*
X152823779Y-66386856D01*
X152800500Y-66388000D01*
X152225500Y-66388000D01*
X152202221Y-66386856D01*
X152179166Y-66383437D01*
X152156557Y-66377773D01*
X152134613Y-66369921D01*
X152113543Y-66359956D01*
X152093552Y-66347974D01*
X152074832Y-66334090D01*
X152057562Y-66318438D01*
X152041910Y-66301168D01*
X152028026Y-66282448D01*
X152016044Y-66262457D01*
X152006079Y-66241387D01*
X151998227Y-66219443D01*
X151992563Y-66196834D01*
X151989144Y-66173779D01*
X151988000Y-66150500D01*
X151988000Y-65675500D01*
X151989144Y-65652221D01*
X151992563Y-65629166D01*
X151998227Y-65606557D01*
X152006079Y-65584613D01*
X152016044Y-65563543D01*
X152028026Y-65543552D01*
X152041910Y-65524832D01*
X152057562Y-65507562D01*
X152074832Y-65491910D01*
X152093552Y-65478026D01*
X152113543Y-65466044D01*
X152134613Y-65456079D01*
X152156557Y-65448227D01*
X152179166Y-65442563D01*
X152202221Y-65439144D01*
X152225500Y-65438000D01*
X152800500Y-65438000D01*
X152823779Y-65439144D01*
X152823779Y-65439144D01*
G37*
D13*
X152513000Y-65913000D03*
D14*
X151027000Y-64196000D03*
X151027000Y-62296000D03*
X154027000Y-63246000D03*
D15*
X156972000Y-54483000D03*
X154940000Y-43688000D03*
X155956000Y-43688000D03*
X156972000Y-43688000D03*
X156972000Y-55880000D03*
X157607000Y-59944000D03*
X157226000Y-63500000D03*
X154559000Y-64770000D03*
X153416000Y-56896000D03*
X153289000Y-153797000D03*
X153416000Y-142240000D03*
X153416000Y-133096000D03*
X153416000Y-123952000D03*
X153416000Y-114808000D03*
X153416000Y-105664000D03*
X158242000Y-39116000D03*
X141414500Y-35115500D03*
X155829000Y-93726000D03*
X147828000Y-74041000D03*
X147701000Y-150495000D03*
X147828000Y-140589000D03*
X152019000Y-140589000D03*
X147828000Y-131445000D03*
X152019000Y-131445000D03*
X147828000Y-122301000D03*
X152019000Y-122301000D03*
X147828000Y-113157000D03*
X152019000Y-113157000D03*
X147447000Y-67437000D03*
X148717000Y-42418000D03*
X146812000Y-74041000D03*
X145796000Y-77216000D03*
X152019000Y-104013000D03*
X147828000Y-104013000D03*
X153289000Y-150876000D03*
X152908000Y-62103000D03*
X159131000Y-78867000D03*
X160147000Y-95758000D03*
X149606000Y-63373000D03*
X149606000Y-61214000D03*
X136017000Y-31750000D03*
X147828000Y-43815000D03*
X146494500Y-66865500D03*
X157099000Y-94742000D03*
X155448000Y-76454000D03*
X152527000Y-94742000D03*
X146050000Y-59563000D03*
X146050000Y-43815000D03*
X135128000Y-33401000D03*
X154559000Y-92583000D03*
X146939000Y-64770000D03*
X149352000Y-72517000D03*
D16*
X156972000Y-44253685D02*
X156972000Y-54483000D01*
X156972000Y-43688000D02*
X156972000Y-44253685D01*
X155956000Y-54864000D02*
X155956000Y-43688000D01*
X156972000Y-55880000D02*
X155956000Y-54864000D01*
X153416000Y-142240000D02*
X146685000Y-142240000D01*
X153416000Y-133096000D02*
X146685000Y-133096000D01*
X153416000Y-123952000D02*
X146685000Y-123952000D01*
X153416000Y-114808000D02*
X146685000Y-114808000D01*
X158242000Y-39116000D02*
X154241500Y-35115500D01*
X147828000Y-68453000D02*
X147828000Y-72898000D01*
X149098000Y-67183000D02*
X147828000Y-68453000D01*
X147828000Y-72898000D02*
X147828000Y-74041000D01*
X147828000Y-74041000D02*
X147828000Y-75411963D01*
X147828000Y-75411963D02*
X147828000Y-75946000D01*
X147828000Y-75946000D02*
X146685000Y-77089000D01*
X148590000Y-93726000D02*
X146685000Y-93726000D01*
X155829000Y-93726000D02*
X148590000Y-93726000D01*
X146685000Y-77089000D02*
X146685000Y-93726000D01*
X153416000Y-105664000D02*
X146685000Y-105664000D01*
X146685000Y-93726000D02*
X146685000Y-105664000D01*
X152723315Y-153797000D02*
X146685000Y-153797000D01*
X153289000Y-153797000D02*
X152723315Y-153797000D01*
X146685000Y-105664000D02*
X146685000Y-153797000D01*
X154666000Y-56896000D02*
X154666000Y-56662000D01*
X153416000Y-58801000D02*
X154416000Y-58801000D01*
X153416000Y-56896000D02*
X154666000Y-56896000D01*
X153416000Y-56896000D02*
X153416000Y-58801000D01*
X154559000Y-65335685D02*
X154559000Y-67183000D01*
X154559000Y-64770000D02*
X154559000Y-65335685D01*
X154559000Y-67183000D02*
X149098000Y-67183000D01*
X153416000Y-35179000D02*
X153416000Y-56896000D01*
X153479500Y-35115500D02*
X153416000Y-35179000D01*
X153479500Y-35115500D02*
X141414500Y-35115500D01*
X154241500Y-35115500D02*
X153479500Y-35115500D01*
X154416000Y-58801000D02*
X155575000Y-59960000D01*
X155575000Y-66167000D02*
X154559000Y-67183000D01*
X155124685Y-64770000D02*
X155575000Y-64770000D01*
X154559000Y-64770000D02*
X155124685Y-64770000D01*
X155575000Y-59960000D02*
X155575000Y-64770000D01*
X155575000Y-64770000D02*
X155575000Y-66167000D01*
X151453315Y-140589000D02*
X147828000Y-140589000D01*
X152019000Y-140589000D02*
X151453315Y-140589000D01*
X151453315Y-131445000D02*
X147828000Y-131445000D01*
X152019000Y-131445000D02*
X151453315Y-131445000D01*
X151453315Y-122301000D02*
X147828000Y-122301000D01*
X152019000Y-122301000D02*
X151453315Y-122301000D01*
X151453315Y-113157000D02*
X147828000Y-113157000D01*
X152019000Y-113157000D02*
X151453315Y-113157000D01*
X150477000Y-62296000D02*
X151027000Y-62296000D01*
X148783000Y-62296000D02*
X148717000Y-62230000D01*
X151027000Y-62296000D02*
X148783000Y-62296000D01*
X148717000Y-64056000D02*
X148717000Y-62230000D01*
X148717000Y-62230000D02*
X148717000Y-58293000D01*
X148717000Y-55118000D02*
X148717000Y-58293000D01*
X148717000Y-42418000D02*
X148717000Y-55118000D01*
X148717000Y-66040000D02*
X148717000Y-65913000D01*
X148717000Y-65913000D02*
X148717000Y-64056000D01*
X148717000Y-66167000D02*
X147447000Y-67437000D01*
X148717000Y-65913000D02*
X148717000Y-66167000D01*
X146812000Y-75438000D02*
X146812000Y-74041000D01*
X145796000Y-76454000D02*
X146812000Y-75438000D01*
X145796000Y-77216000D02*
X145796000Y-76454000D01*
X152019000Y-104013000D02*
X151453315Y-104013000D01*
X151453315Y-104013000D02*
X147828000Y-104013000D01*
X147828000Y-104013000D02*
X147828000Y-104013000D01*
X147701000Y-150495000D02*
X148266685Y-150495000D01*
X148266685Y-150495000D02*
X152908000Y-150495000D01*
X152908000Y-150495000D02*
X153289000Y-150876000D01*
X153289000Y-150876000D02*
X153289000Y-150876000D01*
X152908000Y-62103000D02*
X152908000Y-62103000D01*
X157607000Y-63119000D02*
X157226000Y-63500000D01*
X157607000Y-59944000D02*
X157607000Y-63119000D01*
X152149315Y-62296000D02*
X152080000Y-62296000D01*
X152342315Y-62103000D02*
X152149315Y-62296000D01*
X152908000Y-62103000D02*
X152342315Y-62103000D01*
X151027000Y-62296000D02*
X152080000Y-62296000D01*
X151166000Y-56896000D02*
X150876000Y-57186000D01*
X152166000Y-56896000D02*
X151166000Y-56896000D01*
X150876000Y-57186000D02*
X150876000Y-60071000D01*
X151384000Y-60579000D02*
X153416000Y-60579000D01*
X150876000Y-60071000D02*
X151384000Y-60579000D01*
X154027000Y-61190000D02*
X153416000Y-60579000D01*
X154027000Y-63246000D02*
X154027000Y-61190000D01*
X159131000Y-94742000D02*
X160147000Y-95758000D01*
X159131000Y-78867000D02*
X159131000Y-94742000D01*
X151027000Y-64196000D02*
X151445000Y-64196000D01*
X152513000Y-65682000D02*
X151027000Y-64196000D01*
X152513000Y-65913000D02*
X152513000Y-65682000D01*
X149606000Y-64770000D02*
X149606000Y-63373000D01*
X149606000Y-65335685D02*
X149606000Y-64770000D01*
X150763000Y-65913000D02*
X150183315Y-65913000D01*
X150183315Y-65913000D02*
X149606000Y-65335685D01*
X140843000Y-36576000D02*
X136017000Y-31750000D01*
X144133002Y-36576000D02*
X140843000Y-36576000D01*
X149606000Y-42048998D02*
X144133002Y-36576000D01*
X149606000Y-61214000D02*
X149606000Y-42048998D01*
X147828000Y-43815000D02*
X147828000Y-43815000D01*
X147828000Y-65532000D02*
X146494500Y-66865500D01*
X147828000Y-43815000D02*
X147828000Y-65532000D01*
X157099000Y-94742000D02*
X152527000Y-94742000D01*
X154940000Y-55359998D02*
X154940000Y-43688000D01*
X156470001Y-75431999D02*
X155448000Y-76454000D01*
X156470001Y-56889999D02*
X156470001Y-75431999D01*
X156470001Y-56889999D02*
X154940000Y-55359998D01*
X146050000Y-59563000D02*
X146050000Y-43815000D01*
X146050000Y-43815000D02*
X146050000Y-43815000D01*
X142973158Y-37747842D02*
X139474842Y-37747842D01*
X139474842Y-37747842D02*
X135128000Y-33401000D01*
X146939000Y-41713684D02*
X142973158Y-37747842D01*
X146939000Y-64770000D02*
X146939000Y-41713684D01*
X154559000Y-77597000D02*
X153416000Y-76454000D01*
X154559000Y-92583000D02*
X154559000Y-77597000D01*
X149352000Y-74676000D02*
X151130000Y-76454000D01*
X153416000Y-76454000D02*
X151130000Y-76454000D01*
X149352000Y-74676000D02*
X149352000Y-74041000D01*
X149352000Y-74041000D02*
X149352000Y-72517000D01*
M02*
